SplineFontDB: 3.2
FontName: BerntiquaBF-Bold
FullName: Berntiqua BF Bold
FamilyName: Berntiqua BF
Weight: Bold
Copyright: Copyright (c) 2023, Bronnel Fonts
UComments: "2023-4-1: Created with FontForge (http://fontforge.org)"
Version: 001.000
ItalicAngle: 0
UnderlinePosition: -100
UnderlineWidth: 50
Ascent: 800
Descent: 200
InvalidEm: 0
LayerCount: 2
Layer: 0 0 "Back" 1
Layer: 1 0 "Fore" 0
XUID: [1021 344 888104427 12482]
FSType: 0
OS2Version: 0
OS2_WeightWidthSlopeOnly: 0
OS2_UseTypoMetrics: 1
CreationTime: 1680387818
ModificationTime: 1698069782
PfmFamily: 17
TTFWeight: 700
TTFWidth: 5
LineGap: 90
VLineGap: 0
OS2TypoAscent: 0
OS2TypoAOffset: 1
OS2TypoDescent: 0
OS2TypoDOffset: 1
OS2TypoLinegap: 90
OS2WinAscent: 0
OS2WinAOffset: 1
OS2WinDescent: 0
OS2WinDOffset: 1
HheadAscent: 0
HheadAOffset: 1
HheadDescent: 0
HheadDOffset: 1
OS2Vendor: 'PfEd'
Lookup: 3 0 0 "'salt' Stylistic Alternatives in Latin lookup 1" { "'salt' Stylistic Alternatives in Latin lookup 1-1"  } ['salt' ('DFLT' <'dflt' > 'latn' <'dflt' > ) ]
Lookup: 4 0 0 "'dlig' Discretionary Ligatures in Latin lookup 0" { "'dlig' Discretionary Ligatures in Latin lookup 0-1"  } ['dlig' ('DFLT' <'dflt' > 'latn' <'dflt' > ) ]
Lookup: 260 0 0 "'mark' Mark Positioning in Latin lookup 1" { "'mark' Mark Positioning in Latin lookup 1-1"  } ['mark' ('DFLT' <'dflt' > 'latn' <'dflt' > ) ]
Lookup: 258 0 0 "'kern' Horizontal Kerning in Latin lookup 0" { "'kern' Horizontal Kerning in Latin lookup 0-1" [150,15,2] } ['kern' ('DFLT' <'dflt' > 'latn' <'dflt' > ) ]
MarkAttachClasses: 1
DEI: 91125

StartChar: exclam
Encoding: 33 33 0
Width: 204
Flags: W
HStem: -10 152<49.5543 154.446> 578 20G<84.6396 122.4>
VStem: 26 152<13.5543 118.446> 33.2598 143.96<383.75 580.876> 72 62<190.182 379.406>
LayerCount: 2
Fore
SplineSet
33.259765625 522 m 0xd0
 33.259765625 579 65.759765625 598 103.51953125 598 c 0
 141.280273438 598 177.219726562 581 177.219726562 521 c 0xd0
 177.219726562 417 134 350 134 228 c 16
 134 210 129 189 103 189 c 0
 77 189 72 210 72 229 c 0xc8
 72 348 33.259765625 425 33.259765625 522 c 0xd0
26 66 m 0xe0
 26 108 60 142 102 142 c 0
 144 142 178 108 178 66 c 0
 178 24 144 -10 102 -10 c 0
 60 -10 26 24 26 66 c 0xe0
EndSplineSet
Validated: 1
EndChar

StartChar: dollar
Encoding: 36 36 1
Width: 413
Flags: W
HStem: -91.9805 135.98<165.691 234.174> -8 48.2773<183.247 216.482> 473.723 44.2773<171.518 204.753>
VStem: 32 102<283.5 448.663> 149.035 77.2227<483.122 603.227> 161.742 75.2676<-89.2268 30.8779> 266 112<70.5 246.5>
LayerCount: 2
Fore
SplineSet
151.967773438 541.530273438 m 0x3a
 151.967773438 554.28515625 150.990234375 562.342773438 150.990234375 577.783203125 c 0
 150.990234375 596.581054688 165.65234375 605.98046875 188.134765625 605.98046875 c 0
 210.6171875 605.98046875 226.2578125 591.881835938 226.2578125 577.111328125 c 0
 226.2578125 562.342773438 222.34765625 550.2578125 222.34765625 541.530273438 c 0
 222.34765625 532.802734375 226.2578125 523.403320312 226.2578125 503.262695312 c 0
 226.2578125 483.122070312 204.752929688 473.72265625 188.134765625 473.72265625 c 0
 171.517578125 473.72265625 149.03515625 481.779296875 149.03515625 503.262695312 c 0
 149.03515625 518.704101562 151.967773438 528.102539062 151.967773438 541.530273438 c 0x3a
236.032226562 -27.5302734375 m 4
 236.032226562 -40.28515625 237.009765625 -48.3427734375 237.009765625 -63.783203125 c 4
 237.009765625 -82.5810546875 222.34765625 -91.98046875 199.865234375 -91.98046875 c 4xb6
 177.3828125 -91.98046875 161.7421875 -77.8818359375 161.7421875 -63.111328125 c 4
 161.7421875 -48.3427734375 165.65234375 -36.2578125 165.65234375 -27.5302734375 c 4
 165.65234375 -18.802734375 161.7421875 -9.4033203125 161.7421875 10.7373046875 c 4
 161.7421875 30.8779296875 183.247070312 40.27734375 199.865234375 40.27734375 c 4x76
 216.482421875 40.27734375 238.96484375 32.220703125 238.96484375 10.7373046875 c 4
 238.96484375 -4.7041015625 236.032226562 -14.1025390625 236.032226562 -27.5302734375 c 4
32 377 m 0
 32 450 94 518 192 518 c 0
 290 518 322 472 322 447 c 0
 322 422 308 399 276 399 c 0
 224 399 208 457 172 457 c 0
 148 457 134 438 134 418 c 0
 134 344 378 325 378 168 c 0
 378 64 284 -8 180 -8 c 0x72
 76 -8 22 33 22 83 c 0
 22 113 38 135 80 135 c 0
 154 135 154 44 218 44 c 0
 246 44 266 57 266 84 c 0
 266 202 32 190 32 377 c 0
EndSplineSet
Validated: 5
EndChar

StartChar: comma
Encoding: 44 44 2
Width: 204
Flags: W
HStem: -161 303
VStem: 64 114<-55.5 87>
LayerCount: 2
Fore
SplineSet
26 66 m 4
 26 108 60 142 102 142 c 4
 144 142 178 108 178 66 c 4
 178 -57 54 -161 13 -161 c 4
 1.95463898281 -161 -4 -155 -4 -146 c 4
 -4 -117 64 -83 64 -28 c 4
 64 3 26 12 26 66 c 4
EndSplineSet
Validated: 1
EndChar

StartChar: hyphen
Encoding: 45 45 3
Width: 329
Flags: W
HStem: 155.266 104.734<85.064 243.664>
LayerCount: 2
Fore
SplineSet
207.999023438 155.265625 m 6
 102 155.265625 l 6
 95.9990234375 155.265625 82 138 56 138 c 4
 30 138 28.5390625 164.354492188 39 178 c 6
 85 238 l 6
 97.0234375 253.682617188 105 260 121 260 c 6
 233 260 l 6
 242 260 246.999023438 277.265625 272.999023438 277.265625 c 4
 298.999023438 277.265625 300.4609375 250.911132812 289.999023438 237.265625 c 6
 243.999023438 177.265625 l 6
 231.9765625 161.583007812 224 155.265625 207.999023438 155.265625 c 6
EndSplineSet
Validated: 33
EndChar

StartChar: period
Encoding: 46 46 4
Width: 204
Flags: W
HStem: -10 152<49.5543 154.446>
VStem: 26 152<13.5543 118.446>
LayerCount: 2
Fore
SplineSet
26 66 m 4
 26 108 60 142 102 142 c 4
 144 142 178 108 178 66 c 4
 178 24 144 -10 102 -10 c 4
 60 -10 26 24 26 66 c 4
EndSplineSet
Validated: 1
EndChar

StartChar: zero
Encoding: 48 48 5
Width: 536
Flags: W
HStem: -4.31641 51.2002<212.76 318.24> 444.573 51.2002<211.63 319.37>
VStem: 16.5 142.4<140.221 354.776> 372.1 142.4<140.221 354.776>
LayerCount: 2
Fore
SplineSet
265.5 444.573242188 m 0
 199.2578125 444.573242188 158.900390625 375.829101562 158.900390625 249 c 4
 158.900390625 118.358398438 199.258150894 46.8837890625 265.5 46.8837890625 c 0
 331.741849106 46.8837890625 372.099609375 118.358398438 372.099609375 249 c 4
 372.099609375 375.829101562 331.7421875 444.573242188 265.5 444.573242188 c 0
265.5 495.7734375 m 0
 407.275390625 495.7734375 514.5 395.263671875 514.5 249 c 4
 514.5 99.1962890625 407.275119617 -4.31640625 265.5 -4.31640625 c 0
 123.724880383 -4.31640625 16.5 99.1962890625 16.5 249 c 4
 16.5 395.263671875 123.724609375 495.7734375 265.5 495.7734375 c 0
EndSplineSet
EndChar

StartChar: one
Encoding: 49 49 6
Width: 258
Flags: W
HStem: 0 53.9033<7.62726 65 192 248.974>
VStem: 65 127<54.054 386.997>
LayerCount: 2
Fore
SplineSet
192 66 m 2
 192 59 195.252929688 54.0380859375 200 54.0380859375 c 0
 206 54.0380859375 209.19921875 57.470703125 220.040039062 57.470703125 c 0
 239.64453125 57.470703125 249.875976562 45.8955078125 249.875976562 29.8564453125 c 0
 249.875976562 13.81640625 241.233398438 0 207.626953125 0 c 0
 174.01953125 0 162.921875 3.609375 127.297851562 3.609375 c 0
 91.6748046875 3.609375 82.607421875 0 49 0 c 0
 15.39453125 0 6.72265625 13.81640625 6.72265625 29.8564453125 c 0
 6.72265625 45.8955078125 16.982421875 57.470703125 36.5869140625 57.470703125 c 0
 47.5791015625 57.470703125 51 53.9033203125 57 53.9033203125 c 0
 61.75390625 53.9033203125 65 57 65 66 c 2
 65 372.7734375 l 2
 65 383 62 387 56 387 c 0
 46 387 41.4501953125 379.7734375 23 379.7734375 c 0
 10 379.7734375 -2 386 -2 402.7734375 c 0
 -2 436.7734375 32.0791015625 433.581054688 72 452.7734375 c 0
 124 477.7734375 145 495.7734375 167 495.7734375 c 0
 187 495.7734375 192 483 192 466.7734375 c 2
 192 66 l 2
EndSplineSet
EndChar

StartChar: two
Encoding: 50 50 7
Width: 474
Flags: W
HStem: -4.31641 103.316<277 387.706> -4.31641 89.3164<23.1304 89> 38 66<186.002 224> 419.366 76.4072<144.754 299>
VStem: 60 66.5322<344.261 414.919> 260 150<295.598 400.126> 395.062 65.9375<101.819 161.985>
LayerCount: 2
Fore
SplineSet
60 377 m 0x5c
 60 428.932617188 134 495.7734375 250 495.7734375 c 0
 348 495.7734375 410 444 410 370 c 0
 410 230 186 137 186 112 c 0
 186 107 189 104 195 104 c 0x3c
 207 104 264 129 298 129 c 0
 333 129 362.9296875 99 378.139648438 99 c 0
 390.740234375 99 395.0625 111.89453125 395.0625 127.490234375 c 0
 395.0625 152 406.8203125 163.759765625 430 163.759765625 c 0
 451.639648438 163.759765625 461 148.549804688 461 131 c 0
 461 70.16015625 384 -4.31640625 330 -4.31640625 c 0x9a
 279 -4.31640625 159 38 148 38 c 0x3a
 137 38 96 -4.31640625 46 -4.31640625 c 0
 29 -4.31640625 10 6 10 31 c 0
 10 88 76.6787109375 68.77734375 89 85 c 2
 222 239 l 2
 252.557617188 274.3828125 260 312 260 347 c 0
 260 393 229 419.366210938 177.53125 419.366210938 c 0
 143.365234375 419.366210938 125.065429688 408.43359375 125.065429688 392.033203125 c 0
 125.065429688 383.236328125 126.532226562 377.78125 126.532226562 370.067382812 c 0
 126.532226562 356.643554688 115.124023438 342.633789062 92.9990234375 342.633789062 c 0
 75.2333984375 342.633789062 60 353.93359375 60 377 c 0x5c
EndSplineSet
EndChar

StartChar: three
Encoding: 51 51 8
Width: 425
Flags: W
HStem: -4.31641 57.3164<78.9902 213.019> 254.91 65.0898<84.9551 158.298> 262.87 53.1299<119.983 202.63> 444 51.7734<113.221 245.984>
VStem: 219 125.238<356.351 432.791> 219 61<319 387> 260.238 140<106.857 230.342>
LayerCount: 2
Fore
SplineSet
206 495.7734375 m 0xb8
 283.23828125 495.7734375 344.23828125 470 344.23828125 408 c 0xb8
 344.23828125 351 280 329 280 319 c 0xb4
 280 305 400.23828125 302 400.23828125 187 c 0
 400.23828125 66 272 -4.31640625 152 -4.31640625 c 0
 63 -4.31640625 8.3212890625 22.6591796875 8.3212890625 57.986328125 c 0
 8.3212890625 79.599609375 24.392578125 89 43 89 c 0
 75.4150390625 89 84.23828125 53 150 53 c 0
 212 53 260.23828125 107 260.23828125 170 c 0
 260.23828125 223 221 262.870117188 180 262.870117188 c 0xb2
 140.772460938 262.870117188 134 254.91015625 115 254.91015625 c 0
 100.102539062 254.91015625 83 265 83 287 c 0
 83 306.833007812 98 320 119 320 c 0xd2
 140.249023438 320 143.840820312 316 159 316 c 0
 195 316 219 345.6171875 219 387 c 0
 219 424 195 444 159 444 c 0
 130 444 116 431 106 412 c 0
 98.08203125 396.95703125 96 379 67 379 c 0
 39 379 33 400 33 412 c 0
 33 456 114 495.7734375 206 495.7734375 c 0xb8
EndSplineSet
EndChar

StartChar: four
Encoding: 52 52 9
Width: 465
Flags: W
HStem: 0 53.9033<171.627 229 354 411.347> 163.312 69.0752<366.063 444.188> 166 58<124.323 228.656 357.076 414.949>
VStem: 13 111.32<181.5 234.023> 229 125<54.054 165.534 224.025 317.994>
LayerCount: 2
Fore
SplineSet
354 65.5244140625 m 2xd8
 354 58.5244140625 357.625976562 54.0380859375 362.373046875 54.0380859375 c 0
 368.373046875 54.0380859375 371.572265625 57.470703125 382.413085938 57.470703125 c 0
 402.017578125 57.470703125 412.249023438 45.8955078125 412.249023438 29.8564453125 c 0
 412.249023438 13.81640625 403.606445312 0 370 0 c 0
 336.392578125 0 323.921875 3.609375 288.297851562 3.609375 c 0
 252.674804688 3.609375 246.607421875 0 213 0 c 0
 179.39453125 0 170.72265625 13.81640625 170.72265625 29.8564453125 c 0
 170.72265625 45.8955078125 180.982421875 57.470703125 200.586914062 57.470703125 c 0
 211.579101562 57.470703125 215 53.9033203125 221 53.9033203125 c 0
 225.75390625 53.9033203125 229 57 229 66 c 2
 229 136 l 2
 229 164 220.653391192 166 194 166 c 2
 57 166 l 2xb8
 27 166 13 174 13 189 c 0
 13 209 44.193400283 226.85506555 72 256 c 2
 263.903320312 457.139648438 l 2
 286.045941219 480.347996148 304 500.073242188 327 500.073242188 c 0
 351 500.073242188 357 482.599609375 357 459.299804688 c 2
 357 234.662109375 l 2
 357 226.537109375 360.061523438 223.92578125 365.590820312 223.92578125 c 0
 375.545898438 223.92578125 393.5 232.387695312 416 232.387695312 c 0
 435 232.387695312 446 217.599609375 446 198.262695312 c 0
 446 178.924804688 437 163.3125 411 163.3125 c 0
 395.59375 163.3125 380.469726562 168.76953125 369.676757812 168.76953125 c 0
 360.15234375 168.76953125 354 164 354 148.524414062 c 2
 354 65.5244140625 l 2xd8
213 318 m 0
 204 318 193.163085938 309.926757812 184 300 c 2
 142 258 l 18
 130.528150944 246.528150944 124.320434718 237.030351699 124.320434718 231.016335697 c 0
 124.320434718 226.545527548 127.751071698 224 135 224 c 2
 204 224 l 2
 222 224 230 226 230 238 c 2
 230 293 l 2
 230 310 224 318 213 318 c 0
EndSplineSet
EndChar

StartChar: five
Encoding: 53 53 10
Width: 421
Flags: W
HStem: -9 68<69.3537 217.925> 248 106<168.8 227.477> 404.3 78<171.35 312.524> 404.322 109.978<304.396 350.487>
VStem: 253 130<117.812 221.813>
LayerCount: 2
Fore
SplineSet
153 59 m 0xe8
 211 59 253 99 253 158 c 0
 253 228 210 248 153 248 c 0
 122 248 103 242 81 242 c 0
 63 242 53 252 53 266 c 0
 53 282 65.2032463724 294.082761027 80 326 c 2
 143.508789062 462.991210938 l 2
 150.609375 477.780273438 158 482.299804688 172 482.299804688 c 10
 292.544921875 482.299804688 l 2xe8
 304.544921875 482.299804688 310 514.299804688 330 514.299804688 c 4xd8
 346 514.299804688 350.995117188 504.299804688 350.995117188 482.299804688 c 2xe8
 350.995117188 426.299804688 l 2
 350.995117188 411.299804688 344 404.32421875 331 404.322265625 c 2xd8
 187 404.299804688 l 2
 183 404.298828125 179.103656007 402.895983744 176.600585938 396.299804688 c 2
 167 371 l 2
 163.511141315 361.80603581 165 354 174 354 c 0
 182 354 200 358 219 358 c 0
 310 358 383 306 383 208 c 0
 383 75 257 -9 143 -9 c 0
 54 -9 10.3212890625 19.6591796875 10.3212890625 54.986328125 c 0
 10.3212890625 76.599609375 26.392578125 86 45 86 c 0
 77.4150390625 86 87.23828125 59 153 59 c 0xe8
EndSplineSet
EndChar

StartChar: six
Encoding: 54 54 11
Width: 486
Flags: W
HStem: -4.31641 60<205.368 312.781> 285.457 41<175.38 243.149> 405.773 90<207.042 345.587>
VStem: 28 127<111.257 264.434> 331 124<99.4095 220.438>
LayerCount: 2
Fore
SplineSet
155 204.45703125 m 0
 155 117.433339164 198.996247743 55.68359375 261 55.68359375 c 0
 304.834139857 55.68359375 331 85.128947301 331 134.45703125 c 0
 331 214.600188409 279.851682982 285.45703125 222 285.45703125 c 0
 181.038887396 285.45703125 155 253.977182308 155 204.45703125 c 0
28 191.45703125 m 0
 28 363.919935452 152.78396764 495.7734375 316 495.7734375 c 0
 355.687379581 495.7734375 383 473.760280744 383 441.7734375 c 0
 383 414.215668867 358.968481228 396.7734375 321 396.7734375 c 0
 295 396.7734375 275 405.7734375 249 405.7734375 c 0
 206.819644455 405.7734375 158 371.805476607 158 342.45703125 c 0
 158 332.05068111 162.894443628 326.45703125 172 326.45703125 c 0
 190.5 326.45703125 213.5 349.45703125 282 349.45703125 c 0
 380.928581754 349.45703125 455 277.526405438 455 181.45703125 c 0
 455 75.1082726903 357.949515485 -4.31640625 228 -4.31640625 c 0
 109.576941608 -4.31640625 28 75.5365851466 28 191.45703125 c 0
EndSplineSet
EndChar

StartChar: seven
Encoding: 55 55 12
Width: 378
Flags: W
HStem: 0 54.0381<29.6273 89.2179 214.002 270.974> 386.3 96<116.001 242.997> 494.3 20G<85.5 106>
VStem: 28.7227 185.277<21.8364 101.274> 243 128<374 476.8>
LayerCount: 2
Fore
SplineSet
214 66 m 0
 214 59 217.252929688 54.0380859375 222 54.0380859375 c 0
 228 54.0380859375 231.19921875 57.470703125 242.040039062 57.470703125 c 0
 261.64453125 57.470703125 271.875976562 45.8955078125 271.875976562 29.8564453125 c 0
 271.875976562 13.81640625 263.233398438 0 229.626953125 0 c 0
 196.01953125 0 184.921875 3.609375 149.297851562 3.609375 c 0
 113.674804688 3.609375 104.607421875 0 71 0 c 0
 37.39453125 0 28.72265625 13.81640625 28.72265625 29.8564453125 c 0
 28.72265625 45.8955078125 38.982421875 57.470703125 58.5869140625 57.470703125 c 0
 69.5791015625 57.470703125 73 53.9033203125 79 53.9033203125 c 0
 83.75390625 53.9033203125 84.9160758491 57.301881805 87 66 c 0
 110 162 154.000913151 262.299072051 223 348.299804688 c 0
 235.921433789 364.405130473 243 370 243 378 c 0
 243 383 238.597848607 386.299804688 226 386.299804688 c 2
 86 386.299804688 l 2
 68.8447265625 386.299804688 74 351.299804688 44 351.299804688 c 0
 25 351.299804688 17.677734375 358.299804688 17.677734375 373.299804688 c 0
 17.677734375 383.299804688 33.685347387 410.82917579 48 449.299804688 c 0
 64 492.299804688 71 514.299804688 100 514.299804688 c 0
 112 514.299804688 118.075195312 507.579101562 118.075195312 500 c 0
 118.075195312 495.7734375 116 491 116 487 c 0
 116 484 118 482.299804688 124 482.299804688 c 2
 251 482.299804688 l 2
 293 482.299804688 318 496.299804688 340 496.299804688 c 0
 362 496.299804688 371 485.299804688 371 468.299804688 c 0
 371 428.322265625 301.475024472 372.169660445 255.234375 246.299804688 c 0
 225 164 214 136.548828125 214 66 c 0
EndSplineSet
EndChar

StartChar: eight
Encoding: 56 56 13
Width: 431
Flags: W
HStem: -4.31641 54.3164<119.552 256.431> 241 95.8369<147 250.275> 444.636 51.1377<188.013 285.367>
VStem: 12 67<88.3415 205.502> 73.2002 105.159<357.454 434.282> 284 133<81.3387 181.988> 294.641 56.1592<347.921 434.504>
LayerCount: 2
Fore
SplineSet
147 241 m 0xf4
 128 241 79 196 79 147 c 0
 79 91 128 50 190 50 c 0
 242.009765625 50 284 78 284 128 c 0
 284 209 166 241 147 241 c 0xf4
178.359375 393.715820312 m 4xea
 178.359375 356.096679688 232.224609375 336.836914062 250.275390625 336.836914062 c 4
 268.325195312 336.836914062 294.640625 364.646484375 294.640625 396.28125 c 4
 294.640625 423.641601562 271.555664062 444.635742188 238.209960938 444.635742188 c 4
 200.58984375 444.635742188 178.359375 422.786132812 178.359375 393.715820312 c 4xea
73.2001953125 388 m 0
 73.2001953125 447 126 495.7734375 228 495.7734375 c 0
 318 495.7734375 350.799804688 436 350.799804688 399 c 0xea
 350.799804688 347 314 325 314 313 c 0
 314 297 417 271 417 162 c 0
 417 67 342 -4.31640625 207 -4.31640625 c 0
 72.9997931382 -4.31640625 12 64 12 148 c 0xf4
 12 241 111 284 111 298 c 0
 111 314 73.2001953125 331 73.2001953125 388 c 0
EndSplineSet
EndChar

StartChar: nine
Encoding: 57 57 14
Width: 486
Flags: W
HStem: -4.31641 96<137.824 274.645> 171 41<239.851 309.039> 435.773 60<169.512 278.9>
VStem: 28 124<275.616 392.207> 328 127<229.585 380.998>
LayerCount: 2
Fore
SplineSet
328 290 m 0
 328 376.429628439 284.847805277 435.7734375 222 435.7734375 c 0
 177.328075635 435.7734375 152 408.356360984 152 360 c 0
 152 280.466197543 202.424429272 212 261 212 c 0
 302.695251115 212 328 241.459259896 328 290 c 0
455 300 m 0
 455 127.805125215 329.528215341 -4.31640625 166 -4.31640625 c 0
 127.241621608 -4.31640625 100 18.3849450896 100 50.68359375 c 0
 100 80.1899426975 125.412127305 100.68359375 162 100.68359375 c 0
 188 100.68359375 208 91.68359375 234 91.68359375 c 0
 276.180355545 91.68359375 325 125.651554643 325 155 c 0
 325 165.40635014 320.105556372 171 311 171 c 0
 292.5 171 269.5 148 201 148 c 0
 100.234430547 148 28 215.641489877 28 310 c 0
 28 416.34875856 125.050484515 495.7734375 255 495.7734375 c 0
 373.423058392 495.7734375 455 415.920446103 455 300 c 0
EndSplineSet
EndChar

StartChar: colon
Encoding: 58 58 15
Width: 204
Flags: W
HStem: -10 152<49.5543 154.446> 239 152<49.5543 154.446>
VStem: 26 152<13.5543 118.446 262.554 367.446>
LayerCount: 2
Fore
SplineSet
26 315 m 0
 26 357 60 391 102 391 c 0
 144 391 178 357 178 315 c 0
 178 273 144 239 102 239 c 0
 60 239 26 273 26 315 c 0
26 66 m 0
 26 108 60 142 102 142 c 0
 144 142 178 108 178 66 c 0
 178 24 144 -10 102 -10 c 0
 60 -10 26 24 26 66 c 0
EndSplineSet
Validated: 1
EndChar

StartChar: semicolon
Encoding: 59 59 16
Width: 204
Flags: W
HStem: 239 152<49.5543 154.446>
VStem: 26 152<10.0596 118.446 262.554 367.446> 64 114<-55.5 87>
LayerCount: 2
Fore
SplineSet
26 66 m 0xc0
 26 108 60 142 102 142 c 0
 144 142 178 108 178 66 c 0xc0
 178 -57 54 -161 13 -161 c 0
 1.95463898281 -161 -4 -155 -4 -146 c 0
 -4 -117 64 -83 64 -28 c 0xa0
 64 3 26 12 26 66 c 0xc0
26 315 m 0
 26 357 60 391 102 391 c 0
 144 391 178 357 178 315 c 0
 178 273 144 239 102 239 c 0
 60 239 26 273 26 315 c 0
EndSplineSet
Validated: 1
EndChar

StartChar: question
Encoding: 63 63 17
Width: 372
Flags: W
HStem: -10 152<107.554 212.446> 539 61<123.486 205.011>
VStem: 84 152<13.5543 118.446> 112 81<213.317 315.494> 217 134<419.569 529.132>
LayerCount: 2
Fore
SplineSet
164 600 m 0xd8
 274 600 351 565 351 467 c 0
 351 352 193 339 193 283 c 0
 193 254 211.737304688 256.600585938 211.737304688 223.700195312 c 0
 211.737304688 206.900390625 195.969726562 188 170 188 c 0
 130 188 112 222 112 254 c 0
 112 368 217 394 217 482 c 0
 217 513 197.940429688 539 164 539 c 0
 107 539 105 453 53 453 c 0
 21 453 7 476 7 501 c 0
 7 545 66 600 164 600 c 0xd8
84 66 m 0xe0
 84 108 118 142 160 142 c 0
 202 142 236 108 236 66 c 0
 236 24 202 -10 160 -10 c 0
 118 -10 84 24 84 66 c 0xe0
EndSplineSet
EndChar

StartChar: A
Encoding: 65 65 18
Width: 621
Flags: W
HStem: 0 57.4707<-11.3727 64.1301 136.005 213.974 359.054 419.999 555.053 624.375> 171.85 66.1504<214.183 338.764> 379 204.083<250.043 320.912> 507 65<154.709 221.18>
AnchorPoint: "Anchor-0" 277 583.083 basechar 0
LayerCount: 2
Back
SplineSet
418.317382812 72.796875 m 2
 419.563476562 69.828125 420.002929688 68.0830078125 420.002929688 65.0830078125 c 0
 420.002929688 58.0830078125 415 53.9033203125 408.401367188 53.9033203125 c 0
 402.401367188 53.9033203125 398.98046875 57.470703125 387.98828125 57.470703125 c 0
 368.383789062 57.470703125 358.124023438 45.8955078125 358.124023438 29.8564453125 c 0
 358.124023438 13.81640625 367.795898438 0 401.401367188 0 c 0
 435.008789062 0 456.076171875 2.609375 496.69921875 2.609375 c 4
 537.323242188 2.609375 549.420898438 0 583.028320312 0 c 0
 616.634765625 0 625.27734375 13.81640625 625.27734375 29.8564453125 c 0
 625.27734375 45.8955078125 615.045898438 57.470703125 595.44140625 57.470703125 c 0
 584.600585938 57.470703125 581.401367188 54.0380859375 575.401367188 54.0380859375 c 0
 567 54.0380859375 562.377929688 61.0849609375 551 88.0830078125 c 2
 382 489.083007812 l 2
 354.665039062 553.942382812 346.014648438 583.083007812 313 583.083007812 c 0
 277 583.083007812 269.413085938 549.478515625 244 490.083007812 c 1
 117 128.083007812 l 2
 102.016601562 85.375 99 74.0830078125 97 65.0830078125 c 0
 95.2646484375 57.2734375 91.75390625 53.9033203125 82 53.9033203125 c 0
 71 53.9033203125 66.5791015625 57.470703125 55.5869140625 57.470703125 c 0
 35.982421875 57.470703125 25.72265625 45.8955078125 25.72265625 29.8564453125 c 0
 25.72265625 13.81640625 34.39453125 0 68 0 c 0
 101.607421875 0 122.674804688 1.609375 134 1.609375 c 0
 146 1.609375 155.01953125 0 188.626953125 0 c 0
 222.233398438 0 230.875976562 13.81640625 230.875976562 29.8564453125 c 0
 230.875976562 45.8955078125 220.64453125 57.470703125 201.040039062 57.470703125 c 0
 190.19921875 57.470703125 185 54.0380859375 179 54.0380859375 c 0
 173 54.0380859375 169 56.0830078125 169 63.0830078125 c 0
 169 79.3623046875 176.623046875 101.907226562 191 145.083007812 c 2
 242.948242188 301.083007812 l 2
 256.047851562 340.421875 268 350.083007812 282 350.083007812 c 0
 295 350.083007812 307.848632812 336.009765625 322.926757812 300.083007812 c 2
 418.317382812 72.796875 l 2
EndSplineSet
Fore
SplineSet
136 63 m 0xe0
 136 57.9169921875 143 54.0380859375 153 54.0380859375 c 0
 162 54.0380859375 174.19921875 57.470703125 185.040039062 57.470703125 c 0
 204.64453125 57.470703125 214.875976562 45.8955078125 214.875976562 29.8564453125 c 0
 214.875976562 13.81640625 206.233398438 0 172.626953125 0 c 0
 139.01953125 0 114 3.609375 102 3.609375 c 0
 90.6748046875 3.609375 63.607421875 0 30 0 c 0
 -3.60546875 0 -12.27734375 13.81640625 -12.27734375 29.8564453125 c 0
 -12.27734375 45.8955078125 -2.017578125 57.470703125 17.5869140625 57.470703125 c 0
 28.5791015625 57.470703125 33 53.9033203125 44 53.9033203125 c 0
 53.75390625 53.9033203125 56.0278461672 58.9886887228 67 86 c 2
 209.172061925 435.999998005 l 2
 218.583518996 459.169177038 222 477.688296609 222 486 c 0
 222 500 207.607421875 507 188 507 c 0
 168.392578125 507 153 518 153 540 c 0
 153 571 172 572 215 572 c 0xd0
 241 572 272 583.083007812 297 583.083007812 c 0
 343 583.083007812 352.241217264 551.994317375 368.592773438 513.829101562 c 2
 551 88.0830078125 l 2
 562.664977602 60.8564623445 567 54.0380859375 575.401367188 54.0380859375 c 0
 581.401367188 54.0380859375 584.600585938 57.470703125 595.44140625 57.470703125 c 0
 615.045898438 57.470703125 625.27734375 45.8955078125 625.27734375 29.8564453125 c 0
 625.27734375 13.81640625 616.634765625 0 583.028320312 0 c 0
 549.420898438 0 537.323242188 3.609375 496.69921875 3.609375 c 0
 456.076171875 3.609375 435.008789062 0 401.401367188 0 c 0
 367.795898438 0 358.124023438 13.81640625 358.124023438 29.8564453125 c 0
 358.124023438 45.8955078125 368.383789062 57.470703125 387.98828125 57.470703125 c 0
 398.98046875 57.470703125 402.401367188 53.9033203125 408.401367188 53.9033203125 c 0
 415 53.9033203125 420.002929688 58.0830078125 420.002929688 65.0830078125 c 0
 420.002929688 68.0830078125 419.567768351 69.8622987423 418.317382812 72.796875 c 2
 393.958007812 129.966796875 l 2
 381.42656799 159.387620112 373 171.849609375 341 171.849609375 c 2
 211 171.849609375 l 2
 178 171.849609375 172.282214229 169.329448222 159.907226562 133.646484375 c 2
 142 82 l 2
 138.220686913 71.1000298904 136 68.0830078125 136 63 c 0xe0
274 379 m 0xe0
 252 379 214 293 214 263 c 0
 214 248 224 238 243 238 c 2
 313 238 l 2
 330 238 339 247 339 264 c 0
 339 288 296 379 274 379 c 0xe0
EndSplineSet
EndChar

StartChar: B
Encoding: 66 66 19
Width: 579
Flags: W
HStem: 0 54.083<38.649 77.4492 222.446 364.88> 319 48<223.861 318.076> 529 54.083<37.649 77.4492> 536 47.083<214.776 322.932>
VStem: 77.4492 136.551<59.419 309.598 371.93 528.627> 346 140<412.853 512.841> 406 158<97.0654 258.17>
LayerCount: 2
Back
Fore
SplineSet
57 583.083007812 m 2xea
 322 583.083007812 l 2
 430.692382812 583.07421875 486 534 486 470 c 0xdc
 486 393 408 390 408 364 c 0
 408 338 564 324 564 179 c 0
 564 71.4706638835 470.044921875 0 334 0 c 2
 58 0 l 2
 28 0 10 10.0830078125 10 33.0830078125 c 0
 10 53.943359375 26 61.4287109375 38 61.4287109375 c 0
 52 61.4287109375 56 54.0830078125 66 54.0830078125 c 0
 74 54.0830078125 77.44921875 60 77.44921875 72 c 2
 77.44921875 509.8203125 l 2
 77.44921875 521.547851562 73 529 65 529 c 0
 55 529 51 521.654296875 37 521.654296875 c 0
 25 521.654296875 9 529.139648438 9 550 c 0
 9 573 26.9999984888 583.083007812 57 583.083007812 c 2xea
211 484 m 2
 211 424 l 2
 211 385.498344353 226.902085496 367 260 367 c 0
 309.734606873 367 346 398.858398438 346 453 c 0
 346 507.420898438 312.486424847 536 262 536 c 0
 222.020778156 536 211 524.763128155 211 484 c 2
214 249 m 2
 214 125 l 2
 214 69.1337890625 230.173828125 49 280 49 c 0
 360.983398438 49 406 94.3036749951 406 183 c 0xca
 406 259.141966642 348.782762232 319 276 319 c 0
 230.60497985 319 214 300.252442105 214 249 c 2
EndSplineSet
EndChar

StartChar: C
Encoding: 67 67 20
Width: 556
Flags: W
HStem: -10 56<275.42 402.208> 390 21G<480.5 499.5> 531 59<269.883 411.638>
VStem: 15 169<171.891 411.778>
LayerCount: 2
Fore
SplineSet
329 590 m 0
 379 590 405 568 416 568 c 0
 429 568 433 583.083007812 452 583.083007812 c 0
 471.188310083 583.083007812 480.50390625 558.372070312 491.111328125 526 c 0
 502.064453125 492.577148438 518 450.987304688 518 420 c 4
 518 404.475585938 509 390 490 390 c 4
 471 390 465.185546875 403.326171875 455 438 c 4
 434.364257812 508.250976562 392 531 343 531 c 0
 273 531 184 479.48046875 184 289.48046875 c 0
 184 99.48046875 284 46 338 46 c 0
 430 46 428 129.357421875 481.3828125 129.357421875 c 0
 500.266601562 129.357421875 514 114.697265625 514 94 c 0
 514 49 436 -10 324 -10 c 0
 202 -10 15 70 15 289.48046875 c 0
 15 518.73046875 198 590 329 590 c 0
EndSplineSet
EndChar

StartChar: D
Encoding: 68 68 21
Width: 646
Flags: W
HStem: 0 54.083<38.649 77.4492 231.844 368.13> 529 54.083<37.649 77.4492 231.372 364.752>
VStem: 77.4492 144.551<62.8825 519.675> 456 164<182.009 410.987>
LayerCount: 2
Fore
SplineSet
58 0 m 6
 28 0 10 10.0830078125 10 33.0830078125 c 4
 10 53.943359375 26 61.4287109375 38 61.4287109375 c 4
 52 61.4287109375 56 54.0830078125 66 54.0830078125 c 4
 74 54.0830078125 77.44921875 60 77.44921875 72 c 6
 77.44921875 509.8203125 l 2
 77.44921875 521.547851562 73 529 65 529 c 0
 55 529 51 521.654296875 37 521.654296875 c 0
 25 521.654296875 9 529.139648438 9 550 c 0
 9 573 27 583.092773438 57 583.083007812 c 2
 327 582.999023438 l 2
 491 582.948242188 620 477.598632812 620 292.798828125 c 0
 620 107.999023438 472 0 318 0 c 6
 58 0 l 6
222 113.999023438 m 2
 222 56.9990234375 264.11328125 48.9990234375 299 48.9990234375 c 0
 369 48.9990234375 456 123.598632812 456 301.69921875 c 0
 456 479.798828125 356 530.999023438 286 530.999023438 c 0
 251.11328125 530.999023438 222 516.014648438 222 471.999023438 c 2
 222 113.999023438 l 2
EndSplineSet
EndChar

StartChar: E
Encoding: 69 69 22
Width: 500
Flags: W
HStem: 0 51<7.62726 65 213.643 342.02> 307 53<210.781 306.744> 529 54.083<27.6468 64.8268 210.626 327.699> 579.083 20G<357.5 388.5>
VStem: 65 143<56.2385 304.521 360.082 528.872>
AnchorPoint: "Anchor-0" 237 583.083 basechar 0
LayerCount: 2
Fore
SplineSet
65 66 m 2xd8
 65 499 l 2
 65 518 63 529 52 529 c 0
 42 529 41 521.654296875 27 521.654296875 c 0
 15 521.654296875 3 529.139648438 3 550 c 0
 3 573 19.498046875 583.083007812 44 583.083007812 c 2
 278 583.083007812 l 2xe8
 334 583.083007812 344 599.083007812 371 599.083007812 c 0
 406 599.083007812 403.54296875 556.73828125 426 518 c 0
 439.181277125 495.262354279 443.930353822 482.299987793 443.930353822 467 c 0
 443.930353822 451.700012207 432 438 412 438 c 0
 377 438 363.492343466 464.149494103 337 497 c 0
 312 528 292 531 253 531 c 0
 214 531 210 520 210 494 c 2
 210 382 l 2
 210 367 221 360 232 360 c 2
 265 360 l 2
 306 360 297 393 338 393 c 0
 365 393 370.541992188 352.73828125 393 314 c 0
 406.181640625 291.262695312 410.930664062 278.299804688 410.930664062 263 c 0
 410.930664062 247.700195312 399 234 379 234 c 0
 351 234 340.553710938 250.19921875 314 283 c 0
 297 304 279 307 251 307 c 0
 223 307 208 300 208 262 c 2
 208 102 l 2
 208 72 220 51 255 51 c 0
 318 51 341.53051416 69.0655019183 364 91 c 0
 406 132 410 166 456 166 c 0
 474 166 486 151 486 130 c 0
 486 109 470 97 454 62 c 0
 438 27 441 -22 396 -22 c 0
 355 -22 358.083984375 0 307 0 c 2
 128 0 l 0
 100.987304688 0 82.607421875 0 49 0 c 0
 15.39453125 0 6.72265625 13.81640625 6.72265625 29.8564453125 c 0
 6.72265625 45.8955078125 16.982421875 57.470703125 36.5869140625 57.470703125 c 0
 47.5791015625 57.470703125 51 53.9033203125 57 53.9033203125 c 0
 61.75390625 53.9033203125 65 57 65 66 c 2xd8
EndSplineSet
EndChar

StartChar: F
Encoding: 70 70 23
Width: 467
Flags: W
HStem: 0 53.9033<7.62726 65 208 264.974> 287 53<210.109 304.881> 529 54.083<27.6468 64.8268 210.626 327.699> 579.083 20G<357.5 388.5>
VStem: 65 143<54.0529 284.805 340 528.872>
LayerCount: 2
Fore
SplineSet
65 499 m 2xd8
 65 518 63 529 52 529 c 0
 42 529 41 521.654296875 27 521.654296875 c 0
 15 521.654296875 3 529.139648438 3 550 c 0
 3 573 19.498046875 583.083007812 44 583.083007812 c 2
 278 583.083007812 l 2xe8
 334 583.083007812 344 599.083007812 371 599.083007812 c 4
 406 599.083007812 403.54296875 556.73828125 426 518 c 0
 439.181277125 495.262354279 443.930353822 482.299987793 443.930353822 467 c 0
 443.930353822 451.700012207 432 438 412 438 c 0
 377 438 363.492343466 464.149494103 337 497 c 0
 312 528 292 531 253 531 c 0
 214 531 210 520 210 494 c 2
 210 362 l 2
 210 347.572265625 219.34765625 340 230 340 c 2
 263 340 l 2
 304 340 295 373 336 373 c 0
 363 373 368.541992188 332.73828125 391 294 c 0
 404.181640625 271.262695312 408.930664062 258.299804688 408.930664062 243 c 0
 408.930664062 227.700195312 397 214 377 214 c 0
 349 214 338.553710938 230.19921875 312 263 c 0
 295 284 282 287 253 287 c 0
 218 287 208 280 208 242 c 2
 208 65.71484375 l 2
 208 59 211.252929688 54.0380859375 216 54.0380859375 c 0
 222 54.0380859375 225.19921875 57.470703125 236.040039062 57.470703125 c 0
 255.64453125 57.470703125 265.875976562 45.8955078125 265.875976562 29.8564453125 c 0
 265.875976562 13.81640625 257.233398438 0 223.626953125 0 c 0
 190.01953125 0 176.921875 3.609375 136.297851562 3.609375 c 0
 95.6748046875 3.609375 82.607421875 0 49 0 c 0
 15.39453125 0 6.72265625 13.81640625 6.72265625 29.8564453125 c 0
 6.72265625 45.8955078125 16.982421875 57.470703125 36.5869140625 57.470703125 c 0
 47.5791015625 57.470703125 51 53.9033203125 57 53.9033203125 c 0
 61.75390625 53.9033203125 65 57 65 65.474609375 c 2
 65 499 l 2xd8
EndSplineSet
EndChar

StartChar: G
Encoding: 71 71 24
Width: 636
Flags: W
HStem: -10 56<260.906 379.979> -7 67<490.404 588.691> 271.571 54.0381<335.324 410.891 534.746 600.671> 390 21G<480.5 499.5> 531 59<269.883 411.638>
VStem: 15 169<167.134 411.778> 412 122<78.0955 271.556>
LayerCount: 2
Fore
SplineSet
455 438 m 0xbe
 434.364257812 508.250976562 392 531 343 531 c 0
 273 531 184 479.48046875 184 289.48046875 c 0
 184 99.48046875 265 46 319 46 c 0xbe
 370.42578125 46 412 83 412 140 c 2
 412 260 l 2
 412 270 404.044921875 271.571289062 399.297851562 271.571289062 c 0
 393.297851562 271.571289062 375.098632812 268.138671875 364.2578125 268.138671875 c 0
 344.653320312 268.138671875 334.421875 279.713867188 334.421875 295.752929688 c 0
 334.421875 311.79296875 343.064453125 325.609375 376.670898438 325.609375 c 0
 410.278320312 325.609375 431.375976562 317 472 317 c 0
 512.623046875 317 525.690429688 325.609375 559.297851562 325.609375 c 0
 592.903320312 325.609375 601.575195312 311.79296875 601.575195312 295.752929688 c 0
 601.575195312 279.713867188 591.315429688 268.138671875 571.7109375 268.138671875 c 0
 560.71875 268.138671875 547.297851562 271.706054688 541.297851562 271.706054688 c 0
 536.543945312 271.706054688 534 270 534 260 c 2
 534 100 l 2
 534 75 536 60 555 60 c 0
 578 60 571 83 598 83 c 0
 612.807617188 83 626.555664062 72 626.555664062 50 c 0
 626.555664062 25.033203125 599.47265625 -7 536 -7 c 0x7e
 446 -7 439 35.7998046875 422.87890625 35.7998046875 c 0
 404 35.7998046875 394 -10 284 -10 c 0
 162 -10 15 79.99953125 15 289.48046875 c 0
 15 518.73046875 198 590 329 590 c 0
 379 590 405 568 416 568 c 0
 429 568 433 583.083007812 452 583.083007812 c 0
 471.188476562 583.083007812 480.50390625 558.372070312 491.111328125 526 c 0
 502.064453125 492.577148438 518 450.987304688 518 420 c 0
 518 404.475585938 509 390 490 390 c 0
 471 390 465.185546875 403.326171875 455 438 c 0xbe
EndSplineSet
EndChar

StartChar: H
Encoding: 72 72 25
Width: 658
Flags: W
HStem: 0 57.4707<7.62726 65 207.599 264.974 384.627 441.599 585 641.974> 285 57<208.03 441.15> 529.045 54.0381<7.62504 65 208 264.971 384.625 442 585 641.971>
VStem: 65 142.599<54.0439 284.609 342.203 529.035> 441.599 143.401<54.0482 284.638 342.714 529.035>
LayerCount: 2
Fore
SplineSet
65 66 m 2
 65 517 l 2
 65 527 61.345703125 529.044921875 56.5986328125 529.044921875 c 0
 50.5986328125 529.044921875 47.3994140625 525.612304688 36.55859375 525.612304688 c 0
 16.9541015625 525.612304688 6.72265625 537.1875 6.72265625 553.2265625 c 0
 6.72265625 569.266601562 15.365234375 583.083007812 48.9716796875 583.083007812 c 0
 82.5791015625 583.083007812 95.6767578125 579.473632812 136.30078125 579.473632812 c 4
 176.923828125 579.473632812 189.991210938 583.083007812 223.598632812 583.083007812 c 0
 257.204101562 583.083007812 265.875976562 569.266601562 265.875976562 553.2265625 c 0
 265.875976562 537.1875 255.616210938 525.612304688 236.01171875 525.612304688 c 0
 225.01953125 525.612304688 221.598632812 529.1796875 215.598632812 529.1796875 c 0
 210.844726562 529.1796875 208 527 208 517 c 2
 208 362 l 2
 208 346 210.909179688 342 238 342 c 2
 411 342 l 2
 430.161132812 342 442 350 442 367 c 2
 442 517 l 2
 442 527 438.345703125 529.044921875 433.598632812 529.044921875 c 0
 427.598632812 529.044921875 424.399414062 525.612304688 413.55859375 525.612304688 c 0
 393.954101562 525.612304688 383.72265625 537.1875 383.72265625 553.2265625 c 0
 383.72265625 569.266601562 392.365234375 583.083007812 425.971679688 583.083007812 c 0
 459.579101562 583.083007812 472.676757812 579.473632812 513.30078125 579.473632812 c 4
 553.923828125 579.473632812 566.991210938 583.083007812 600.598632812 583.083007812 c 0
 634.204101562 583.083007812 642.875976562 569.266601562 642.875976562 553.2265625 c 0
 642.875976562 537.1875 632.616210938 525.612304688 613.01171875 525.612304688 c 0
 602.01953125 525.612304688 598.598632812 529.1796875 592.598632812 529.1796875 c 0
 587.844726562 529.1796875 585 527 585 517 c 2
 585 66 l 2
 585 56 588.252929688 54.0380859375 593 54.0380859375 c 0
 599 54.0380859375 602.19921875 57.470703125 613.040039062 57.470703125 c 0
 632.64453125 57.470703125 642.875976562 45.8955078125 642.875976562 29.8564453125 c 0
 642.875976562 13.81640625 634.233398438 0 600.626953125 0 c 0
 567.01953125 0 553.921875 3.609375 513.297851562 3.609375 c 0
 472.674804688 3.609375 459.607421875 0 426 0 c 0
 392.39453125 0 383.72265625 13.81640625 383.72265625 29.8564453125 c 0
 383.72265625 45.8955078125 393.982421875 57.470703125 413.586914062 57.470703125 c 0
 424.579101562 57.470703125 428 53.9033203125 434 53.9033203125 c 0
 438.75390625 53.9033203125 441.598632812 56.08 441.598632812 66.080078125 c 1
 441.598632812 255 l 2
 441.598632812 281 432.665039062 285 410.598632812 285 c 2
 235.598632812 285 l 2
 212.84765625 285 207.598632812 273.997070312 207.598632812 255 c 2
 207.598632812 66.080078125 l 2
 207.598632812 56.0771484375 211.252929688 54.0380859375 216 54.0380859375 c 0
 222 54.0380859375 225.19921875 57.470703125 236.040039062 57.470703125 c 0
 255.64453125 57.470703125 265.875976562 45.8955078125 265.875976562 29.8564453125 c 0
 265.875976562 13.81640625 257.233398438 0 223.626953125 0 c 0
 190.01953125 0 176.921875 3.609375 136.297851562 3.609375 c 0
 95.6748046875 3.609375 82.607421875 0 49 0 c 0
 15.39453125 0 6.72265625 13.81640625 6.72265625 29.8564453125 c 0
 6.72265625 45.8955078125 16.982421875 57.470703125 36.5869140625 57.470703125 c 0
 47.5791015625 57.470703125 51 53.9033203125 57 53.9033203125 c 0
 61.75390625 53.9033203125 65 56 65 66 c 2
EndSplineSet
EndChar

StartChar: I
Encoding: 73 73 26
Width: 274
Flags: W
HStem: 0 53.9033<7.62726 65 208 264.974> 529.045 54.0381<7.62504 65 208 264.971>
VStem: 65 143<54.0529 529.035>
AnchorPoint: "Anchor-0" 136 583.083 basechar 0
LayerCount: 2
Back
SplineSet
36.5869140625 57.470703125 m 0
 56.19140625 57.470703125 63.306640625 40.986328125 78.900390625 40.986328125 c 0
 94.4951171875 40.986328125 115.754882812 41.8896484375 136.298828125 41.8896484375 c 0
 156.84375 41.8896484375 178.104492188 40.986328125 193.69921875 40.986328125 c 0
 209.29296875 40.986328125 216.435546875 57.470703125 236.040039062 57.470703125 c 0
 255.64453125 57.470703125 265.875976562 45.8955078125 265.875976562 29.8564453125 c 0
 265.875976562 13.81640625 257.233398438 0 223.626953125 0 c 0
 190.01953125 0 176.921875 3.609375 136.297851562 3.609375 c 4
 95.6748046875 3.609375 82.607421875 0 49 0 c 0
 15.39453125 0 6.72265625 13.81640625 6.72265625 29.8564453125 c 0
 6.72265625 45.8955078125 16.982421875 57.470703125 36.5869140625 57.470703125 c 0
EndSplineSet
Fore
SplineSet
208 517 m 2
 208 65.71484375 l 2
 208 59 211.252929688 54.0380859375 216 54.0380859375 c 0
 222 54.0380859375 225.19921875 57.470703125 236.040039062 57.470703125 c 0
 255.64453125 57.470703125 265.875976562 45.8955078125 265.875976562 29.8564453125 c 0
 265.875976562 13.81640625 257.233398438 0 223.626953125 0 c 0
 190.01953125 0 176.921875 3.609375 136.297851562 3.609375 c 0
 95.6748046875 3.609375 82.607421875 0 49 0 c 0
 15.39453125 0 6.72265625 13.81640625 6.72265625 29.8564453125 c 0
 6.72265625 45.8955078125 16.982421875 57.470703125 36.5869140625 57.470703125 c 0
 47.5791015625 57.470703125 51 53.9033203125 57 53.9033203125 c 0
 61.75390625 53.9033203125 65 57 65 65.474609375 c 2
 65 517 l 2
 65 527 61.345703125 529.044921875 56.5986328125 529.044921875 c 0
 50.5986328125 529.044921875 47.3994140625 525.612304688 36.55859375 525.612304688 c 0
 16.9541015625 525.612304688 6.72265625 537.1875 6.72265625 553.2265625 c 0
 6.72265625 569.266601562 15.365234375 583.083007812 48.9716796875 583.083007812 c 0
 82.5791015625 583.083007812 95.6767578125 579.473632812 136.30078125 579.473632812 c 0
 176.923828125 579.473632812 189.991210938 583.083007812 223.598632812 583.083007812 c 0
 257.204101562 583.083007812 265.875976562 569.266601562 265.875976562 553.2265625 c 0
 265.875976562 537.1875 255.616210938 525.612304688 236.01171875 525.612304688 c 0
 225.01953125 525.612304688 221.598632812 529.1796875 215.598632812 529.1796875 c 0
 210.844726562 529.1796875 208 527 208 517 c 2
EndSplineSet
EndChar

StartChar: J
Encoding: 74 74 27
Width: 274
Flags: W
HStem: -146 61.8496<-19.2606 49.6479> 529.045 54.0381<7.90238 65 208.277 265.249>
VStem: 65 143.277<-4.25 529.035>
LayerCount: 2
Fore
SplineSet
208.27734375 517 m 2
 208.27734375 82 l 2
 208 -38 83.75 -146 -4 -146 c 0
 -45.849609375 -146 -85 -130 -85 -93.849609375 c 0
 -85 -69.62109375 -67 -56.599609375 -42 -56.599609375 c 0
 -10.94921875 -56.599609375 -1.2998046875 -84.150390625 24.349609375 -84.150390625 c 0
 47.2734375 -84.150390625 65 -49 65 20 c 2
 65 517 l 2
 65 527 61.623046875 529.044921875 56.8759765625 529.044921875 c 0
 50.8759765625 529.044921875 47.6767578125 525.612304688 36.8359375 525.612304688 c 0
 17.2314453125 525.612304688 7 537.1875 7 553.2265625 c 0
 7 569.266601562 15.642578125 583.083007812 49.2490234375 583.083007812 c 0
 82.8564453125 583.083007812 95.9541015625 579.473632812 136.578125 579.473632812 c 4
 177.201171875 579.473632812 190.268554688 583.083007812 223.875976562 583.083007812 c 0
 257.481445312 583.083007812 266.153320312 569.266601562 266.153320312 553.2265625 c 0
 266.153320312 537.1875 255.893554688 525.612304688 236.2890625 525.612304688 c 0
 225.296875 525.612304688 221.875976562 529.1796875 215.875976562 529.1796875 c 0
 211.122070312 529.1796875 208.27734375 527 208.27734375 517 c 2
EndSplineSet
EndChar

StartChar: K
Encoding: 75 75 28
Width: 614
Flags: W
HStem: 0 57.4707<7.62726 65 208 264.974 331.627 387.999 531.87 598.974> 329 36<212.308 259.39> 487 103.184<427.51 531.967> 529.045 54.0381<7.62504 64.999 208 264.971>
VStem: 65 143<54.0529 327.087 365.004 529.035>
LayerCount: 2
Fore
SplineSet
386 65.474609375 m 2xe8
 298.172851562 270.822265625 l 2
 278.762253273 316.205964585 265 329 242 329 c 0
 219 329 208 313 208 289 c 2
 208 65.71484375 l 2
 208 59 211.252929688 54.0380859375 216 54.0380859375 c 0
 222 54.0380859375 225.19921875 57.470703125 236.040039062 57.470703125 c 0
 255.64453125 57.470703125 265.875976562 45.8955078125 265.875976562 29.8564453125 c 0
 265.875976562 13.81640625 257.233398438 0 223.626953125 0 c 0
 190.01953125 0 176.921875 3.609375 136.297851562 3.609375 c 0
 95.6748046875 3.609375 82.607421875 0 49 0 c 0
 15.39453125 0 6.72265625 13.81640625 6.72265625 29.8564453125 c 0
 6.72265625 45.8955078125 16.982421875 57.470703125 36.5869140625 57.470703125 c 0
 47.5791015625 57.470703125 51 53.9033203125 57 53.9033203125 c 0
 61.75390625 53.9033203125 65.0000183289 57 65 65.474609375 c 2
 64.9990234375 517 l 2
 64.9990234375 527 61.345703125 529.044921875 56.5986328125 529.044921875 c 0
 50.5986328125 529.044921875 47.3994140625 525.612304688 36.55859375 525.612304688 c 0
 16.9541015625 525.612304688 6.72265625 537.1875 6.72265625 553.2265625 c 0
 6.72265625 569.266601562 15.365234375 583.083007812 48.9716796875 583.083007812 c 0
 82.5791015625 583.083007812 95.6767578125 579.473632812 136.30078125 579.473632812 c 0
 176.923828125 579.473632812 189.991210938 583.083007812 223.598632812 583.083007812 c 0xd8
 257.204101562 583.083007812 265.875976562 569.266601562 265.875976562 553.2265625 c 0
 265.875976562 537.1875 255.616210938 525.612304688 236.01171875 525.612304688 c 0
 225.01953125 525.612304688 221.598632812 529.1796875 215.598632812 529.1796875 c 0
 210.844726562 529.1796875 208.000073426 527.000000007 208 517 c 2
 207.999023438 384 l 2
 207.998920642 370.000029378 218.55078125 365 228 365 c 0
 240.16796875 365 249.8613906 370.815558719 257.396484375 379.69140625 c 2
 385 530 l 2
 427.524595356 580.091191425 466.000976562 590.18359375 506 590.18359375 c 0
 545 590.18359375 575.999023438 564 575.999023438 520 c 0
 575.999023438 490 553 463 514 463 c 0
 475 463 465 487 440 487 c 0
 412 487 390 463 390 434 c 0
 390 425.97265625 393.90420322 407.651232124 399.999023438 393 c 2
 536.124023438 65.771484375 l 2
 539.806853233 56.9183939991 544 54.0380859375 549 54.0380859375 c 0
 556 54.0380859375 559.19921875 57.470703125 570.040039062 57.470703125 c 0
 589.64453125 57.470703125 599.875976562 45.8955078125 599.875976562 29.8564453125 c 0
 599.875976562 13.81640625 591.233398438 0 557.626953125 0 c 0
 524.01953125 0 506.921875 3.609375 466.297851562 3.609375 c 0
 425.674804688 3.609375 406.607421875 0 373 0 c 0
 339.39453125 0 330.72265625 13.81640625 330.72265625 29.8564453125 c 0
 330.72265625 45.8955078125 340.982421875 57.470703125 360.586914062 57.470703125 c 0
 371.579101562 57.470703125 375 53.9033203125 381 53.9033203125 c 0
 386 53.9033203125 388 56 388 59 c 0
 388 61 387.160340362 62.7616307806 386 65.474609375 c 2xe8
EndSplineSet
EndChar

StartChar: L
Encoding: 76 76 29
Width: 500
Flags: W
HStem: 0 51<7.62726 65 213.643 342.02> 529.045 54.0381<7.62504 65 208 264.971>
VStem: 65 143<56.2385 529.035>
LayerCount: 2
Fore
SplineSet
128 0 m 0
 100.987304688 0 82.607421875 0 49 0 c 0
 15.39453125 0 6.72265625 13.81640625 6.72265625 29.8564453125 c 0
 6.72265625 45.8955078125 16.982421875 57.470703125 36.5869140625 57.470703125 c 0
 47.5791015625 57.470703125 51 53.9033203125 57 53.9033203125 c 0
 61.75390625 53.9033203125 65 57 65 66 c 2
 65 517 l 2
 65 527 61.345703125 529.044921875 56.5986328125 529.044921875 c 0
 50.5986328125 529.044921875 47.3994140625 525.612304688 36.55859375 525.612304688 c 0
 16.9541015625 525.612304688 6.72265625 537.1875 6.72265625 553.2265625 c 0
 6.72265625 569.266601562 15.365234375 583.083007812 48.9716796875 583.083007812 c 0
 82.5791015625 583.083007812 95.6767578125 579.473632812 136.30078125 579.473632812 c 0
 176.923828125 579.473632812 189.991210938 583.083007812 223.598632812 583.083007812 c 0
 257.204101562 583.083007812 265.875976562 569.266601562 265.875976562 553.2265625 c 0
 265.875976562 537.1875 255.616210938 525.612304688 236.01171875 525.612304688 c 0
 225.01953125 525.612304688 221.598632812 529.1796875 215.598632812 529.1796875 c 0
 210.844726562 529.1796875 208 527 208 517 c 2
 208 102 l 2
 208 72 220 51 255 51 c 0
 318 51 341.53051416 69.0655019183 364 91 c 0
 406 132 410 166 456 166 c 0
 474 166 486 151 486 130 c 0
 486 109 470 97 454 62 c 0
 438 27 441 -20.31640625 396 -20.31640625 c 4
 355 -20.31640625 358.083984375 -6.25577718442e-15 307 0 c 2
 128 0 l 0
EndSplineSet
EndChar

StartChar: M
Encoding: 77 77 30
Width: 696
Flags: W
HStem: 0 57.4707<7.62726 65 131 187.974 425.627 483 626 682.974> 529.045 54.0381<7.62504 65 626 682.971>
VStem: 65 66<54.0529 403.994> 483 143<54.0755 407.994>
LayerCount: 2
Fore
SplineSet
112 582 m 0
 130 582 139 583 157 583 c 0
 176 583 181.526622928 571.519244824 201 546.000976562 c 2
 201.00020203 546.000815861 307.896484375 405.921875 307.896484375 405.921875 c 2
 326.1015625 384.083984375 333 378.000976562 344 378.000976562 c 0
 355 378.000976562 365.377929688 384.26171875 381 407.000976562 c 2
 492.3203125 557.387695312 l 2
 504.497070312 572.885742188 510 582.000976562 530 582.000976562 c 0
 550 582.000976562 556 582.000976562 581 582.000976562 c 0
 604 582.000976562 607.991210938 583.083007812 641.598632812 583.083007812 c 0
 675.204101562 583.083007812 683.875976562 569.266601562 683.875976562 553.2265625 c 0
 683.875976562 537.1875 673.616210938 525.612304688 654.01171875 525.612304688 c 0
 643.01953125 525.612304688 639.598632812 529.1796875 633.598632812 529.1796875 c 0
 628.844726562 529.1796875 626 527 626 517 c 2
 626 66.0009765625 l 2
 626 59 629.252929688 54.0380859375 634 54.0380859375 c 0
 640 54.0380859375 643.19921875 57.470703125 654.040039062 57.470703125 c 0
 673.64453125 57.470703125 683.875976562 45.8955078125 683.875976562 29.8564453125 c 0
 683.875976562 13.81640625 675.233398438 0 641.626953125 0 c 0
 608.01953125 0 594.921875 3.609375 554.297851562 3.609375 c 0
 513.674804688 3.609375 500.607421875 0 467 0 c 0
 433.39453125 0 424.72265625 13.81640625 424.72265625 29.8564453125 c 0
 424.72265625 45.8955078125 434.982421875 57.470703125 454.586914062 57.470703125 c 0
 465.579101562 57.470703125 469 53.9033203125 475 53.9033203125 c 0
 479.75390625 53.9033203125 483 57.525390625 483 66 c 2
 483 384.000976562 l 2
 483 400 477 408 467 408 c 0
 457 408 448.761416544 397.436669634 444 391.000976562 c 2
 330.873046875 238.094726562 l 2
 325.11745375 230.3152705 316 225 306 225 c 0
 296.735351562 225 288.595687625 229.665027308 280 241 c 2
 189 361 l 2
 171.836004668 383.633839998 162 404 148 404 c 0
 138 404 131 396 131 383 c 2
 131 66 l 2
 131 59.2599376386 134.252929688 54.0380859375 139 54.0380859375 c 0
 145 54.0380859375 148.19921875 57.470703125 159.040039062 57.470703125 c 0
 178.64453125 57.470703125 188.875976562 45.8955078125 188.875976562 29.8564453125 c 0
 188.875976562 13.81640625 180.233398438 0 146.626953125 0 c 0
 113.01953125 0 111 1.609375 99 1.609375 c 4
 87.6748046875 1.609375 82.607421875 0 49 0 c 0
 15.39453125 0 6.72265625 13.81640625 6.72265625 29.8564453125 c 0
 6.72265625 45.8955078125 16.982421875 57.470703125 36.5869140625 57.470703125 c 0
 47.5791015625 57.470703125 51 53.9033203125 57 53.9033203125 c 0
 61.75390625 53.9033203125 65 57 65 65.474609375 c 2
 65 517 l 2
 65 527 61.345703125 529.044921875 56.5986328125 529.044921875 c 0
 50.5986328125 529.044921875 47.3994140625 525.612304688 36.55859375 525.612304688 c 0
 16.9541015625 525.612304688 6.72265625 537.1875 6.72265625 553.2265625 c 0
 6.72265625 569.266601562 15.365234375 583.083007812 48.9716796875 583.083007812 c 0
 82.5791015625 583.083007812 91 582 112 582 c 0
EndSplineSet
EndChar

StartChar: N
Encoding: 78 78 31
Width: 684
Flags: W
HStem: 0 57.4707<50.6273 115 181 244.974> 529.045 54.0381<74.649 114.827 449.026 521 587 655.373>
VStem: 115 66<54.0664 335.996> 521 66<273.01 529.027>
AnchorPoint: "Anchor-0" 338 583.083 basechar 0
LayerCount: 2
Fore
SplineSet
587 518 m 2
 587 44 l 2
 587 6 569.193359375 0 558.193359375 0 c 0
 544 0 533.90625 4.8212890625 521.193359375 17.3759765625 c 2
 239 301 l 2
 222.919921875 316.879882812 212 336 198 336 c 0
 184 336 181 330 181 292 c 2
 181 65 l 2
 181 58 187.252929688 54.0380859375 192 54.0380859375 c 0
 198 54.0380859375 205.19921875 57.470703125 216.040039062 57.470703125 c 0
 235.64453125 57.470703125 245.875976562 45.8955078125 245.875976562 29.8564453125 c 0
 245.875976562 13.81640625 237.233398438 0 203.626953125 0 c 0
 170.01953125 0 161 1.609375 149 1.609375 c 0
 137.674804688 1.609375 125.607421875 0 92 0 c 0
 58.39453125 0 49.72265625 13.81640625 49.72265625 29.8564453125 c 0
 49.72265625 45.8955078125 59.982421875 57.470703125 79.5869140625 57.470703125 c 0
 90.5791015625 57.470703125 98 53.9033203125 104 53.9033203125 c 0
 108.75390625 53.9033203125 115 58.509667173 115 66 c 2
 115 499 l 2
 115 518 113 529 102 529 c 0
 92 529 88 521.654296875 74 521.654296875 c 0
 62 521.654296875 46 529.139648438 46 550 c 0
 46 573 69.498046875 583.083007812 94 583.083007812 c 0
 115 583.083007812 139.750976562 583.083007812 163 583.083007812 c 0
 192 583.083007812 203.717142027 568.474951577 226 546 c 2
 458 312 l 2
 489.685546875 280.041992188 495 273 506 273 c 0
 517 273 521 287 521 316 c 2
 521 517 l 2
 521 524 517.747070312 529.044921875 503 529.044921875 c 0
 497 529.044921875 488.80078125 525.612304688 477.959960938 525.612304688 c 0
 458.35546875 525.612304688 448.124023438 537.1875 448.124023438 553.2265625 c 0
 448.124023438 569.266601562 456.766601562 583.083007812 490.373046875 583.083007812 c 0
 523.98046875 583.083007812 541 581.473632812 553 581.473632812 c 0
 564.325195312 581.473632812 580.392578125 583.083007812 614 583.083007812 c 0
 647.60546875 583.083007812 656.27734375 569.266601562 656.27734375 553.2265625 c 0
 656.27734375 537.1875 646.017578125 525.612304688 626.413085938 525.612304688 c 0
 615.420898438 525.612304688 611 529.1796875 600 529.1796875 c 0
 590.24609375 529.1796875 587 526 587 518 c 2
EndSplineSet
EndChar

StartChar: O
Encoding: 79 79 32
Width: 661
Flags: W
HStem: -4 60<262.341 393.659> 530 60<260.784 395.216>
VStem: 23 163<178.53 414.432> 470 163<178.53 414.432>
AnchorPoint: "Anchor-0" 328 583.083 basechar 0
LayerCount: 2
Fore
SplineSet
328 56 m 0
 398 56 470 116.899414062 470 295 c 0
 470 473.099609375 398 530 328 530 c 0
 258 530 186 473.099609375 186 295 c 0
 186 116.899414062 258 56 328 56 c 0
328 -4 m 0
 174 -4 23 100 23 295 c 0
 23 490 164 590 328 590 c 0
 492 590 633 490 633 295 c 0
 633 100 482 -4 328 -4 c 0
EndSplineSet
EndChar

StartChar: P
Encoding: 80 80 33
Width: 529
Flags: W
HStem: 0 53.9033<10.6273 68.6357 211.774 268.974> 253 44<215.846 311.735> 529 54.083<28.649 68.6357> 540 43.0068<213.372 315.273>
VStem: 68.6357 143.139<54.0772 252.996 301.271 528.54> 348.774 147<338.119 500.983>
LayerCount: 2
Fore
SplineSet
209.774414062 488 m 2xdc
 209.774414062 359 l 2
 209.774414062 317 219 297 258.774414062 297 c 0
 306.774414062 297 348.774414062 342 348.774414062 418 c 0
 348.774414062 504 309.774414062 540 260.774414062 540 c 0
 211.774414062 540 209.774414062 518 209.774414062 488 c 2xdc
48 583.083007812 m 2xec
 279 583.006835938 l 2xdc
 414.999659295 582.962489923 495.774414062 525.729492188 495.774414062 419 c 0
 495.774414062 292 396 250 303 250 c 0
 268 250 250 253 233 253 c 0
 218 253 211.774414062 247 211.774414062 232 c 2
 211.774414062 65 l 2
 211.774414062 58.8915325463 215.252929688 54.0380859375 220 54.0380859375 c 0
 226 54.0380859375 229.19921875 57.470703125 240.040039062 57.470703125 c 0
 259.64453125 57.470703125 269.875976562 45.8955078125 269.875976562 29.8564453125 c 0
 269.875976562 13.81640625 261.233398438 0 227.626953125 0 c 0
 194.01953125 0 179.921875 3.609375 139.297851562 3.609375 c 4
 98.6748046875 3.609375 85.607421875 0 52 0 c 0
 18.39453125 0 9.72265625 13.81640625 9.72265625 29.8564453125 c 0
 9.72265625 45.8955078125 19.982421875 57.470703125 39.5869140625 57.470703125 c 0
 50.5791015625 57.470703125 54 53.9033203125 60 53.9033203125 c 0
 64.75390625 53.9033203125 68.6357421875 57.5200467701 68.6357421875 67 c 2
 68.6357421875 510 l 2
 68.6357421875 523 64 529 56 529 c 0
 46 529 42 521.654296875 28 521.654296875 c 0
 16 521.654296875 0 529.139648438 0 550 c 0
 0 573 18.000003246 583.092900263 48 583.083007812 c 2xec
EndSplineSet
EndChar

StartChar: Q
Encoding: 81 81 34
Width: 661
Flags: W
HStem: -109 81<476.077 554.773> -38 70<277.739 360.923> -4 60<262.341 393.659> 530 60<260.784 395.216>
VStem: 23 163<178.53 414.432> 470 163<178.53 414.432>
LayerCount: 2
Fore
SplineSet
176 -49 m 4x5c
 176 16 280 32 314 32 c 4x5c
 490 32 466 -28 521 -28 c 4
 576 -28 550 50 612 50 c 4
 632 50 652 36 652 10 c 4
 652 -38 597 -109 492 -109 c 4x9c
 387 -109 366 -38 314 -38 c 4
 256 -38 290 -103 223 -103 c 4
 200 -103 176 -84 176 -49 c 4x5c
EndSplineSet
Refer: 32 79 N 1 0 0 1 0 0 2
EndChar

StartChar: R
Encoding: 82 82 35
Width: 604
Flags: W
HStem: -4.31641 69<439.497 524.878> 0 53.9033<10.6273 67.7527 211.793 268.974> 287 40<216.858 305.778> 529 54.083<28.649 68.6357> 541 42<213.782 320.029>
VStem: 68.7744 143<54.0514 285.421 331.271 528.751> 334 151<68.6689 251.898> 352.774 158<362.905 510.213> 525 65<64.8975 110.339>
LayerCount: 2
Fore
SplineSet
48 583.083007812 m 2x7680
 300.774414062 583 l 2
 440.999984878 582.953951756 510.774414062 531.729492188 510.774414062 435 c 0x2d80
 510.774414062 330 415.326171875 313 415.326171875 300.118164062 c 0
 415.326171875 287 485 277 485 168 c 0
 485 81.9476903273 494 64.68359375 509 64.68359375 c 0
 521 64.68359375 525 73.68359375 525 88.68359375 c 0
 525 102.68359375 536.923828125 113.68359375 554 113.68359375 c 0
 571 113.68359375 590 99.68359375 590 70.68359375 c 0
 590 40.68359375 564 -4.31640625 481 -4.31640625 c 0xae80
 388 -4.31640625 334 37 334 189 c 0
 334 259 297.0859375 287 250 287 c 0
 221 287 212 276 211.774414062 254 c 2
 211.774414062 65 l 2
 211.774414063 59 215.252929688 54.0380859375 220 54.0380859375 c 0
 226 54.0380859375 229.19921875 57.470703125 240.040039062 57.470703125 c 0
 259.64453125 57.470703125 269.875976562 45.8955078125 269.875976562 29.8564453125 c 0
 269.875976562 13.81640625 261.233398438 0 227.626953125 0 c 0
 194.01953125 0 179.921875 3.609375 139.297851562 3.609375 c 4
 98.6748046875 3.609375 85.607421875 0 52 0 c 0
 18.39453125 0 9.72265625 13.81640625 9.72265625 29.8564453125 c 0
 9.72265625 45.8955078125 19.982421875 57.470703125 39.5869140625 57.470703125 c 0
 50.5791015625 57.470703125 54 53.9033203125 60 53.9033203125 c 0
 64.75390625 53.9033203125 68.77734375 58 68.7744140625 67 c 2
 68.6357421875 510 l 2
 68.6316728458 522.999884703 64 529 56 529 c 0
 46 529 42 521.654296875 28 521.654296875 c 0
 16 521.654296875 0 529.139648438 0 550 c 0
 0 573 18 583 48 583.083007812 c 2x7680
209.774414062 489 m 2
 209.774414062 389 l 2
 209.774414062 347 219 327 258.774414062 327 c 0
 306.774414062 327 352.774414062 362 352.774414062 438 c 0
 352.774414062 514 309.774414062 541 260.774414062 541 c 0
 211.774414062 541 209.774414062 519 209.774414062 489 c 2
EndSplineSet
EndChar

StartChar: S
Encoding: 83 83 36
Width: 416
Flags: W
HStem: -8 57<173.546 255.092> 537 61<139.038 205.708>
VStem: 32 102<395.496 527.573> 264 117<89.9845 223.901>
LayerCount: 2
Fore
SplineSet
32 442 m 0
 32 537 94 598 192 598 c 0
 290 598 322 544 322 512 c 0
 322 494 305 470 273 470 c 0
 221 470 208 537 172 537 c 0
 148 537 134 520 134 499 c 4
 134 457 188.51171875 418.012695312 246.317382812 379 c 0
 311.560546875 334.96875 381 274.802148377 381 173 c 0
 381 64 284 -8 180 -8 c 0
 76 -8 22 33 22 83 c 0
 22 113 42 141 84 141 c 0
 158 141 152 49 216 49 c 0
 244 49 264 71 264 104 c 0
 264 159 213.969726562 198.166015625 158.978515625 242 c 0
 97.3486328125 291.125 32 348.991204859 32 442 c 0
EndSplineSet
EndChar

StartChar: T
Encoding: 84 84 37
Width: 525
Flags: W
HStem: 0 53.9033<133.627 191 334 390.974> 391 21G<36.527 84.5801 440.42 488.473> 530 43<128.65 188.513 336.487 396.857>
VStem: 191 143<54.0529 528.629>
LayerCount: 2
Fore
SplineSet
191 65.474609375 m 2
 191 491 l 2
 191 517 178.799804688 530 159.48046875 530 c 0
 98.759765625 530 118 391 51.16015625 391 c 0
 21.8938592969 391 12.7867813564 405.621868682 12.7867813564 426.094101429 c 0
 12.7867813564 452.60144906 28.0547472112 488.916899724 34.599609375 516 c 0
 43.7998046875 553 44 592 75.8798828125 592 c 0
 105.3203125 592 180 573 259 573 c 0
 338 573 419.6796875 592 449.120117188 592 c 0
 481 592 481.200195312 553 490.400390625 516 c 0
 496.9453125 488.916992188 512.212890625 452.6015625 512.212890625 426.09375 c 0
 512.212890625 405.622070312 503.10546875 391 473.83984375 391 c 0
 407 391 426.240234375 530 365.51953125 530 c 0
 346.200195312 530 334 517 334 491 c 2
 334 65.71484375 l 2
 334 59 337.252929688 54.0380859375 342 54.0380859375 c 0
 348 54.0380859375 351.19921875 57.470703125 362.040039062 57.470703125 c 0
 381.64453125 57.470703125 391.875976562 45.8955078125 391.875976562 29.8564453125 c 0
 391.875976562 13.81640625 383.233398438 0 349.626953125 0 c 0
 316.01953125 0 302.921875 3.609375 262.297851562 3.609375 c 4
 221.674804688 3.609375 208.607421875 0 175 0 c 0
 141.39453125 0 132.72265625 13.81640625 132.72265625 29.8564453125 c 0
 132.72265625 45.8955078125 142.982421875 57.470703125 162.586914062 57.470703125 c 0
 173.579101562 57.470703125 177 53.9033203125 183 53.9033203125 c 0
 187.75390625 53.9033203125 191 57 191 65.474609375 c 2
EndSplineSet
EndChar

StartChar: U
Encoding: 85 85 38
Width: 600
Flags: W
HStem: -14 69<272.802 415.801> 529.045 54.0381<15.625 74 217 273.946 410.627 468 534 590.974>
VStem: 74 143<116.013 529.02> 468 66<112.372 529.027>
AnchorPoint: "Anchor-0" 339 583 basechar 0
LayerCount: 2
Fore
SplineSet
534 518 m 2
 534 212.799804688 l 2
 534 82 464 -14 320 -14 c 0
 176 -14 74 51 74 216 c 2
 74 515 l 2
 74 525 69.345703125 529.044921875 64.5986328125 529.044921875 c 0
 58.5986328125 529.044921875 55.3994140625 525.612304688 44.55859375 525.612304688 c 0
 24.9541015625 525.612304688 14.72265625 537.1875 14.72265625 553.2265625 c 0
 14.72265625 569.266601562 23.365234375 583.083007812 56.9716796875 583.083007812 c 0
 90.5791015625 583.083007812 95.6767578125 579.473632812 136.30078125 579.473632812 c 0
 176.923828125 579.473632812 197.991210938 583.083007812 231.598632812 583.083007812 c 0
 265.204101562 583.083007812 274.875976562 569.266601562 274.875976562 553.2265625 c 0
 274.875976562 537.1875 264.616210938 525.612304688 245.01171875 525.612304688 c 0
 234.01953125 525.612304688 230.598632812 529.1796875 224.598632812 529.1796875 c 0
 219.844726562 529.1796875 217 526 217 514 c 2
 217 226 l 2
 217 85 279 55 349 55 c 0
 419 55 468 100 468 222 c 2
 468 517.608398438 l 2
 468 526 464.75390625 529.1796875 460 529.1796875 c 0
 454 529.1796875 450.579101562 525.612304688 439.586914062 525.612304688 c 0
 419.982421875 525.612304688 409.72265625 537.1875 409.72265625 553.2265625 c 0
 409.72265625 569.266601562 418.39453125 583.083007812 452 583.083007812 c 0
 485.607421875 583.083007812 490.674804688 581.473632812 502 581.473632812 c 0
 514 581.473632812 516.01953125 583.083007812 549.626953125 583.083007812 c 0
 583.233398438 583.083007812 591.875976562 569.266601562 591.875976562 553.2265625 c 0
 591.875976562 537.1875 581.64453125 525.612304688 562.040039062 525.612304688 c 0
 551.19921875 525.612304688 548 529.044921875 542 529.044921875 c 0
 537.252929688 529.044921875 534 524.916992188 534 518 c 2
EndSplineSet
EndChar

StartChar: V
Encoding: 86 86 39
Width: 600
Flags: W
HStem: 0 21G<297.493 332> 529.045 54.0381<2.62504 70.6784 207.001 267.946 397.026 457.997 527.316 600.373>
LayerCount: 2
Fore
SplineSet
208.682617188 510.286132812 m 2
 304.073242188 283 l 2
 319.151567822 247.07304887 332 233 345 233 c 0
 359 233 370.95198217 242.661517809 384.051757812 282 c 2
 436 438 l 2
 450.377440246 481.175294948 458 503.720703125 458 520 c 0
 458 527 454 529.044921875 448 529.044921875 c 0
 442 529.044921875 436.80078125 525.612304688 425.959960938 525.612304688 c 0
 406.35546875 525.612304688 396.124023438 537.1875 396.124023438 553.2265625 c 0
 396.124023438 569.266601562 404.766601562 583.083007812 438.373046875 583.083007812 c 0
 471.98046875 583.083007812 481 581.473632812 493 581.473632812 c 0
 504.325195312 581.473632812 525.392578125 583.083007812 559 583.083007812 c 0
 592.60546875 583.083007812 601.27734375 569.266601562 601.27734375 553.2265625 c 0
 601.27734375 537.1875 591.017578125 525.612304688 571.413085938 525.612304688 c 0
 560.420898438 525.612304688 556 529.1796875 545 529.1796875 c 0
 535.24609375 529.1796875 531.735454963 525.809547335 530 518 c 0
 528 509 524.983053957 497.707602617 510 455 c 2
 383 93 l 2
 361.660917836 32.1752146202 350 0 314 0 c 0
 280.985351562 0 272.334586665 29.14101034 245 94 c 2
 76 495 l 2
 64.6218935161 521.997755622 60 529.044921875 51.5986328125 529.044921875 c 0
 45.5986328125 529.044921875 42.3994140625 525.612304688 31.55859375 525.612304688 c 0
 11.9541015625 525.612304688 1.72265625 537.1875 1.72265625 553.2265625 c 0
 1.72265625 569.266601562 10.365234375 583.083007812 43.9716796875 583.083007812 c 0
 77.5791015625 583.083007812 89.6767578125 579.473632812 130.30078125 579.473632812 c 0
 170.923828125 579.473632812 191.991210938 583.083007812 225.598632812 583.083007812 c 0
 259.204101562 583.083007812 268.875976562 569.266601562 268.875976562 553.2265625 c 0
 268.875976562 537.1875 258.616210938 525.612304688 239.01171875 525.612304688 c 0
 228.01953125 525.612304688 224.598632812 529.1796875 218.598632812 529.1796875 c 0
 212 529.1796875 206.997384868 525 206.997384868 518.000000086 c 0
 206.997384868 515.000000173 207.436884789 513.254523528 208.682617188 510.286132812 c 2
EndSplineSet
EndChar

StartChar: W
Encoding: 87 87 40
Width: 879
Flags: W
HStem: 0 21G<297.493 332 577.493 612> 529.045 54.0381<2.62504 70.6784 207.001 267.946 282.625 349.852 487.001 547.946 677.026 737.997 807.316 880.373>
LayerCount: 2
Back
SplineSet
438.763671875 227 m 6
 382.998046875 93 l 6
 358.37890625 33.841796875 349.998046875 0 313.998046875 0 c 4
 280.983398438 -0 271.541992188 33.0859375 244.998046875 94 c 6
 88.998046875 452 l 6
 67.08203125 502.293945312 52.998046875 518 28.998046875 518 c 4
 8.998046875 518 -4.001953125 532 -4.001953125 549 c 4
 -4.001953125 566 3.998046875 582 39.998046875 582 c 4
 75.998046875 582 89.998046875 577 117.998046875 577 c 4
 145.998046875 577 172.998046875 581 211.998046875 581 c 4
 250.998046875 581 263.998046875 578 263.998046875 548 c 4
 263.998046875 518 217.998046875 543 217.998046875 508 c 4
 217.998046875 486 224.0546875 467.033203125 238.999023438 437 c 6
 288.4921875 316 l 6
 316.183014579 248.301962502 330.470703125 240 337.999023438 240 c 4
 348.651367188 240 363.033203125 247.993164062 374.365234375 272 c 6
 401.271484375 329 l 6
 406.45703125 342.205078125 409.752929688 353.059570312 409.752929688 358.474609375 c 4
 409.752929688 364.237975827 404.795937411 377.357009481 398.339536843 391.999999327 c 6
 368.999023438 452 l 6
 347.083007812 502.293945312 332.999023438 518 308.999023438 518 c 4
 288.999023438 518 275.999023438 532 275.999023438 549 c 4
 275.999023438 566 283.999023438 582 319.999023438 582 c 4
 355.999023438 582 369.999023438 577 397.999023438 577 c 4
 425.999023438 577 452.999023438 581 491.999023438 581 c 4
 530.999023438 581 543.999023438 578 543.999023438 548 c 4
 543.999023438 518 497.999023438 543 497.999023438 508 c 4
 497.999023438 492 504.362304688 472.784179688 518.999023438 437 c 6
 568.4921875 316 l 6
 595.927734375 248.92578125 610.470703125 240 621.999023438 240 c 4
 633.783203125 240 649.56640625 254.036132812 671.703125 313 c 6
 713 423 l 6
 722.173828125 447.436523438 733 470 733 504 c 4
 733 525.5703125 681 507 681 552 c 4
 681 575.383789062 697.94140625 581.038085938 717 581 c 4
 737.87890625 580.958007812 761.499023438 574 773 574 c 4
 795 574 804 581 832 581 c 4
 860 581 876 575 876 550 c 4
 876 525 857 517 848 517 c 4
 839 517 835 519 825 519 c 4
 815 519 811.5078125 510.2109375 805 495 c 6
 663 93 l 5
 637.586914062 33.6044921875 630 0 594 0 c 4
 560.985351562 -0 553.102539062 34.0478515625 525 94 c 6
 462.1875 228 l 6
 457.974609375 236.98828125 455 242 450 242 c 4
 445 242 442.936523438 237.026367188 438.763671875 227 c 6
EndSplineSet
Fore
SplineSet
488.682617188 510.286132812 m 2
 584.073242188 283 l 2
 599.151367188 247.073242188 612 233 625 233 c 0
 639 233 650.952148438 242.661132812 664.051757812 282 c 2
 716 438 l 2
 730.376953125 481.17578125 738 503.720703125 738 520 c 0
 738 527 734 529.044921875 728 529.044921875 c 0
 722 529.044921875 716.80078125 525.612304688 705.959960938 525.612304688 c 0
 686.35546875 525.612304688 676.124023438 537.1875 676.124023438 553.2265625 c 0
 676.124023438 569.266601562 684.766601562 583.083007812 718.373046875 583.083007812 c 0
 751.98046875 583.083007812 761 581.473632812 773 581.473632812 c 4
 784.325195312 581.473632812 805.392578125 583.083007812 839 583.083007812 c 0
 872.60546875 583.083007812 881.27734375 569.266601562 881.27734375 553.2265625 c 0
 881.27734375 537.1875 871.017578125 525.612304688 851.413085938 525.612304688 c 0
 840.420898438 525.612304688 836 529.1796875 825 529.1796875 c 0
 815.24609375 529.1796875 811.735351562 525.809570312 810 518 c 0
 808 509 804.983398438 497.708007812 790 455 c 2
 663 93 l 2
 641.661132812 32.1748046875 630 0 594 0 c 0
 560.985351562 0 552.334960938 29.140625 525 94 c 2
 474.426433915 214 l 2
 463.963049609 238.827320159 457.30078125 250 449 250 c 0
 441.30078125 250 434.728340117 240.446134821 426.151933702 216 c 2
 383 93 l 2
 361.660917836 32.1752146202 350 0 314 0 c 0
 280.985351562 0 272.334586665 29.14101034 245 94 c 2
 76 495 l 2
 64.6218935161 521.997755622 60 529.044921875 51.5986328125 529.044921875 c 0
 45.5986328125 529.044921875 42.3994140625 525.612304688 31.55859375 525.612304688 c 0
 11.9541015625 525.612304688 1.72265625 537.1875 1.72265625 553.2265625 c 0
 1.72265625 569.266601562 10.365234375 583.083007812 43.9716796875 583.083007812 c 0
 77.5791015625 583.083007812 89.6767578125 579.473632812 130.30078125 579.473632812 c 0
 170.923828125 579.473632812 191.991210938 583.083007812 225.598632812 583.083007812 c 0
 259.204101562 583.083007812 268.875976562 569.266601562 268.875976562 553.2265625 c 0
 268.875976562 537.1875 258.616210938 525.612304688 239.01171875 525.612304688 c 0
 228.01953125 525.612304688 224.598632812 529.1796875 218.598632812 529.1796875 c 0
 212 529.1796875 206.997384868 525 206.997384868 518.000000086 c 0
 206.997384868 515.000000173 207.436884789 513.254523528 208.682617188 510.286132812 c 2
 304.073242188 283 l 2
 319.151567822 247.07304887 332 233 345 233 c 0
 359 233 367.79435933 243.901746686 384.051757812 282 c 2
 396 310 l 2
 405.090820312 337.302734375 410 354.208984375 410 365 c 0
 410 376.196289062 399.209960938 400.40234375 388 427 c 2
 356 495 l 2
 343.568837394 521.416220537 340 529.044921875 331.598632812 529.044921875 c 0
 325.598632812 529.044921875 322.399414062 525.612304688 311.55859375 525.612304688 c 0
 291.954101562 525.612304688 281.72265625 537.1875 281.72265625 553.2265625 c 0
 281.72265625 569.266601562 290.365234375 583.083007812 323.971679688 583.083007812 c 0
 357.579101562 583.083007812 369.676757812 579.473632812 410.30078125 579.473632812 c 0
 450.923828125 579.473632812 471.991210938 583.083007812 505.598632812 583.083007812 c 0
 539.204101562 583.083007812 548.875976562 569.266601562 548.875976562 553.2265625 c 0
 548.875976562 537.1875 538.616210938 525.612304688 519.01171875 525.612304688 c 0
 508.01953125 525.612304688 504.598632812 529.1796875 498.598632812 529.1796875 c 0
 492 529.1796875 486.997070312 525 486.997070312 518 c 0
 486.997070312 515 487.436523438 513.254882812 488.682617188 510.286132812 c 2
EndSplineSet
EndChar

StartChar: X
Encoding: 88 88 41
Width: 559
Flags: W
HStem: 0 57.4707<3.62504 74.0067 136.103 194.971 272.627 336.513 481.486 549.974> 529.045 54.0381<3.62504 70.634 216.103 274.971 322.627 386.513 451.158 519.974>
LayerCount: 2
Back
SplineSet
138 66.0830078125 m 2
 136.580078125 63.7099609375 136.099609375 62.0830078125 136.099609375 60.0830078125 c 0
 136.099609375 56.0830078125 140.870117188 53.9033203125 145.598632812 53.9033203125 c 0
 151.598632812 53.9033203125 155.01953125 57.470703125 166.01171875 57.470703125 c 0
 185.616210938 57.470703125 195.875976562 45.8955078125 195.875976562 29.8564453125 c 0
 195.875976562 13.81640625 187.204101562 0 153.598632812 0 c 0
 135.390625 0 128.310546875 1.609375 106.30078125 1.609375 c 0
 79.021484375 1.609375 67.5400390625 0 44.9716796875 0 c 0
 11.365234375 0 2.72265625 13.81640625 2.72265625 29.8564453125 c 0
 2.72265625 45.8955078125 12.9541015625 57.470703125 32.55859375 57.470703125 c 0
 43.3994140625 57.470703125 46.5986328125 54.0380859375 52.5986328125 54.0380859375 c 0
 57.345703125 54.0380859375 60.94921875 59.3095703125 65 66.0830078125 c 2
 385 517.608398438 l 2
 386.015625 519.306640625 386.516601562 520.083007812 386.516601562 522.083007812 c 0
 386.516601562 526.083007812 382 529.1796875 376 529.1796875 c 0
 366 529.1796875 362.579101562 525.612304688 351.586914062 525.612304688 c 0
 331.982421875 525.612304688 321.72265625 537.1875 321.72265625 553.2265625 c 0
 321.72265625 569.266601562 330.39453125 583.083007812 364 583.083007812 c 0
 386.05859375 583.083007812 394.634765625 581.473632812 421.297851562 581.473632812 c 4
 445.2265625 581.473632812 458.831054688 583.083007812 478.626953125 583.083007812 c 0
 512.233398438 583.083007812 520.875976562 569.266601562 520.875976562 553.2265625 c 0
 520.875976562 537.1875 510.64453125 525.612304688 491.040039062 525.612304688 c 0
 480.19921875 525.612304688 477 529.044921875 471 529.044921875 c 0
 466.252929688 529.044921875 462.342773438 524.626953125 458 517.368164062 c 2
 138 66.0830078125 l 2
218 517 m 2
 488 65.71484375 l 2
 492.342773438 58.4560546875 496.252929688 54.0380859375 501 54.0380859375 c 0
 507 54.0380859375 510.19921875 57.470703125 521.040039062 57.470703125 c 0
 540.64453125 57.470703125 550.875976562 45.8955078125 550.875976562 29.8564453125 c 0
 550.875976562 13.81640625 542.233398438 0 508.626953125 0 c 0
 475.01953125 0 441.921875 3.609375 401.297851562 3.609375 c 0
 360.674804688 3.609375 347.607421875 0 314 0 c 0
 280.39453125 0 271.72265625 13.81640625 271.72265625 29.8564453125 c 0
 271.72265625 45.8955078125 281.982421875 57.470703125 301.586914062 57.470703125 c 0
 312.579101562 57.470703125 316 53.9033203125 326 53.9033203125 c 0
 332 53.9033203125 336.516601562 57 336.516601562 61 c 0
 336.516601562 63 336.015625 63.7763671875 335 65.474609375 c 2
 65 517 l 2
 60.94921875 523.7734375 57.345703125 529.044921875 52.5986328125 529.044921875 c 0
 46.5986328125 529.044921875 43.3994140625 525.612304688 32.55859375 525.612304688 c 0
 12.9541015625 525.612304688 2.72265625 537.1875 2.72265625 553.2265625 c 0
 2.72265625 569.266601562 11.365234375 583.083007812 44.9716796875 583.083007812 c 0
 78.5791015625 583.083007812 95.6767578125 579.473632812 136.30078125 579.473632812 c 0
 176.923828125 579.473632812 199.991210938 583.083007812 233.598632812 583.083007812 c 0
 267.204101562 583.083007812 275.875976562 569.266601562 275.875976562 553.2265625 c 0
 275.875976562 537.1875 265.616210938 525.612304688 246.01171875 525.612304688 c 0
 235.01953125 525.612304688 231.598632812 529.1796875 225.598632812 529.1796875 c 0
 220.870117188 529.1796875 216.099609375 527 216.099609375 523 c 0
 216.099609375 521 216.580078125 519.373046875 218 517 c 2
EndSplineSet
Fore
SplineSet
138 66.0830078125 m 2
 136.437259803 63.8080670529 136.099609375 62.0830078125 136.099609375 60.0830078125 c 0
 136.099609375 56.0830078125 140.870117188 53.9033203125 145.598632812 53.9033203125 c 0
 151.598632812 53.9033203125 155.01953125 57.470703125 166.01171875 57.470703125 c 0
 185.616210938 57.470703125 195.875976562 45.8955078125 195.875976562 29.8564453125 c 0
 195.875976562 13.81640625 187.204101562 0 153.598632812 0 c 0
 135.390625 0 128.310546875 1.609375 106.30078125 1.609375 c 0
 79.021484375 1.609375 67.5400390625 0 44.9716796875 0 c 0
 11.365234375 0 2.72265625 13.81640625 2.72265625 29.8564453125 c 0
 2.72265625 45.8955078125 12.9541015625 57.470703125 32.55859375 57.470703125 c 0
 43.3994140625 57.470703125 46.5986328125 54.0380859375 52.5986328125 54.0380859375 c 0
 57.345703125 54.0380859375 60.94921875 59.3095703125 65 66.0830078125 c 2
 180.285360821 234 l 2
 189.532592797 247.468903323 202 262 202 275.9921875 c 0
 202 290 191.19072172 305.969204007 185.19257638 316 c 2
 65 517 l 2
 60.94921875 523.7734375 57.345703125 529.044921875 52.5986328125 529.044921875 c 0
 46.5986328125 529.044921875 43.3994140625 525.612304688 32.55859375 525.612304688 c 0
 12.9541015625 525.612304688 2.72265625 537.1875 2.72265625 553.2265625 c 0
 2.72265625 569.266601562 11.365234375 583.083007812 44.9716796875 583.083007812 c 0
 78.5791015625 583.083007812 95.6767578125 579.473632812 136.30078125 579.473632812 c 0
 176.923828125 579.473632812 199.991210938 583.083007812 233.598632812 583.083007812 c 0
 267.204101562 583.083007812 275.875976562 569.266601562 275.875976562 553.2265625 c 0
 275.875976562 537.1875 265.616210938 525.612304688 246.01171875 525.612304688 c 0
 235.01953125 525.612304688 231.598632812 529.1796875 225.598632812 529.1796875 c 0
 220.870117188 529.1796875 216.099609375 527 216.099609375 523 c 0
 216.099609375 521 216.580078125 519.373046875 218 517 c 2
 272.064453125 426.635742188 l 2
 279.900390625 413.5390625 285 404 295.568359375 404 c 0
 306 404 315.072265625 415.756835938 323.645507812 428.244140625 c 2
 385 517.608398438 l 2
 386.118164062 519.236328125 386.516601562 520.083007812 386.516601562 522.083007812 c 0
 386.516601562 526.083007812 382 529.1796875 376 529.1796875 c 0
 366 529.1796875 362.579101562 525.612304688 351.586914062 525.612304688 c 0
 331.982421875 525.612304688 321.72265625 537.1875 321.72265625 553.2265625 c 0
 321.72265625 569.266601562 330.39453125 583.083007812 364 583.083007812 c 0
 386.05859375 583.083007812 394.634765625 580.473632812 421.297851562 580.473632812 c 4
 445.2265625 580.473632812 458.831054688 583.083007812 478.626953125 583.083007812 c 0
 512.233398438 583.083007812 520.875976562 569.266601562 520.875976562 553.2265625 c 0
 520.875976562 537.1875 510.64453125 525.612304688 491.040039062 525.612304688 c 0
 480.19921875 525.612304688 477 529.044921875 471 529.044921875 c 0
 466.252929688 529.044921875 462.342773438 524.626953125 458 517.368164062 c 2
 348.525390625 358 l 2
 345.424804688 353.486328125 337 344 337 330.458007812 c 0
 337 318 343.604492188 307.060546875 349.025390625 298 c 2
 488 65.71484375 l 2
 492.342773438 58.4560546875 496.252929688 54.0380859375 501 54.0380859375 c 0
 507 54.0380859375 510.19921875 57.470703125 521.040039062 57.470703125 c 0
 540.64453125 57.470703125 550.875976562 45.8955078125 550.875976562 29.8564453125 c 0
 550.875976562 13.81640625 542.233398438 0 508.626953125 0 c 0
 475.01953125 0 441.921875 3.609375 401.297851562 3.609375 c 0
 360.674804688 3.609375 347.607421875 0 314 0 c 0
 280.39453125 0 271.72265625 13.81640625 271.72265625 29.8564453125 c 0
 271.72265625 45.8955078125 281.982421875 57.470703125 301.586914062 57.470703125 c 0
 312.579101562 57.470703125 316 53.9033203125 326 53.9033203125 c 0
 332 53.9033203125 336.516601562 57 336.516601562 61 c 0
 336.516601562 63 336.015517809 63.77630309 335 65.474609375 c 2
 269.991210938 174.192382812 l 2
 258.183530829 193.936039927 249 198 243.125 198 c 0
 236 198 222.296346808 188.796428515 213.169921875 175.510742188 c 2
 138 66.0830078125 l 2
EndSplineSet
EndChar

StartChar: Y
Encoding: 89 89 42
Width: 559
Flags: W
HStem: 0 53.9033<152.627 210.559 353.559 410.027> 529.045 54.0381<-6.37496 60.663 216.103 274.971 362.627 425.999 484.738 559.974>
VStem: 210.559 143<54.0515 323.467>
LayerCount: 2
Fore
SplineSet
353.55859375 66 m 2
 353.55859375 58 357.252929688 54.0380859375 362 54.0380859375 c 0
 368 54.0380859375 371.19921875 57.470703125 382.040039062 57.470703125 c 0
 401.64453125 57.470703125 410.875976562 45.8955078125 410.875976562 29.8564453125 c 0
 410.875976562 13.81640625 402.233398438 0 368.626953125 0 c 0
 335.01953125 0 321.921875 3.609375 281.297851562 3.609375 c 0
 240.674804688 3.609375 227.607421875 0 194 0 c 0
 160.39453125 0 151.72265625 13.81640625 151.72265625 29.8564453125 c 0
 151.72265625 45.8955078125 161.982421875 57.470703125 181.586914062 57.470703125 c 0
 192.579101562 57.470703125 196 53.9033203125 202 53.9033203125 c 0
 206.75390625 53.9033203125 210.55859375 58 210.55859375 67.0859375 c 2
 210.55859375 265.239257812 l 2
 210.55859375 295 201.195057116 306.441112781 175.811523438 343 c 2
 55 517 l 2
 50 523 47.345703125 529.044921875 42.5986328125 529.044921875 c 0
 36.5986328125 529.044921875 33.3994140625 525.612304688 22.55859375 525.612304688 c 0
 2.9541015625 525.612304688 -7.27734375 537.1875 -7.27734375 553.2265625 c 0
 -7.27734375 569.266601562 1.365234375 583.083007812 34.9716796875 583.083007812 c 0
 68.5791015625 583.083007812 95.6767578125 579.473632812 136.30078125 579.473632812 c 0
 176.923828125 579.473632812 199.991210938 583.083007812 233.598632812 583.083007812 c 0
 267.204101562 583.083007812 275.875976562 569.266601562 275.875976562 553.2265625 c 0
 275.875976562 537.1875 265.616210938 525.612304688 246.01171875 525.612304688 c 0
 235.01953125 525.612304688 231.598632812 529.1796875 225.598632812 529.1796875 c 0
 220.870117188 529.1796875 216.099609375 527 216.099609375 523 c 0
 216.099609375 515 221.931560401 503.825694303 242.05859375 475.421875 c 2
 288.55859375 409.799804688 l 2
 302.057703638 390.749492037 309.836914062 379.0859375 325.55859375 379.0859375 c 0
 341.55859375 379.0859375 351.614489826 395.628335814 359.55859375 408.762695312 c 2
 422 512 l 2
 425.460529738 517.721456071 426 520 426 522 c 0
 426 526 424 529.1796875 418 529.1796875 c 0
 408 529.1796875 402.579101562 525.612304688 391.586914062 525.612304688 c 0
 371.982421875 525.612304688 361.72265625 537.1875 361.72265625 553.2265625 c 0
 361.72265625 569.266601562 370.39453125 583.083007812 404 583.083007812 c 0
 426.05859375 583.083007812 434.634765625 581.473632812 461.297851562 581.473632812 c 0
 485.2265625 581.473632812 498.831054688 583.083007812 518.626953125 583.083007812 c 0
 552.233398438 583.083007812 560.875976562 569.266601562 560.875976562 553.2265625 c 0
 560.875976562 537.1875 550.64453125 525.612304688 531.040039062 525.612304688 c 0
 520.19921875 525.612304688 513 529.044921875 507 529.044921875 c 0
 497 529.044921875 492.185141681 519.154521444 480 500 c 2
 383.94140625 349 l 2
 366.832963642 322.106260117 353.55859375 297 353.55859375 266 c 2
 353.55859375 66 l 2
EndSplineSet
EndChar

StartChar: Z
Encoding: 90 90 43
Width: 500
Flags: W
HStem: 0 56<200.6 350.073> 528 55.083<175.119 297.769>
VStem: 13.3384 187.25<15.0902 76.4606> 297.777 170.223<499.101 565>
LayerCount: 2
Fore
SplineSet
292 56 m 2
 331 56 341.53051416 69.0655019183 364 91 c 0
 406 132 410 166 456 166 c 0
 474 166 486 151 486 130 c 0
 486 109 470 97 454 62 c 0
 438 27 441 -20.31640625 396 -20.31640625 c 0
 355 -20.31640625 358 -6.24549240449e-15 307 0 c 2
 38 0 l 2
 22 0 13.3383935309 8.18047061842 13.3383935309 22.0000011983 c 0
 13.3383935309 33 16.9489076809 42.6981952989 25 56 c 10
 289 492 l 2
 294.938476562 501.810546875 297.77734375 509.1015625 297.77734375 514.455078125 c 0
 297.77734375 524.94921875 286.866210938 528 267 528 c 2
 215 528 l 2
 190.454101562 528 179 516.346515832 159 481.673257916 c 0
 139 447 114.905619858 421 81 421 c 0
 54 421 49 435 49 448 c 0
 49 469 68 499 86 538 c 0
 104 577 111 598 139 598 c 0
 167 598 168 583.083007812 223 583.083007812 c 2
 428 583.083007812 l 2
 457 583.083007812 468 574 468 556 c 0
 468 538 457.482421875 516.3203125 426 464 c 10
 211 100 l 2
 203.726561169 88.3286820405 200.58836971 79.6618487897 200.58836971 73.2593706405 c 0
 200.58836971 59.0644064089 216.014316578 56 236 56 c 2
 292 56 l 2
EndSplineSet
EndChar

StartChar: a
Encoding: 97 97 44
Width: 423
Flags: W
HStem: -4.31641 63.3164<304 392.073> 30 25<210.279 222.996> 231 48<153.309 226.311> 231 35<159.671 229> 346 46<148.788 225.569>
VStem: 5 133<69.489 214.053> 238 125<76.2083 330.082> 238 116<61.9946 225.89>
AnchorPoint: "Anchor-0" 200 383.083 basechar 0
LayerCount: 2
Fore
SplineSet
193 231 m 0x6e
 149 231 138 185 138 143 c 0
 138 101 151 55 191 55 c 0
 224 55 238 82 238 106 c 2
 238 174 l 2
 238 205 229 231 193 231 c 0x6e
94 294 m 0
 73 294 62 311 62 327 c 0
 62 373 134 392 190 392 c 4
 322 392 363 326 363 246 c 0x1e
 363 175 354 100 354 75 c 0
 354 66 359 59 368 59 c 0
 383 59 384 85 406 85 c 0
 422 85 429 74 429 60 c 0
 429 31 385 -4.31640625 339 -4.31640625 c 0x9d
 269 -4.31640625 262 30 240 30 c 0x4d
 218 30 195 -4.31640625 135 -4.31640625 c 0
 90 -4.31640625 5 21 5 140 c 0
 5 248 110 279 158 279 c 0xad
 194 279 207 266 222 266 c 0x1d
 230 266 235 274 235 289 c 0
 235 311 225 346 191 346 c 4
 147 346 141 294 94 294 c 0
EndSplineSet
EndChar

StartChar: b
Encoding: 98 98 45
Width: 496
Flags: W
HStem: -4.31641 43.3164<199.707 285.547> 0 61.4287<5.26359 67> 333 33<210.25 252.842> 545.129 54.0381<9.62504 67>
VStem: 67 122<56.2046 317.125 366.011 545.127> 333 134<106.318 299.34>
LayerCount: 2
Fore
SplineSet
193 103 m 2xbc
 193 53 207 39 240 39 c 0
 273 39 333 73 333 198 c 0
 333 323 280 333 250 333 c 4
 220 333 193 312 193 269 c 6
 193 103 l 2xbc
114 597.083984375 m 0
 126.875976562 597.083984375 136.971679688 599.166992188 154.971679688 599.166992188 c 0
 172.971679688 599.166992188 189 590.083984375 189 564.083984375 c 2
 189 397 l 6
 189 381.775390625 194 366 209 366 c 4
 229 366 251 392 312 392 c 4
 355 392 467 371 467 213 c 0
 467 42 339 -4.31640625 251 -4.31640625 c 0xbc
 193 -4.31640625 178.009765625 0 127.55078125 0 c 2
 49.55078125 0 l 2
 20 0 3.55078125 10.0830078125 3.55078125 33.0830078125 c 0
 3.55078125 53.943359375 19.55078125 61.4287109375 31.55078125 61.4287109375 c 0x7c
 45.55078125 61.4287109375 46 56 56 56 c 0
 64 56 67 63 67 72 c 2
 67 533.083984375 l 2
 67 543.083984375 63.345703125 545.12890625 58.5986328125 545.12890625 c 0
 52.5986328125 545.12890625 49.3994140625 541.696289062 38.55859375 541.696289062 c 0
 18.9541015625 541.696289062 8.72265625 553.271484375 8.72265625 569.310546875 c 0
 8.72265625 585.350585938 17.365234375 599.166992188 50.9716796875 599.166992188 c 0
 84.5791015625 599.166992188 85 597.083984375 114 597.083984375 c 0
EndSplineSet
EndChar

StartChar: c
Encoding: 99 99 46
Width: 397
Flags: W
HStem: -10 56<191.087 288.496> 340 52<191.079 272.803>
VStem: 16 142<85.9956 285.815>
LayerCount: 2
Fore
SplineSet
243 46 m 0
 305.19140625 46 291.19140625 112.357421875 353.3828125 112.357421875 c 0
 372.371429338 112.357421875 386 97.5838880605 386 77 c 0
 386 31.5474954977 311.023485136 -10 229 -10 c 0
 93.8189980988 -10 16 57.1650390625 16 186 c 4
 16 326 116.564453125 392 227 392 c 0
 312.572265625 392 375 356.146484375 375 307 c 0
 375 285.553710938 355.518554688 267 333 267 c 0
 281.5 267 285.5 340 234 340 c 0
 187.247070312 340 158 281.426757812 158 183 c 4
 158 90.7099609375 186.563914119 46 243 46 c 0
EndSplineSet
EndChar

StartChar: d
Encoding: 100 100 47
Width: 509
Flags: W
HStem: 0 54.0381<136.733 294.615 433.103 496.974> 339 53<191.426 291.615> 545.129 54.0381<247.625 307>
VStem: 17 143<97.4908 295.765> 307 126<63.7801 324.119 377.004 545.127>
LayerCount: 2
Fore
SplineSet
160 213 m 0
 160 128 182 53 248 53 c 0
 309 53 310 109 310 152 c 2
 310 243 l 6
 310 297 295 339 242 339 c 4
 178 339 160 272 160 213 c 0
342 0 m 0
 320 0 320.012695312 25 306 25 c 0
 288.012695312 25 272 -4.31640625 201 -4.31640625 c 0
 77 -4.31640625 17 92 17 196 c 0
 17 328 102 392 212 392 c 4
 270 392 283 377 295 377 c 4
 302 377 307 383 307 396 c 6
 307 533.083984375 l 2
 307 543 303.345703125 545.12890625 298.598632812 545.12890625 c 0
 292.598632812 545.12890625 287.399414062 541.696289062 276.55859375 541.696289062 c 0
 256.954101562 541.696289062 246.72265625 553.271484375 246.72265625 569.310546875 c 0
 246.72265625 585.350585938 255.365234375 599.166992188 288.971679688 599.166992188 c 0
 322.579101562 599.166992188 327 597.083984375 356 597.083984375 c 0
 368.875976562 597.083984375 380.971679688 599.166992188 398.971679688 599.166992188 c 0
 416.971679688 599.166992188 433 590 433 564.083984375 c 2
 433 66 l 2
 433 59 438.252929688 54.0380859375 443 54.0380859375 c 0
 449 54.0380859375 457.19921875 57.470703125 468.040039062 57.470703125 c 0
 487.64453125 57.470703125 497.875976562 45.8955078125 497.875976562 29.8564453125 c 0
 497.875976562 13.81640625 489.233398438 0 455.626953125 0 c 0
 427 0 420 3.609375 397 3.609375 c 0
 371 3.609375 364 0 342 0 c 0
EndSplineSet
EndChar

StartChar: e
Encoding: 101 101 48
Width: 417
Flags: W
HStem: -10 56<191.595 299.473> 224 51<175.301 289.995> 341 51<186.333 279.839>
VStem: 13 145<96.2709 218.177> 290 106<244.736 323.684>
AnchorPoint: "Anchor-0" 226 383.083 basechar 0
LayerCount: 2
Fore
SplineSet
243 46 m 0
 325.19140625 46 301.19140625 115.357421875 363.3828125 115.357421875 c 0
 382.37109375 115.357421875 396 100.583984375 396 80 c 0
 396 34.5478515625 331.023485136 -10 229 -10 c 0
 100.478839362 -10 13 71.8089145887 13 192 c 0
 13 301.429795407 109.965820312 392 232 392 c 4
 326.979492188 392 396 330.577148438 396 254 c 0
 396 235.47265625 379.9375 224 354 224 c 2
 204 224 l 2
 171.81452815 224 158 207.782945216 158 170 c 0
 158 91.576912968 189.242238728 46 243 46 c 0
233 341 m 4
 198.860351562 341 175 317.602217245 175 293 c 0
 175 282.071389408 183.642809276 275 197 275 c 2
 265 275 l 2
 282.532226562 275 290 280.376953125 290 293 c 0
 290 319.768554688 268.115234375 341 233 341 c 4
EndSplineSet
EndChar

StartChar: f
Encoding: 102 102 49
Width: 300
Flags: W
HStem: 0 53.9033<19.6273 77 199 255.974> 322 61<15.1064 76.9919 199.058 266.01> 548 64<198.458 273.262>
VStem: 77 122<54.054 323.917 379.904 494.073>
LayerCount: 2
Back
SplineSet
20 350 m 4
 20 370 32 382 57 382 c 4
 79 382 95 373 162 373 c 4
 229 373 235 382 257 382 c 4
 282 382 294 370 294 350 c 4
 294 330 282 318 257 318 c 4
 235 318 229 327 162 327 c 4
 95 327 79 318 57 318 c 4
 32 318 20 330 20 350 c 4
EndSplineSet
Fore
SplineSet
199 66 m 6
 199 59.552607712 202.252929688 54.0380859375 207 54.0380859375 c 4
 213 54.0380859375 216.19921875 57.470703125 227.040039062 57.470703125 c 4
 246.64453125 57.470703125 256.875976562 45.8955078125 256.875976562 29.8564453125 c 4
 256.875976562 13.81640625 248.233398438 0 214.626953125 0 c 4
 181.01953125 0 171.921875 3.609375 136.297851562 3.609375 c 4
 100.674804688 3.609375 94.607421875 0 61 0 c 4
 27.39453125 0 18.72265625 13.81640625 18.72265625 29.8564453125 c 4
 18.72265625 45.8955078125 28.982421875 57.470703125 48.5869140625 57.470703125 c 4
 59.5791015625 57.470703125 63 53.9033203125 69 53.9033203125 c 4
 73.75390625 53.9033203125 77 57 77 66 c 6
 77 317.251953125 l 2
 77 323 75 326 71 326 c 0
 66 326 57 322 44 322 c 0
 27 322 14 332 14 352 c 0
 14 372 26 383 44 383 c 0
 57 383 66 378.044578978 71.9999998535 378.044578978 c 0
 75.096694991 378.044578978 77.248046875 378.607687424 77.248046875 383 c 1
 81.5908203125 502.91796875 142.554846283 612 236 612 c 0
 267 612 296 598 296 563 c 0
 296 545.052734375 282.892578125 530 260 530 c 0
 237 530 234 548 219 548 c 0
 203 548 197 533 197 510 c 1
 198.275390625 386 l 2
 198.324391577 381.235876769 200.999999537 379.852349583 207.999999768 379.852349583 c 0
 215 379.852349583 220 383 231 383 c 0
 256 383 267 372 267 352 c 0
 267 332 255 322 230 322 c 0
 220.069383635 322 216.209960938 324 210 324 c 0
 201 324 199 320.44921875 199 309 c 2
 199 66 l 6
EndSplineSet
EndChar

StartChar: g
Encoding: 103 103 50
Width: 431
Flags: W
HStem: -140 38.7998<180.246 272.93> -10 30<187.027 228.764> 348 49<176.111 256.175>
VStem: 14 134<149.296 309.055> 128 44.1426<-94.267 -30.8321> 138 29<40 74> 251 82<362.056 440> 283.383 112.617<-92.4056 -13.1631> 284 129<153.533 318.01>
LayerCount: 2
Fore
SplineSet
355 355 m 0xe2
 379 336 358 305 319 325 c 0
 301.47265625 333.98828125 251 368 251 416 c 0
 251 464 285 484 322 484 c 0
 359 484 392 466 392 434 c 0
 392 383 333 405 333 382 c 0
 333 371 343.912109375 363.778320312 355 355 c 0xe2
EndSplineSet
Refer: 74 -1 N 1 0 0 1 0 0 2
EndChar

StartChar: h
Encoding: 104 104 51
Width: 502
Flags: W
HStem: 0 57.4707<5.62726 63 184 227.996 274.605 319 439 495.974> 322 38<198.131 236.828> 545.129 54.0381<5.62504 63>
VStem: 63 121<54.0527 310.32 360.007 545.127> 319 120<54.0527 297.319>
LayerCount: 2
Fore
SplineSet
439 66 m 2
 439 59 442.252929688 54.0380859375 447 54.0380859375 c 0
 453 54.0380859375 456.19921875 57.470703125 467.040039062 57.470703125 c 0
 486.64453125 57.470703125 496.875976562 45.8955078125 496.875976562 29.8564453125 c 0
 496.875976562 13.81640625 488.233398438 0 454.626953125 0 c 0
 421.01953125 0 414.921875 3.609375 379.297851562 3.609375 c 0
 343.674804688 3.609375 349.607421875 0 316 0 c 0
 282.39453125 0 273.72265625 13.81640625 273.72265625 29.8564453125 c 0
 273.72265625 45.8955078125 280.982421875 57.470703125 293.586914062 57.470703125 c 0
 304.579101562 57.470703125 308 53.9033203125 314 53.9033203125 c 0
 318.75390625 53.9033203125 319 58 319 68 c 2
 319 223 l 6
 319 304 279 322 243 322 c 4
 207 322 184 299 184 261 c 6
 184 66 l 2
 184 59 184.252929688 54.0380859375 189 54.0380859375 c 0
 195 54.0380859375 198.19921875 57.470703125 209.040039062 57.470703125 c 0
 221.64453125 57.470703125 228.875976562 45.8955078125 228.875976562 29.8564453125 c 0
 228.875976562 13.81640625 220.233398438 0 186.626953125 0 c 0
 153.01953125 0 162.921875 3.609375 127.297851562 3.609375 c 0
 91.6748046875 3.609375 80.607421875 0 47 0 c 0
 13.39453125 0 4.72265625 13.81640625 4.72265625 29.8564453125 c 0
 4.72265625 45.8955078125 14.982421875 57.470703125 34.5869140625 57.470703125 c 0
 45.5791015625 57.470703125 49 53.9033203125 55 53.9033203125 c 0
 59.75390625 53.9033203125 63 58 63 68 c 2
 63 533 l 2
 63 543 59.345703125 545.12890625 54.5986328125 545.12890625 c 0
 48.5986328125 545.12890625 45.3994140625 541.696289062 34.55859375 541.696289062 c 0
 14.9541015625 541.696289062 4.72265625 553.271484375 4.72265625 569.310546875 c 0
 4.72265625 585.350585938 13.365234375 599.166992188 46.9716796875 599.166992188 c 0
 80.5791015625 599.166992188 85 597.083984375 114 597.083984375 c 0
 126.875976562 597.083984375 132.971679688 599.166992188 150.971679688 599.166992188 c 0
 168.971679688 599.166992188 185.108398438 590.18359375 185.108398438 564 c 2
 185.108398438 387 l 6
 185.108398438 370 188 360 200 360 c 4
 222 360 227 392 304 392 c 4
 381 392 439 333 439 243 c 6
 439 66 l 2
EndSplineSet
EndChar

StartChar: i
Encoding: 105 105 52
Width: 256
Flags: W
HStem: 0 53.9033<9.62726 67 189 245.974> 329.045 53.9551<7.98214 67> 422.495 133.935<87.5096 157.058>
VStem: 45.7881 151.212<460.559 518.191> 67 122<54.054 329.043>
LayerCount: 2
Back
SplineSet
189 317 m 6
 189 324 192.252929688 328.961914062 197 328.961914062 c 4
 203 328.961914062 206.19921875 325.529296875 217.040039062 325.529296875 c 4
 236.64453125 325.529296875 246.875976562 337.104492188 246.875976562 353.143554688 c 4
 246.875976562 369.18359375 238.233398438 383 204.626953125 383 c 4
 171.01953125 383 161.921875 379.390625 126.297851562 379.390625 c 4
 90.6748046875 379.390625 84.607421875 383 51 383 c 4
 17.39453125 383 8.72265625 369.18359375 8.72265625 353.143554688 c 4
 8.72265625 337.104492188 18.982421875 325.529296875 38.5869140625 325.529296875 c 4
 49.5791015625 325.529296875 53 329.096679688 59 329.096679688 c 4
 63.75390625 329.096679688 67 326 67 317 c 6
 67 66 l 6
 67 57 63.75390625 53.9033203125 59 53.9033203125 c 4
 53 53.9033203125 49.5791015625 57.470703125 38.5869140625 57.470703125 c 4
 18.982421875 57.470703125 8.72265625 45.8955078125 8.72265625 29.8564453125 c 4
 8.72265625 13.81640625 17.39453125 0 51 0 c 4
 84.607421875 0 90.6748046875 3.609375 126.297851562 3.609375 c 4
 161.921875 3.609375 171.01953125 0 204.626953125 0 c 4
 238.233398438 0 246.875976562 13.81640625 246.875976562 29.8564453125 c 4
 246.875976562 45.8955078125 236.64453125 57.470703125 217.040039062 57.470703125 c 4
 206.19921875 57.470703125 203 54.0380859375 197 54.0380859375 c 4xf0
 192.252929688 54.0380859375 189 59 189 66 c 6xe8
 189 317 l 6
EndSplineSet
Fore
SplineSet
67 317 m 6xe8
 67 327 62.345703125 329.044921875 57.5986328125 329.044921875 c 4
 51.5986328125 329.044921875 47.3994140625 325.612304688 36.55859375 325.612304688 c 4
 16.9541015625 325.612304688 6.72265625 337.1875 6.72265625 353.2265625 c 4
 6.72265625 369.266601562 21.0283203125 383 48 383 c 4
 73.0283203125 383 83 381 107 381 c 4
 130 381 139 383 160 383 c 4
 179 383 189 374 189 348 c 6
 189 66 l 6xe8
 189 59 192.252929688 54.0380859375 197 54.0380859375 c 4xf0
 203 54.0380859375 206.19921875 57.470703125 217.040039062 57.470703125 c 4
 236.64453125 57.470703125 246.875976562 45.8955078125 246.875976562 29.8564453125 c 4
 246.875976562 13.81640625 238.233398438 0 204.626953125 0 c 4
 171.01953125 0 161.921875 3.609375 126.297851562 3.609375 c 4
 90.6748046875 3.609375 84.607421875 0 51 0 c 4
 17.39453125 0 8.72265625 13.81640625 8.72265625 29.8564453125 c 4
 8.72265625 45.8955078125 18.982421875 57.470703125 38.5869140625 57.470703125 c 4
 49.5791015625 57.470703125 53 53.9033203125 59 53.9033203125 c 4
 63.75390625 53.9033203125 67 57 67 66 c 6
 67 317 l 6xe8
45.7880859375 468.924804688 m 0xf0
 45.7880859375 514.4609375 102.567382812 556.4296875 147.721679688 556.4296875 c 0
 180 556.4296875 197 535.536132812 197 510 c 0
 197 464.462890625 143.220703125 422.495117188 98.06640625 422.495117188 c 0
 59 422.495117188 45.7880859375 443.387695312 45.7880859375 468.924804688 c 0xf0
EndSplineSet
EndChar

StartChar: j
Encoding: 106 106 53
Width: 245
Flags: W
HStem: -140 71<-41.2616 44.3159> 325.529 57.4707<-1.37274 56 178 234.974> 422.495 133.935<87.5096 157.058>
VStem: 45.7881 151.212<460.559 518.191> 56 122<-17.8722 328.946>
LayerCount: 2
Fore
SplineSet
45.7880859375 468.924804688 m 0xf0
 45.7880859375 514.4609375 102.567382812 556.4296875 147.721679688 556.4296875 c 0
 180 556.4296875 197 535.536132812 197 510 c 0
 197 464.462890625 143.220703125 422.495117188 98.06640625 422.495117188 c 0
 59 422.495117188 45.7880859375 443.387695312 45.7880859375 468.924804688 c 0xf0
178 317 m 2xe8
 178 68 l 2
 178 -37 81 -140 -4 -140 c 4
 -35 -140 -64 -124 -64 -91 c 0
 -64 -73.052734375 -50.892578125 -56 -28 -56 c 0
 -5 -56 -2 -69 17 -69 c 0
 33.98046875 -69 56 -50 56 19 c 2
 56 317 l 2
 56 326 52.75390625 329.096679688 48 329.096679688 c 0
 42 329.096679688 38.5791015625 325.529296875 27.5869140625 325.529296875 c 0
 7.982421875 325.529296875 -2.27734375 337.104492188 -2.27734375 353.143554688 c 0
 -2.27734375 369.18359375 6.39453125 383 40 383 c 0
 73.607421875 383 79.6748046875 379.390625 115.297851562 379.390625 c 0
 150.921875 379.390625 160.01953125 383 193.626953125 383 c 0
 227.233398438 383 235.875976562 369.18359375 235.875976562 353.143554688 c 0
 235.875976562 337.104492188 225.64453125 325.529296875 206.040039062 325.529296875 c 0
 195.19921875 325.529296875 192 328.961914062 186 328.961914062 c 0
 181.252929688 328.961914062 178 324 178 317 c 2xe8
EndSplineSet
EndChar

StartChar: k
Encoding: 107 107 54
Width: 507
Flags: W
HStem: 0 53.9033<13.709 71 193 248.891 266.295 305.999 426.338 492.974> 209 39.9648<193.077 231.482> 310 82<345.013 436.122> 545.129 54.0381<13.7074 71>
VStem: 71 122<54.05 208.993 248.972 545.126>
LayerCount: 2
Fore
SplineSet
304 65.474609375 m 2
 230 194 l 2
 224.182037187 204.104810044 220 209 211 209 c 0
 199.302734375 209 193 199.253984127 193 187 c 2
 193 66 l 2
 193 58.4345503885 195.572769792 54.0380859375 200 54.0380859375 c 0
 208.420410156 54.0380859375 211.619628906 57.470703125 220.040039062 57.470703125 c 0
 238.522724582 57.470703125 249.875976562 46.9628507339 249.875976562 29.8564453125 c 0
 249.875976562 9.77496673692 236.043693635 0 207.626953125 0 c 0
 173.011230469 0 169.9140625 3.609375 135.297851562 3.609375 c 0
 100.682617188 3.609375 89.615234375 0 55 0 c 0
 26.5771599158 0 12.72265625 9.78411116542 12.72265625 29.8564453125 c 0
 12.72265625 46.9540075735 24.0962484508 57.470703125 42.5869140625 57.470703125 c 0
 51.0830078125 57.470703125 54.50390625 53.9033203125 63 53.9033203125 c 0
 67.8474908618 53.9033203125 71 57.0939274005 71 62 c 2
 71 533 l 2
 71 541.505009029 68.4898238495 545.12890625 62.5986328125 545.12890625 c 0
 54.1782226562 545.12890625 50.9790039062 541.696289062 42.55859375 541.696289062 c 0
 24.0759082305 541.696289062 12.72265625 552.204141454 12.72265625 569.310546875 c 0
 12.72265625 589.392025451 26.5549391774 599.166992188 54.9716796875 599.166992188 c 0
 86.275390625 599.166992188 90.6962890625 597.083984375 122 597.083984375 c 0
 137.4375 597.083984375 143.533691406 599.166992188 158.971679688 599.166992188 c 0
 180.688763531 599.166992188 193 586.443791255 193 564 c 2
 193 267 l 2
 193 258.547596557 195 248.964769512 202.999999877 248.964769512 c 0
 210.999999755 248.964769512 214.516675526 252.24953196 223 260 c 2
 331.567382812 359.188476562 l 2
 357.831944708 383.184098585 380 392 410 392 c 0
 453 392 472 365.888498154 472 334 c 0
 472 304.572218706 453.680027307 287 423 287 c 0
 394 287 380 310 351 310 c 0
 332.365234375 310 323 296 323 284 c 0
 323 268.748046875 330.8649728 253.324836887 346 225 c 2
 431.693359375 64.626953125 l 2
 435.5979912 57.3195292214 438 54.0380859375 443 54.0380859375 c 0
 450 54.0380859375 453.19921875 57.470703125 464.040039062 57.470703125 c 0
 483.64453125 57.470703125 493.875976562 45.8955078125 493.875976562 29.8564453125 c 0
 493.875976562 13.81640625 485.233398438 0 451.626953125 0 c 0
 418.01953125 0 406 3.609375 380.297851562 3.609375 c 0
 356 3.609375 344.607421875 0 311 0 c 0
 277.39453125 0 264 12 264 37 c 0
 264 47 271 55.470703125 284 55.470703125 c 0
 289.579101562 55.470703125 293 53.9033203125 299 53.9033203125 c 0
 304 53.9033203125 306 56 306 59 c 0
 306 61 305.070059093 63.6160990644 304 65.474609375 c 2
EndSplineSet
EndChar

StartChar: l
Encoding: 108 108 55
Width: 256
Flags: W
HStem: 0 53.9033<9.62726 67 189 245.974> 545.212 53.9551<7.98214 67>
VStem: 67 122<54.0546 545.21>
LayerCount: 2
Fore
SplineSet
67 533.166992188 m 2
 67 543.166992188 62.345703125 545.211914062 57.5986328125 545.211914062 c 0
 51.5986328125 545.211914062 47.3994140625 541.779296875 36.55859375 541.779296875 c 0
 16.9541015625 541.779296875 6.72265625 553.354492188 6.72265625 569.393554688 c 0
 6.72265625 585.43359375 21.0283203125 599.166992188 48 599.166992188 c 0
 73.0283203125 599.166992188 83 597.166992188 107 597.166992188 c 0
 130 597.166992188 139 599.166992188 160 599.166992188 c 0
 179 599.166992188 189 590.166992188 189 564.166992188 c 2
 189 66 l 2
 189 59.0112268997 192.252929688 54.0380859375 197 54.0380859375 c 0
 203 54.0380859375 206.19921875 57.470703125 217.040039062 57.470703125 c 0
 236.64453125 57.470703125 246.875976562 45.8955078125 246.875976562 29.8564453125 c 0
 246.875976562 13.81640625 238.233398438 0 204.626953125 0 c 0
 171.01953125 0 161.921875 3.609375 126.297851562 3.609375 c 0
 90.6748046875 3.609375 84.607421875 0 51 0 c 0
 17.39453125 0 8.72265625 13.81640625 8.72265625 29.8564453125 c 0
 8.72265625 45.8955078125 18.982421875 57.470703125 38.5869140625 57.470703125 c 0
 49.5791015625 57.470703125 53 53.9033203125 59 53.9033203125 c 0
 63.75390625 53.9033203125 67 57.0164065918 67 66 c 2
 67 533.166992188 l 2
EndSplineSet
EndChar

StartChar: m
Encoding: 109 109 56
Width: 747
Flags: W
HStem: 0 57.4707<5.62726 63 184 227.996 270.605 315 435 479.395 521.605 566 686 742.974> 327 65<221.176 334.989 448.165 586.989> 327 33<200 229.375> 328.962 54.0381<5.62504 63>
VStem: 63 121<54.0527 315.32> 315 120<53.9063 306.474> 566 120<54.0527 305.117>
LayerCount: 2
Fore
SplineSet
63 68 m 2xce
 63 317.833007812 l 2
 63 328 59.345703125 328.961914062 54.5986328125 328.961914062 c 0
 48.5986328125 328.961914062 45.3994140625 325.529296875 34.55859375 325.529296875 c 0
 14.9541015625 325.529296875 4.72265625 337.104492188 4.72265625 353.143554688 c 0
 4.72265625 369.18359375 13.3935546875 383 47 383 c 0
 80.607421875 383 85 380.916992188 109 380.916992188 c 0
 132 380.916992188 142 383 164 383 c 0x9e
 180 383 185.108398438 380 185.108398438 373 c 0
 185.108398438 365 188 360 200 360 c 4xae
 222 360 223 392 300 392 c 0
 375 392 392.541992188 354 412 354 c 0
 435 354 453 392 551 392 c 0
 628 392 686 338 686 248 c 2
 686 66 l 2
 686 59 689.252929688 54.0380859375 694 54.0380859375 c 0
 700 54.0380859375 703.19921875 57.470703125 714.040039062 57.470703125 c 0
 733.64453125 57.470703125 743.875976562 45.8955078125 743.875976562 29.8564453125 c 0
 743.875976562 13.81640625 735.233398438 0 701.626953125 0 c 0
 668.01953125 0 661.921875 3.609375 626.297851562 3.609375 c 0
 590.674804688 3.609375 596.607421875 0 563 0 c 0
 529.39453125 0 520.72265625 13.81640625 520.72265625 29.8564453125 c 0
 520.72265625 45.8955078125 527.982421875 57.470703125 540.586914062 57.470703125 c 0
 551.579101562 57.470703125 555 53.9033203125 561 53.9033203125 c 0
 565.75390625 53.9033203125 566 58 566 68 c 2
 566 228 l 2
 566 309 530 327 494 327 c 0
 458 327 435 304 435 266 c 2
 435 66 l 2
 435 56 435.24609375 53.9033203125 440 53.9033203125 c 0
 446 53.9033203125 449.420898438 57.470703125 460.413085938 57.470703125 c 0
 473.017578125 57.470703125 480.27734375 45.8955078125 480.27734375 29.8564453125 c 0
 480.27734375 13.81640625 471.60546875 0 438 0 c 0
 404.392578125 0 410.920898438 3.609375 375.297851562 3.609375 c 0
 339.674804688 3.609375 345.607421875 0 312 0 c 0
 278.39453125 0 269.72265625 13.81640625 269.72265625 29.8564453125 c 0
 269.72265625 45.8955078125 276.982421875 57.470703125 289.586914062 57.470703125 c 0
 300.579101562 57.470703125 304 53.9033203125 310 53.9033203125 c 0
 314.75390625 53.9033203125 315 58 315 68 c 2
 315 228 l 2
 315 309 279 327 243 327 c 0
 207 327 184 304 184 266 c 2
 184 66 l 2
 184 59 184.252929688 54.0380859375 189 54.0380859375 c 0
 195 54.0380859375 198.19921875 57.470703125 209.040039062 57.470703125 c 0
 221.64453125 57.470703125 228.875976562 45.8955078125 228.875976562 29.8564453125 c 0
 228.875976562 13.81640625 220.233398438 0 186.626953125 0 c 0
 153.01953125 0 162.921875 3.609375 127.297851562 3.609375 c 0
 91.6748046875 3.609375 80.607421875 0 47 0 c 0
 13.39453125 0 4.72265625 13.81640625 4.72265625 29.8564453125 c 0
 4.72265625 45.8955078125 14.982421875 57.470703125 34.5869140625 57.470703125 c 0
 45.5791015625 57.470703125 49 53.9033203125 55 53.9033203125 c 0
 59.75390625 53.9033203125 63 58 63 68 c 2xce
EndSplineSet
EndChar

StartChar: n
Encoding: 110 110 57
Width: 502
Flags: W
HStem: 0 57.4707<5.62726 63 184 227.996 274.605 319 439 495.974> 322 33<200 227.715> 328.962 54.0381<5.62504 63>
VStem: 63 121<54.0527 310.32> 319 120<54.0527 297.319>
AnchorPoint: "Anchor-0" 246 383.083 basechar 0
LayerCount: 2
Fore
SplineSet
319 68 m 2xd8
 319 223 l 2
 319 304 279 322 243 322 c 0xd8
 207 322 184 299 184 261 c 2
 184 66 l 2
 184 59 184.252929688 54.0380859375 189 54.0380859375 c 0
 195 54.0380859375 198.19921875 57.470703125 209.040039062 57.470703125 c 0
 221.64453125 57.470703125 228.875976562 45.8955078125 228.875976562 29.8564453125 c 0
 228.875976562 13.81640625 220.233398438 0 186.626953125 0 c 0
 153.01953125 0 162.921875 3.609375 127.297851562 3.609375 c 0
 91.6748046875 3.609375 80.607421875 0 47 0 c 0
 13.39453125 0 4.72265625 13.81640625 4.72265625 29.8564453125 c 0
 4.72265625 45.8955078125 14.982421875 57.470703125 34.5869140625 57.470703125 c 0
 45.5791015625 57.470703125 49 53.9033203125 55 53.9033203125 c 0
 59.75390625 53.9033203125 63 58 63 68 c 2
 63 316.833007812 l 2
 63 327 59.345703125 328.961914062 54.5986328125 328.961914062 c 0
 48.5986328125 328.961914062 45.3994140625 325.529296875 34.55859375 325.529296875 c 0
 14.9541015625 325.529296875 4.72265625 337.104492188 4.72265625 353.143554688 c 0
 4.72265625 369.18359375 13.3935546875 383 47 383 c 0
 80.607421875 383 85 380.916992188 109 380.916992188 c 0
 132 380.916992188 142 383 164 383 c 0xb8
 180 383 185.108398438 377 185.108398438 370 c 0
 185.108398438 362 188 355 200 355 c 0
 222 355 227 392 304 392 c 0
 381 392 439 333 439 243 c 2
 439 66 l 2
 439 59 442.252929688 54.0380859375 447 54.0380859375 c 0
 453 54.0380859375 456.19921875 57.470703125 467.040039062 57.470703125 c 0
 486.64453125 57.470703125 496.875976562 45.8955078125 496.875976562 29.8564453125 c 0
 496.875976562 13.81640625 488.233398438 0 454.626953125 0 c 0
 421.01953125 0 414.921875 3.609375 379.297851562 3.609375 c 0
 343.674804688 3.609375 349.607421875 0 316 0 c 0
 282.39453125 0 273.72265625 13.81640625 273.72265625 29.8564453125 c 0
 273.72265625 45.8955078125 280.982421875 57.470703125 293.586914062 57.470703125 c 0
 304.579101562 57.470703125 308 53.9033203125 314 53.9033203125 c 0
 318.75390625 53.9033203125 319 58 319 68 c 2xd8
EndSplineSet
EndChar

StartChar: o
Encoding: 111 111 58
Width: 456
Flags: W
HStem: -4.31641 51.2002<181.35 269.65> 340.8 51.2002<181.35 269.65>
VStem: 16.5 132.4<101.768 284.68> 302.1 132.4<101.768 284.68>
AnchorPoint: "Anchor-0" 226 383.083 basechar 0
LayerCount: 2
Fore
SplineSet
225.5 340.799804688 m 0
 177.900390625 340.799804688 148.900390625 291 148.900390625 193 c 4
 148.900390625 95 177.900390625 46.8837890625 225.5 46.8837890625 c 0
 273.099609375 46.8837890625 302.099609375 95 302.099609375 193 c 4
 302.099609375 291 273.099609375 340.799804688 225.5 340.799804688 c 0
225.5 392 m 0
 344.5 392 434.5 313 434.5 193 c 4
 434.5 73 344.5 -4.31640625 225.5 -4.31640625 c 0
 106.5 -4.31640625 16.5 73 16.5 193 c 4
 16.5 313 106.5 392 225.5 392 c 0
EndSplineSet
EndChar

StartChar: p
Encoding: 112 112 59
Width: 504
Flags: W
HStem: -115.917 53.9033<5.62726 63 191 244.974> 14 32<206.173 255.851> 328.962 54.0381<5.62504 63> 330 28<207.144 226.503>
VStem: 63 125<-61.8643 13.9949 57.6712 318.782> 338 143<94.3164 288.489>
LayerCount: 2
Fore
SplineSet
338 185 m 0xdc
 338 270 310.870117188 330 252.459960938 330 c 0
 198.474609375 330 188 299 188 256 c 2
 188 138 l 2
 188 68.1818475002 203.755073473 46 253.344726562 46 c 0
 309.985351562 46 338 126 338 185 c 0xdc
191 -49.9169921875 m 2
 191 -56.9169921875 191.252929688 -61.87890625 196 -61.87890625 c 0
 202 -61.87890625 205.19921875 -58.4462890625 216.040039062 -58.4462890625 c 0
 235.64453125 -58.4462890625 245.875976562 -70.021484375 245.875976562 -86.060546875 c 0
 245.875976562 -102.100585938 237.233398438 -115.916992188 203.626953125 -115.916992188 c 0
 170.01953125 -115.916992188 160.921875 -112.307617188 125.297851562 -112.307617188 c 0
 89.6748046875 -112.307617188 80.607421875 -115.916992188 47 -115.916992188 c 0
 13.39453125 -115.916992188 4.72265625 -102.100585938 4.72265625 -86.060546875 c 0
 4.72265625 -70.021484375 14.982421875 -58.4462890625 34.5869140625 -58.4462890625 c 0
 45.5791015625 -58.4462890625 49 -62.013671875 55 -62.013671875 c 0
 59.75390625 -62.013671875 63 -57.9169921875 63 -47.9169921875 c 2
 63 317 l 2
 63 327 59.345703125 328.961914062 54.5986328125 328.961914062 c 0
 48.5986328125 328.961914062 45.3994140625 325.529296875 34.55859375 325.529296875 c 0
 14.9541015625 325.529296875 4.72265625 337.104492188 4.72265625 353.143554688 c 0
 4.72265625 369.18359375 13.3935546875 383 47 383 c 0
 80.607421875 383 85 380.916992188 109 380.916992188 c 0
 132 380.916992188 142 383 164 383 c 0xec
 180 383 185.108398438 379 185.108398438 372 c 0
 185.108398438 364 188 358 200 358 c 0
 223 358 225 392 306 392 c 0
 430 392 481 306 481 188 c 0
 481 70 409 -4.31640625 288 -4.31640625 c 0
 235 -4.31640625 215 14 203 14 c 0
 191 14 191 7 191 -9 c 2
 191 -49.9169921875 l 2
EndSplineSet
EndChar

StartChar: q
Encoding: 113 113 60
Width: 504
Flags: W
HStem: -115.917 53.9033<438.723 496.095> 14 32<245.872 295.55> 328.962 54.0381<438.723 496.098> 330 28<275.22 289.518>
VStem: 20.7227 143<94.3164 288.489> 313.723 125<-62.0107 13.9949 57.6712 314.746>
LayerCount: 2
Back
SplineSet
163.72265625 185 m 4
 163.72265625 126 191.737304688 46 248.377929688 46 c 4
 297.967773438 46 313.72265625 68.181640625 313.72265625 138 c 6
 313.72265625 256 l 6
 313.72265625 299 303.248046875 335 249.262695312 335 c 4
 190.852539062 335 163.72265625 270 163.72265625 185 c 4
310.72265625 -49.9169921875 m 6
 310.72265625 -9 l 6
 310.72265625 7 310.72265625 14 298.72265625 14 c 4
 286.72265625 14 266.72265625 -4.31640625 213.72265625 -4.31640625 c 4
 92.72265625 -4.31640625 20.72265625 70 20.72265625 188 c 4
 20.72265625 306 71.72265625 397 195.72265625 397 c 4
 276.72265625 397 278.72265625 365 301.72265625 365 c 4
 313.72265625 365 316.614257812 372 316.614257812 380 c 4
 316.614257812 387 321.72265625 397 337.72265625 397 c 4
 359.72265625 397 369.72265625 394.916992188 392.72265625 394.916992188 c 4
 416.72265625 394.916992188 421.115234375 397 454.72265625 397 c 4
 488.329101562 397 497 383.18359375 497 367.143554688 c 4
 497 351.104492188 486.768554688 339.529296875 467.1640625 339.529296875 c 4
 456.323242188 339.529296875 453.124023438 342.961914062 447.124023438 342.961914062 c 4
 442.376953125 342.961914062 438.72265625 341 438.72265625 331 c 6
 438.72265625 -47.9169921875 l 6
 438.72265625 -57.9169921875 441.96875 -62.013671875 446.72265625 -62.013671875 c 4
 452.72265625 -62.013671875 456.143554688 -58.4462890625 467.135742188 -58.4462890625 c 4
 486.740234375 -58.4462890625 497 -70.021484375 497 -86.060546875 c 4
 497 -102.100585938 488.328125 -115.916992188 454.72265625 -115.916992188 c 4
 421.115234375 -115.916992188 412.047851562 -112.307617188 376.424804688 -112.307617188 c 4
 340.80078125 -112.307617188 331.703125 -115.916992188 298.095703125 -115.916992188 c 4
 264.489257812 -115.916992188 255.846679688 -102.100585938 255.846679688 -86.060546875 c 4
 255.846679688 -70.021484375 266.078125 -58.4462890625 285.682617188 -58.4462890625 c 4
 296.5234375 -58.4462890625 299.72265625 -61.87890625 305.72265625 -61.87890625 c 4
 310.469726562 -61.87890625 310.72265625 -56.9169921875 310.72265625 -49.9169921875 c 6
EndSplineSet
Fore
SplineSet
163.72265625 185 m 0xdc
 163.72265625 126 191.737304688 46 248.377929688 46 c 0
 297.967773438 46 313.72265625 68.181640625 313.72265625 138 c 2
 313.72265625 242 l 2
 313.72265625 285 303.248046875 330 249.262695312 330 c 0
 190.852539062 330 163.72265625 270 163.72265625 185 c 0xdc
310.72265625 -88 m 2
 310.72265625 -9 l 2
 310.72265625 7 310.72265625 14 298.72265625 14 c 0
 286.72265625 14 266.72265625 -4.31640625 213.72265625 -4.31640625 c 0
 92.72265625 -4.31640625 20.72265625 70 20.72265625 188 c 0
 20.72265625 306 71.72265625 392 195.72265625 392 c 0
 276.72265625 392 278.72265625 358 301.72265625 358 c 4xdc
 313.72265625 358 316.614257812 363 316.614257812 371 c 0
 316.614257812 378 321.72265625 383 337.72265625 383 c 0
 359.72265625 383 369.72265625 380.916992188 392.72265625 380.916992188 c 0
 416.72265625 380.916992188 421.115234375 383 454.72265625 383 c 0
 488.329101562 383 497 369.18359375 497 353.143554688 c 0
 497 337.104492188 486.768554688 325.529296875 467.1640625 325.529296875 c 0
 456.323242188 325.529296875 453.124023438 328.961914062 447.124023438 328.961914062 c 0xec
 442.376953125 328.961914062 438.72265625 327 438.72265625 317 c 2
 438.72265625 -47.9169921875 l 2
 438.72265625 -57.9169921875 441.96875 -62.013671875 446.72265625 -62.013671875 c 0
 452.72265625 -62.013671875 456.143554688 -58.4462890625 467.135742188 -58.4462890625 c 0
 486.740234375 -58.4462890625 497 -70.021484375 497 -86.060546875 c 0
 497 -102.100585938 488.328125 -115.916992188 454.72265625 -115.916992188 c 0
 433.991994543 -115.916992188 428.398800089 -112.307617188 406.424804688 -112.307617188 c 0
 381.715965332 -112.307617188 375.405826692 -115.916992188 338 -115.916992188 c 0
 319.186042165 -115.916992188 310.72265625 -105 310.72265625 -88 c 2
EndSplineSet
EndChar

StartChar: r
Encoding: 114 114 61
Width: 366
Flags: W
HStem: 0 53.9033<5.62726 63 184 237.974> 282 110<271.237 347.717> 325.529 57.4707<5.62504 63> 327 33<195.5 228.625>
VStem: 63 121<54.0546 319.854>
LayerCount: 2
Fore
SplineSet
234 327 m 0x98
 198 327 184 304 184 266 c 2
 184 66 l 2
 184 59 184.252929688 54.0380859375 189 54.0380859375 c 0
 195 54.0380859375 198.19921875 57.470703125 209.040039062 57.470703125 c 0
 228.64453125 57.470703125 238.875976562 45.8955078125 238.875976562 29.8564453125 c 0
 238.875976562 13.81640625 230.233398438 0 196.626953125 0 c 0
 163.01953125 0 162.921875 3.609375 127.297851562 3.609375 c 0
 91.6748046875 3.609375 80.607421875 0 47 0 c 0
 13.39453125 0 4.72265625 13.81640625 4.72265625 29.8564453125 c 0
 4.72265625 45.8955078125 14.982421875 57.470703125 34.5869140625 57.470703125 c 0
 45.5791015625 57.470703125 49 53.9033203125 55 53.9033203125 c 0
 59.75390625 53.9033203125 63 58.0589053849 63 68 c 2
 63 330.833007812 l 2
 63 340.833007812 59.345703125 328.961914062 54.5986328125 328.961914062 c 0
 48.5986328125 328.961914062 45.3994140625 325.529296875 34.55859375 325.529296875 c 0
 14.9541015625 325.529296875 4.72265625 337.104492188 4.72265625 353.143554688 c 0
 4.72265625 369.18359375 13.3935546875 383 47 383 c 0
 80.607421875 383 85 380.916992188 109 380.916992188 c 0
 132 380.916992188 142 383 164 383 c 0xa8
 180 383 185.108398438 379 185.108398438 372 c 0
 185.108398438 364 188 360 200 360 c 4x98
 222 360 224 392 291 392 c 0
 333 392 362 370 362 332 c 0
 362 312 349 282 313 282 c 0xc8
 268 282 270 327 234 327 c 0x98
EndSplineSet
EndChar

StartChar: s
Encoding: 115 115 62
Width: 307
Flags: W
HStem: -4.31641 56.3164<128.4 195.212> 342 50<110.544 169.981>
VStem: 17.8682 92<236.366 339.031> 196.868 94<54.3969 164.377>
LayerCount: 2
Fore
SplineSet
22.8681640625 79 m 0
 22.8681640625 100 34 118 61.8681640625 118 c 0
 115.868164062 118 120.868164062 52 167.868164062 52 c 0
 185.868164062 52 196.868164062 66 196.868164062 82 c 0
 196.868164062 106.279080324 163.221679688 116.65625 125.103515625 136 c 4
 75.3017578125 161.2734375 17.8681640625 194.732421875 17.8681640625 278 c 0
 17.8681640625 344 85 392 151 392 c 0
 217 392 249.58984375 367.150390625 249.58984375 337.044921875 c 0
 249.58984375 318.08984375 236.209960938 300.25 213.91015625 300.25 c 0
 176 300.25 161.868164062 342 133.868164062 342 c 0
 119.868164062 342 109.868164062 335 109.868164062 323 c 0
 109.868164062 293.0625 149.47265625 283.505859375 191.629882812 263 c 4
 239.596679688 239.668945312 290.868164062 207.753565866 290.868164062 121 c 0
 290.868164062 44 218 -4.31640625 150 -4.31640625 c 0
 85.1318359375 -4.31640625 22.8681640625 35 22.8681640625 79 c 0
EndSplineSet
EndChar

StartChar: t
Encoding: 116 116 63
Width: 293
Flags: W
HStem: 0 53.9033<17.6273 75.415 197.415 253.974> 322 61<12.82 74.7109 197.623 275.894>
VStem: 75.415 122<54.0421 325.984> 106 88<427.264 562.039> 113 70<390.516 507.266>
LayerCount: 2
Fore
SplineSet
197.415039062 66 m 2xe0
 197.415039062 59.5810546875 200.252929688 54.0380859375 205 54.0380859375 c 0
 211 54.0380859375 214.19921875 57.470703125 225.040039062 57.470703125 c 0
 244.64453125 57.470703125 254.875976562 45.8955078125 254.875976562 29.8564453125 c 0
 254.875976562 13.81640625 246.233398438 0 212.626953125 0 c 0
 179.01953125 0 169.921875 3.609375 134.297851562 3.609375 c 0
 98.6748046875 3.609375 92.607421875 0 59 0 c 0
 25.39453125 0 16.72265625 13.81640625 16.72265625 29.8564453125 c 0
 16.72265625 45.8955078125 26.982421875 57.470703125 46.5869140625 57.470703125 c 0
 57.5791015625 57.470703125 61 53.9033203125 67 53.9033203125 c 0
 71.75390625 53.9033203125 75.4150390625 57.6298828125 75.4150390625 67 c 2
 75.4150390625 307 l 2xe0
 75.4150390625 323 69 328 62.4150390625 328 c 0
 56.849609375 328 51.4150390625 325.48046875 42.4150390625 325.48046875 c 0
 25 325.48046875 11.4150390625 334 11.4150390625 354 c 0
 11.4150390625 376 27.7509765626 382.999919563 52 383 c 0
 98 383.000152588 113 402 113 426 c 4xc8
 113 453 106 477.555664062 106 509 c 0
 106 544 122 569 151.415039062 569 c 0
 182.415039062 569 194 540 194 509 c 0xd0
 194 472 183 436 183 405 c 0xc8
 183 389 194 378 213 378 c 0
 224.415039062 378 234 383 247 383 c 0
 265 383 277 372 277 352 c 0
 277 332 264 322 247 322 c 0
 234 322 226 326 218 326 c 0
 204 326 197.415039062 318 197.415039062 294 c 2
 197.415039062 66 l 2xe0
EndSplineSet
EndChar

StartChar: u
Encoding: 117 117 64
Width: 502
Flags: W
HStem: 0 54.0381<438.599 495.974> 32 33.6836<272.7 301.599> 338.646 54.0381<8.62504 62.5986 263.625 317.599>
VStem: 62.5986 120<90.4911 338.642> 317.599 121<77.3634 338.642>
AnchorPoint: "Anchor-0" 220 383.083 basechar 0
LayerCount: 2
Fore
SplineSet
182.598632812 364.68359375 m 2x78
 182.598632812 164.68359375 l 2
 183 84 222.598632812 65.68359375 258.598632812 65.68359375 c 0x78
 294.598632812 65.68359375 317.598632812 88.68359375 317.598632812 126.68359375 c 2
 317.598632812 326.68359375 l 2
 317.598632812 333.68359375 317.345703125 338.645507812 312.598632812 338.645507812 c 0
 306.598632812 338.645507812 303.399414062 335.212890625 292.55859375 335.212890625 c 0
 272.954101562 335.212890625 262.72265625 346.788085938 262.72265625 362.827148438 c 0
 262.72265625 378.8671875 271.365234375 392.68359375 304.971679688 392.68359375 c 0
 331.307821295 392.68359375 331.384348702 389.07421875 359.30078125 389.07421875 c 0
 384.591516947 389.07421875 391.738898774 392.68359375 415.598632812 392.68359375 c 0
 433.405060043 392.68359375 438.598632812 382.138121168 438.598632812 364.68359375 c 2
 438.598632812 66.1669921875 l 6
 438.598632812 56.1669921875 442.252929688 54.0380859375 447 54.0380859375 c 4
 453 54.0380859375 456.19921875 57.470703125 467.040039062 57.470703125 c 4
 486.64453125 57.470703125 496.875976562 45.8955078125 496.875976562 29.8564453125 c 4
 496.875976562 13.81640625 488.205078125 0 454.598632812 0 c 4
 420.991210938 0 416.598632812 2.0830078125 392.598632812 2.0830078125 c 4
 369.598632812 2.0830078125 359.598632812 0 337.598632812 0 c 4xb8
 321.598632812 0 316.490234375 10 316.490234375 17 c 4
 316.490234375 25 313.598632812 32 301.598632812 32 c 4
 279.598632812 32 274.598632812 -4.31640625 197.598632812 -4.31640625 c 0
 120.598632812 -4.31640625 63 55 62.5986328125 144.68359375 c 2
 62.5986328125 326.68359375 l 2
 62.5986328125 334 62.345703125 338.645507812 57.5986328125 338.645507812 c 0
 51.5986328125 338.645507812 48.3994140625 335.212890625 37.55859375 335.212890625 c 0
 17.9541015625 335.212890625 7.72265625 346.788085938 7.72265625 362.827148438 c 0
 7.72265625 378.8671875 16.365234375 392.68359375 49.9716796875 392.68359375 c 0
 76.3076171875 392.68359375 76.384765625 389.07421875 104.30078125 389.07421875 c 0
 129.591796875 389.07421875 136.739257812 392.68359375 160.598632812 392.68359375 c 0
 178.405273438 392.68359375 183 382 182.598632812 364.68359375 c 2x78
EndSplineSet
EndChar

StartChar: v
Encoding: 118 118 65
Width: 474
Flags: W
HStem: 325.529 57.4707<5.67431 63.7876 198.001 253.818 296.439 339.626 406.737 468.727>
LayerCount: 2
Fore
SplineSet
393 271 m 6
 278 25 l 6
 261.140112014 -11.0654995186 251 -16 237 -16 c 4
 223 -16 210.45729436 -9.18917412038 194 26 c 6
 71 289 l 6
 57.5134522764 317.837089848 53.0283203125 328.961914062 44.626953125 328.961914062 c 4
 38.626953125 328.961914062 35.427734375 325.529296875 24.5869140625 325.529296875 c 4
 14 325.529296875 4.7509765625 337.104492188 4.7509765625 353.143554688 c 4
 4.7509765625 369.18359375 13.3935546875 383 47 383 c 4
 80.607421875 383 82.705078125 379.390625 123.329101562 379.390625 c 4
 163.952148438 379.390625 176.01953125 383 209.626953125 383 c 4
 243.232421875 383 254.904296875 369.18359375 254.904296875 353.143554688 c 4
 254.904296875 337.104492188 244.64453125 325.529296875 225.040039062 325.529296875 c 4
 214.047851562 325.529296875 212.626953125 329.096679688 206.626953125 329.096679688 c 4
 200.028320312 329.096679688 198 325 198 320 c 4
 198 315 201.051349799 308.370361861 204 300 c 6
 235 212 l 6
 242.777502412 189.921928638 251 179 265 179 c 4
 278 179 286.12003965 192.418548971 295 212 c 6
 334 298 l 6
 339.32421875 311.875976562 339.626953125 315 339.626953125 319 c 4
 339.626953125 323 339 328.961914062 333 328.961914062 c 4
 327 328.961914062 327 325.529296875 318.586914062 325.529296875 c 4
 308 325.529296875 295.750976562 337.104492188 295.750976562 353.143554688 c 4
 295.750976562 369.18359375 301.393554688 383 335 383 c 4
 353.607421875 383 370.626953125 381.390625 382.626953125 381.390625 c 4
 393.952148438 381.390625 409.01953125 383 429.626953125 383 c 4
 457 383 469.904296875 369.18359375 469.904296875 353.143554688 c 4
 469.904296875 337.104492188 460 325.529296875 446 325.529296875 c 4
 435.0078125 325.529296875 432 329.096679688 423.626953125 329.096679688 c 4
 418 329.096679688 414.890732021 326.041952056 413 321 c 4
 407 305 404.180144018 294.915786333 393 271 c 6
EndSplineSet
EndChar

StartChar: w
Encoding: 119 119 66
Width: 722
Flags: W
HStem: 325.529 57.4707<5.67431 63.7876 198.001 253.818 264.937 312.527 446.001 501.818 544.439 587.626 654.737 716.727>
VStem: 320 126<255.005 328.954>
LayerCount: 2
Fore
SplineSet
641 271 m 2
 526 25 l 2
 509.139648438 -11.0654296875 502 -16 488 -16 c 0
 474 -16 458.457341417 -9.189308066 442 26 c 2
 379.271484375 160.126953125 l 2
 372.847025513 173.863817198 368 180 360.215820312 180 c 0
 351 180 346.973113726 172.54509716 341.498046875 160.833007812 c 2
 278 25 l 2
 261.140356808 -11.0656139537 251 -16 237 -16 c 0
 223 -16 210.45729436 -9.18917412038 194 26 c 2
 71 289 l 2
 57.5134522764 317.837089848 53.0283203125 328.961914062 44.626953125 328.961914062 c 0
 38.626953125 328.961914062 35.427734375 325.529296875 24.5869140625 325.529296875 c 0
 14 325.529296875 4.7509765625 337.104492188 4.7509765625 353.143554688 c 0
 4.7509765625 369.18359375 13.3935546875 383 47 383 c 0
 80.607421875 383 82.705078125 379.390625 123.329101562 379.390625 c 0
 163.952148438 379.390625 176.01953125 383 209.626953125 383 c 0
 243.232421875 383 254.904296875 369.18359375 254.904296875 353.143554688 c 0
 254.904296875 337.104492188 244.64453125 325.529296875 225.040039062 325.529296875 c 0
 214.047851562 325.529296875 212.626953125 329.096679688 206.626953125 329.096679688 c 0
 200.028320312 329.096679688 198 325 198 320 c 0
 198 315 201.051349799 308.370361861 204 300 c 2
 235 212 l 2
 242.777502412 189.921928638 251 179 265 179 c 0
 278 179 286.120971458 192.418126439 295 212 c 2
 309.62890625 244.262695312 l 2
 314.242147872 254.436771646 320 266 320 273 c 0
 320 277.853515625 319.901644356 284.51512534 315.399414062 296.200195312 c 0
 307 318 305 328.961914062 298 328.961914062 c 0
 292 328.961914062 290 325.529296875 284.586914062 325.529296875 c 0
 274 325.529296875 263.750976562 337.104492188 263.750976562 353.143554688 c 0
 263.750976562 369.18359375 277 383 299 383 c 0
 321 383 330.705078125 379.390625 371.329101562 379.390625 c 0
 411.952148438 379.390625 424.01953125 383 457.626953125 383 c 0
 491.232421875 383 502.904296875 369.18359375 502.904296875 353.143554688 c 0
 502.904296875 337.104492188 492.64453125 325.529296875 473.040039062 325.529296875 c 0
 462.047851562 325.529296875 460.626953125 329.096679688 454.626953125 329.096679688 c 0
 448.028320312 329.096679688 446 325 446 320 c 0
 446 315 449.051757812 308.370117188 452 300 c 2
 483 212 l 2
 490.77734375 189.921875 499 179 513 179 c 0
 526 179 534.120117188 192.418945312 543 212 c 2
 582 298 l 2
 587.32421875 311.875976562 587.626953125 315 587.626953125 319 c 0
 587.626953125 323 587 328.961914062 581 328.961914062 c 0
 575 328.961914062 575 325.529296875 566.586914062 325.529296875 c 0
 556 325.529296875 543.750976562 337.104492188 543.750976562 353.143554688 c 0
 543.750976562 369.18359375 549.393554688 383 583 383 c 0
 601.607421875 383 618.626953125 381.390625 630.626953125 381.390625 c 0
 641.952148438 381.390625 657.01953125 383 677.626953125 383 c 0
 705 383 717.904296875 369.18359375 717.904296875 353.143554688 c 0
 717.904296875 337.104492188 708 325.529296875 694 325.529296875 c 0
 683.0078125 325.529296875 680 329.096679688 671.626953125 329.096679688 c 0
 666 329.096679688 662.890625 326.041992188 661 321 c 0
 655 305 652.1796875 294.916015625 641 271 c 2
EndSplineSet
EndChar

StartChar: x
Encoding: 120 120 67
Width: 482
Flags: W
HStem: 0 57.4707<-5.23293 30.9717 38.5986 66.7505 124.601 133.599 141.599 182.971 208.627 250 258 266.998 398.642 423 430.627 471.974> 328.962 54.0381<9.62726 51 59 81.9588 209.416 254.301 262.559 286.972 294.599 302.183 366.67 392.599 400.599 437.139>
LayerCount: 2
Back
SplineSet
297.172851562 310.51953125 m 6
 49.4091796875 60.99609375 l 6xe8
 46.1259765625 57.068359375 43.345703125 54.0380859375 38.5986328125 54.0380859375 c 4xf0
 32.5986328125 54.0380859375 29.3994140625 57.470703125 18.55859375 57.470703125 c 4
 4 57.470703125 -6.27734375 45.8955078125 -6.27734375 29.8564453125 c 4
 -6.27734375 13.81640625 4 0 30.9716796875 0 c 4
 48.6259765625 0 67.587890625 3.609375 86.30078125 3.609375 c 4
 112.461914062 3.609375 116.91796875 0 141.598632812 0 c 4
 175.204101562 0 183.875976562 13.81640625 183.875976562 29.8564453125 c 4
 183.875976562 45.8955078125 173.616210938 57.470703125 154.01171875 57.470703125 c 4
 143.01953125 57.470703125 139.598632812 53.9033203125 133.598632812 53.9033203125 c 4
 127.952148438 53.9033203125 124.598632812 55 124.598632812 59 c 4
 124.598632812 61 125.73828125 63.666015625 127.598632812 66 c 6
 376.598632812 317 l 6
 382.674804688 324.262695312 387.844726562 329.096679688 392.598632812 329.096679688 c 4
 398.598632812 329.096679688 402.01953125 325.529296875 413.01171875 325.529296875 c 4
 428 325.529296875 438 337.104492188 438 353.143554688 c 4
 438 369.18359375 429 383 400.598632812 383 c 4
 375.91796875 383 371.461914062 379.390625 345.30078125 379.390625 c 4
 324.168945312 379.390625 306.907226562 383 286.971679688 383 c 4
 270 383 261.72265625 369.18359375 261.72265625 353.143554688 c 4
 261.72265625 337.104492188 270 325.529296875 281 325.529296875 c 4
 285.399414062 325.529296875 288.598632812 328.961914062 294.598632812 328.961914062 c 4
 298.598632812 328.961914062 302.185546875 326.698242188 302.185546875 322 c 4
 302.185546875 318 301.161132812 315.287109375 297.172851562 310.51953125 c 6
214.42578125 310.51953125 m 6
 210.437356142 315.286670735 209.413473111 318 209.413473111 322.000001047 c 4
 209.413473111 326.697994432 213 328.961914062 217 328.961914062 c 4
 223 328.961914062 226.19921875 325.529296875 233 325.529296875 c 4
 247 325.529296875 255 337.104492188 255 353.143554688 c 4
 255 374 244 383 217 383 c 4
 191.01953125 383 161.921875 379.390625 126.297851562 379.390625 c 4
 90.6748046875 379.390625 84.607421875 383 51 383 c 4
 17.39453125 383 8.72265625 369.18359375 8.72265625 353.143554688 c 4
 8.72265625 337.104492188 18.982421875 325.529296875 38.5869140625 325.529296875 c 4
 49.5791015625 325.529296875 53 329.096679688 59 329.096679688 c 4
 63.75390625 329.096679688 68.923828125 324.262695312 75 317 c 6
 264 66 l 6
 265.860351562 63.666015625 267 61 267 59 c 4
 267 55 263.646484375 53.9033203125 258 53.9033203125 c 4
 252 53.9033203125 248.579101562 57.470703125 237.586914062 57.470703125 c 4
 217.982421875 57.470703125 207.72265625 45.8955078125 207.72265625 29.8564453125 c 4
 207.72265625 13.81640625 216.39453125 0 250 0 c 4
 283.607421875 0 289.674804688 3.609375 325.297851562 3.609375 c 4
 360.921875 3.609375 397.01953125 0 430.626953125 0 c 4
 464.233398438 0 472.875976562 13.81640625 472.875976562 29.8564453125 c 4
 472.875976562 45.8955078125 462.64453125 57.470703125 443.040039062 57.470703125 c 4
 432.19921875 57.470703125 429 54.0380859375 423 54.0380859375 c 4xf0
 418.252929688 54.0380859375 415.47265625 57.068359375 412.189453125 60.99609375 c 6xe8
 214.42578125 310.51953125 l 6
EndSplineSet
Fore
SplineSet
214.42578125 310.51953125 m 2
 210.566878214 315.389324712 209.413473111 318 209.413473111 322.000001047 c 0
 209.413473111 326.697994432 213 328.961914062 217 328.961914062 c 0
 223 328.961914062 226.19921875 325.529296875 233 325.529296875 c 0
 247 325.529296875 255 337.104492188 255 353.143554688 c 0
 255 374 244 383 217 383 c 0
 191.01953125 383 161.921875 379.390625 126.297851562 379.390625 c 0
 90.6748046875 379.390625 84.607421875 383 51 383 c 0
 17.39453125 383 8.72265625 369.18359375 8.72265625 353.143554688 c 0
 8.72265625 337.104492188 18.982421875 325.529296875 38.5869140625 325.529296875 c 0
 49.5791015625 325.529296875 53 329.096679688 59 329.096679688 c 0
 63.75390625 329.096679688 69.3115482742 324.55464168 75 317 c 2
 149.227539062 218.420898438 l 18
 158.969473212 205.482962894 168.59375 196 168.59375 186.0625 c 0
 168.59375 176.98046875 155.833023745 168.172828043 141.896484375 154.137695312 c 10
 49.4091796875 60.99609375 l 2
 45.8153283167 57.3768178549 43.345703125 54.0380859375 38.5986328125 54.0380859375 c 0
 32.5986328125 54.0380859375 29.3994140625 57.470703125 18.55859375 57.470703125 c 0
 4 57.470703125 -6.27734375 45.8955078125 -6.27734375 29.8564453125 c 0
 -6.27734375 13.81640625 4 0 30.9716796875 0 c 0
 48.6259765625 0 67.587890625 3.609375 86.30078125 3.609375 c 0
 112.461914062 3.609375 116.91796875 0 141.598632812 0 c 0
 175.204101562 0 183.875976562 13.81640625 183.875976562 29.8564453125 c 0
 183.875976562 45.8955078125 173.616210938 57.470703125 154.01171875 57.470703125 c 0
 143.01953125 57.470703125 139.598632812 53.9033203125 133.598632812 53.9033203125 c 0
 127.952148438 53.9033203125 124.598632812 55 124.598632812 59 c 0
 124.598632812 61 125.508989032 63.8934799135 127.598632812 66 c 2
 175.603515625 114.392578125 l 2
 185.559495413 124.428964039 198 133 205.141601562 133 c 0
 213 133 221.414008096 122.558776765 230.798828125 110.094726562 c 2
 264 66 l 2
 265.794634617 63.6165322415 267 61 267 59 c 0
 267 55 263.646484375 53.9033203125 258 53.9033203125 c 0
 252 53.9033203125 248.579101562 57.470703125 237.586914062 57.470703125 c 0
 217.982421875 57.470703125 207.72265625 45.8955078125 207.72265625 29.8564453125 c 0
 207.72265625 13.81640625 216.39453125 0 250 0 c 0
 283.607421875 0 289.674804688 3.609375 325.297851562 3.609375 c 0
 360.921875 3.609375 397.01953125 0 430.626953125 0 c 0
 464.233398438 0 472.875976562 13.81640625 472.875976562 29.8564453125 c 0
 472.875976562 45.8955078125 462.64453125 57.470703125 443.040039062 57.470703125 c 0
 432.19921875 57.470703125 429 54.0380859375 423 54.0380859375 c 0
 418.252929688 54.0380859375 415.368117742 56.9855055759 412.189453125 60.99609375 c 2
 315.854492188 182.543945312 l 18
 301.038329326 201.237810413 290.59375 213.981243601 290.59375 223.248046875 c 0
 290.59375 232 299.607757772 239.389108692 313.055664062 252.9453125 c 10
 376.598632812 317 l 2
 383.243573415 323.698453065 387.844726562 329.096679688 392.598632812 329.096679688 c 0
 398.598632812 329.096679688 402.01953125 325.529296875 413.01171875 325.529296875 c 0
 428 325.529296875 438 337.104492188 438 353.143554688 c 0
 438 369.18359375 429 383 400.598632812 383 c 0
 375.91796875 383 371.461914062 379.390625 345.30078125 379.390625 c 0
 324.168945312 379.390625 306.907226562 383 286.971679688 383 c 0
 270 383 261.72265625 369.18359375 261.72265625 353.143554688 c 0
 261.72265625 337.104492188 270 325.529296875 281 325.529296875 c 0
 285.399414062 325.529296875 288.598632812 328.961914062 294.598632812 328.961914062 c 0
 298.598632812 328.961914062 302.185546875 326.698242188 302.185546875 322 c 0
 302.185546875 318 301.53727392 314.913628602 297.172851562 310.51953125 c 2
 273.905273438 287.09375 l 18
 261.949613296 275.0567998 258 270.17578125 251.15625 270.17578125 c 0
 244.997490944 270.17578125 240.220695966 277.96729921 233.139648438 286.903320312 c 10
 214.42578125 310.51953125 l 2
EndSplineSet
EndChar

StartChar: y
Encoding: 121 121 68
Width: 474
Flags: W
HStem: -140 73<86.3281 184.665> 325.529 57.4707<5.67431 63.9025 198.001 253.818 296.439 339.626 406.737 468.727>
LayerCount: 2
Fore
SplineSet
178.80859375 42.1884765625 m 2
 71 289 l 2
 57.8103614189 317.972258123 53.0283203125 328.961914062 44.626953125 328.961914062 c 0
 38.626953125 328.961914062 35.427734375 325.529296875 24.5869140625 325.529296875 c 0
 14 325.529296875 4.7509765625 337.104492188 4.7509765625 353.143554688 c 0
 4.7509765625 369.18359375 13.3935546875 383 47 383 c 0
 80.607421875 383 82.705078125 379.390625 123.329101562 379.390625 c 0
 163.952148438 379.390625 176.01953125 383 209.626953125 383 c 0
 243.232421875 383 254.904296875 369.18359375 254.904296875 353.143554688 c 0
 254.904296875 337.104492188 244.64453125 325.529296875 225.040039062 325.529296875 c 0
 214.047851562 325.529296875 212.626953125 329.096679688 206.626953125 329.096679688 c 0
 200.028320312 329.096679688 198 325 198 320 c 0
 198 315 201.051349799 308.370361861 204 300 c 2
 235 212 l 2
 242.777502412 189.921928638 251 179 265 179 c 0
 278 179 286.12003965 192.418548971 295 212 c 2
 334 298 l 2
 339.32421875 311.875976562 339.626953125 315 339.626953125 319 c 0
 339.626953125 323 339 328.961914062 333 328.961914062 c 0
 327 328.961914062 327 325.529296875 318.586914062 325.529296875 c 0
 308 325.529296875 295.750976562 337.104492188 295.750976562 353.143554688 c 0
 295.750976562 369.18359375 301.393554688 383 335 383 c 0
 353.607421875 383 370.626953125 381.390625 382.626953125 381.390625 c 0
 393.952148438 381.390625 409.01953125 383 429.626953125 383 c 0
 457 383 469.904296875 369.18359375 469.904296875 353.143554688 c 0
 469.904296875 337.104492188 460 325.529296875 446 325.529296875 c 0
 435.0078125 325.529296875 432 329.096679688 423.626953125 329.096679688 c 0
 418 329.096679688 414.890732021 326.041952056 413 321 c 0
 407 305 404.180280246 294.915722649 393 271 c 2
 254.770507812 -24.6865234375 l 2
 212.996570782 -114.045096745 182 -140 126 -140 c 4
 93 -140 60 -121 60 -87 c 0
 60 -63 77 -46 99 -46 c 0
 131 -46 128 -67 152 -67 c 0
 171 -67 195 -42 195 -14.31640625 c 0
 195 -1.91796875 190.46109747 15.5118258899 178.80859375 42.1884765625 c 2
EndSplineSet
EndChar

StartChar: z
Encoding: 122 122 69
Width: 406
Flags: W
HStem: 0 50<186.399 296.738> 333 50<126.73 220.188>
VStem: 220.195 157.805<307.727 366>
LayerCount: 2
Fore
SplineSet
156 333 m 2
 121 333 103 243.6328125 54.875 243.6328125 c 0
 24.431640625 243.6328125 20.794921875 259.41796875 20.794921875 274.075195312 c 0
 20.794921875 297.752929688 43.59765625 322.705078125 56 343 c 0
 76.0673828125 375.837890625 72 397 107 397 c 0
 138.515625 397 156 383 206 383 c 2
 339 383 l 2
 366 383 378 375 378 357 c 0
 378 339 363.575195312 315.317382812 326 265 c 10
 201 94 l 2
 190.697892274 80.2038622233 186.389689736 70.6036563117 186.389689736 63.9792726895 c 0
 186.389689736 52.5961677502 199.110847593 50 216 50 c 2
 266 50 l 2
 301 50 317 129.3671875 365.125 129.3671875 c 0
 382 129.3671875 393 120.657226562 393 106 c 0
 393 82.322265625 376.912481601 67.4132940814 365 42 c 0
 350 10 352 -20.31640625 315 -20.31640625 c 0
 276 -20.31640625 263 -9.42946892443e-15 186 0 c 2
 38 0 l 2
 21.9560546875 0 10.3720703125 7.7041015625 10.3720703125 22 c 0
 10.3720703125 32 14.6416015625 42.3017578125 25 56 c 10
 213 303 l 2
 218.004369442 309.574794087 220.195309862 315.030400371 220.195309862 319.404434038 c 0
 220.195309862 328.584040492 210.545595682 333 197 333 c 10
 156 333 l 2
EndSplineSet
EndChar

StartChar: dieresis
Encoding: 168 168 70
Width: 371
Flags: W
HStem: 470 133.935<60.8162 123.839 240.816 303.839>
VStem: 16.7217 331.212
LayerCount: 2
Fore
SplineSet
196.721679688 502.4296875 m 4
 196.721679688 547.965820312 257.500976562 589.934570312 302.655273438 589.934570312 c 4
 334.93359375 589.934570312 347.93359375 569.041015625 347.93359375 543.504882812 c 4
 347.93359375 497.967773438 287.154296875 456 242 456 c 4
 202.93359375 456 196.721679688 476.892578125 196.721679688 502.4296875 c 4
16.7216796875 502.4296875 m 4
 16.7216796875 547.965820312 77.5009765625 589.934570312 122.655273438 589.934570312 c 4
 154.93359375 589.934570312 167.93359375 569.041015625 167.93359375 543.504882812 c 4
 167.93359375 497.967773438 107.154296875 456 62 456 c 4
 22.93359375 456 16.7216796875 476.892578125 16.7216796875 502.4296875 c 4
EndSplineSet
EndChar

StartChar: germandbls
Encoding: 223 223 71
Width: 466
Flags: W
HStem: 0 53.9033<19.6273 77 199 255.974> 293 41<202.39 247.754> 377 20G<308 370.5> 548 64<199.832 273.262>
VStem: 77 122<54.054 489.463> 297 65<228.508 265.644> 311 128<36.2437 134.379>
LayerCount: 2
Fore
SplineSet
199 255.573242188 m 0xfc
 199 255.573242188 181 269 181 304 c 1
 181 339 198.471679688 354.16796875 198.471679688 354.16796875 c 5
 198.471679688 342 201 334 212 334 c 0
 242 334 271 397 345 397 c 0
 396 397 418 360 418 332 c 0
 418 269 362 263 362 241 c 0xfc
 362 221 439 230 439 124 c 0
 439 -19 270 -140 212 -140 c 0
 183 -140 171 -122 171 -105 c 0
 171 -26 311 -100 311 59 c 0xfa
 311 169 235 154 235 187 c 0
 235 211 297 228 297 262 c 0
 297 282 280 293 250 293 c 0
 208 293 199 275 199 255.573242188 c 0xfc
EndSplineSet
Refer: 101 383 N 1 0 0 1 0 0 2
EndChar

StartChar: ampersand
Encoding: 38 38 72
Width: 690
Flags: W
HStem: -12 75<241.975 342.465 499.343 580.791> 460 49<284.418 340.517> 558 34<210.266 380.346>
VStem: 49 75<383.089 484.245> 65 109<132.017 253.676> 192 92<401.342 458.935> 341 66<407.56 458.514> 540 54<205.091 400.772>
LayerCount: 2
Fore
SplineSet
204 266 m 0xef
 186 266 174 241 174 202 c 0
 174 117 254 63 306 63 c 0
 326 63 344 75 344 84 c 0
 344 99.72265625 314.323242188 127.350585938 278 174 c 0
 245.80399941 215.348857432 221.277207523 266 204 266 c 0xef
303 401 m 0
 315 401 341 420 341 434 c 0
 341 448 328 460 311 460 c 0
 294 460 284 446 284 435 c 0
 284 420 291 401 303 401 c 0
205 354 m 0
 205 363.787563509 192 381 192 405 c 0
 192 466 239.101586517 509 310 509 c 0
 368 509 407 478 407 432 c 0
 407 370 329 343 329 334 c 0
 329 317 441 150 460 150 c 0
 479 150 540 197 540 303 c 4
 540 458 416 558 299 558 c 4
 182 558 124 482 124 453 c 20
 124 424 142 420 142 397 c 20
 142 374 120 359 98 359 c 20
 76 359 49 377 49 416 c 4xf7
 49 479 119 592 301 592 c 4
 480 592 594 432 594 295 c 4
 594 172 491 108 491 98 c 0
 491 88 519 63 544 63 c 0
 591 63 582 122 626 122 c 0
 647 122 671 111 671 82 c 0
 671 38 609 -12 540 -12 c 16
 471 -12 457 26 435 26 c 16
 413 26 378 -12 268 -12 c 0
 158 -12 65 60 65 172 c 0
 65 304 205 338 205 354 c 0
EndSplineSet
Validated: 1
EndChar

StartChar: parenleft
Encoding: 40 40 73
Width: 382
Flags: W
HStem: -63 76.2266<264.83 356.05> 536.773 76.2266<264.83 356.05>
VStem: 45 162<158.782 391.218>
LayerCount: 2
Back
Fore
SplineSet
311 613 m 0
 344 613 361 596 361 570 c 0
 361 545 340 536.7734375 307 536.7734375 c 0
 240 536.7734375 207 422 207 275 c 0
 207 128 240 13.2265625 307 13.2265625 c 0
 340 13.2265625 361 5 361 -20 c 0
 361 -46 344 -63 311 -63 c 4
 190 -63 45 103 45 275 c 0
 45 447 190 613 311 613 c 0
EndSplineSet
EndChar

StartChar: g.earless
Encoding: 65537 -1 74
Width: 425
Flags: W
HStem: -140 38.7998<180.246 272.93> -10 30<187.027 228.764> 348 49<176.111 256.175>
VStem: 14 134<149.296 309.055> 128 44.1426<-94.267 -30.8321> 138 29<40 74> 283.383 112.617<-92.4056 -13.1631> 284 129<153.533 318.01>
LayerCount: 2
Fore
SplineSet
148 229 m 0xf1
 148 157 178 108 216 108 c 0
 254 108 284 157 284 229 c 0
 284 301 254 348 216 348 c 0
 178 348 148 301 148 229 c 0xf1
172.142578125 -55 m 0xea
 172.142578125 -81.48046875 186.047851562 -101.200195312 227.762695312 -101.200195312 c 0
 269.477539062 -101.200195312 283.3828125 -76.3603515625 283.3828125 -52 c 0
 283.3828125 -27 269 -10 247 -10 c 0
 224 -10 208.00032313 -16.0010156317 186 -23 c 0
 178.141601562 -25.5 172.142578125 -36 172.142578125 -55 c 0xea
14 225 m 0xf0
 14 350 126 397 216 397 c 0
 324 397 413 350 413 231 c 0
 413 117 310 77 210 65 c 0
 174.742385659 60.769086279 167 51 167 40 c 0xe5
 167 29 174 20 191 20 c 0
 212 20 246 54 306 54 c 0
 359 54 396 18 396 -31 c 0
 396 -105 328 -140 245 -140 c 4
 137 -140 128 -90 128 -66 c 0xea
 128 -44 138 -35 135 -31 c 0
 132 -27 122 -37 97 -37 c 0
 76 -37 55 -24 55 10 c 0
 55 68 138 54 138 74 c 0xe4
 138 98 14 100 14 225 c 0xf0
EndSplineSet
EndChar

StartChar: parenright
Encoding: 41 41 75
Width: 382
Flags: W
HStem: -63 76.2266<36.95 128.17> 536.773 76.2266<36.95 128.17>
VStem: 186 162<158.782 391.218>
LayerCount: 2
Fore
SplineSet
82 613 m 4
 203 613 348 447 348 275 c 4
 348 103 203 -63 82 -63 c 4
 49 -63 32 -46 32 -20 c 4
 32 5 53 13.2265625 86 13.2265625 c 4
 153 13.2265625 186 128 186 275 c 4
 186 422 153 536.7734375 86 536.7734375 c 4
 53 536.7734375 32 545 32 570 c 4
 32 596 49 613 82 613 c 4
EndSplineSet
EndChar

StartChar: slash
Encoding: 47 47 76
Width: 357
Flags: W
VStem: 37.5 64<-68.8872 40.5902>
LayerCount: 2
Fore
SplineSet
65.5 -72 m 0
 45.5 -72 37.5 -62 37.5 -36 c 0
 37.5 14 84.078125 81.2060546875 157.5 284 c 0
 227.5 477.341796875 229.5 520.513671875 255.5 584 c 0
 265.454101562 608.305664062 273.5 619 291.5 619 c 4
 310.5 619 319.5 605.083007812 319.5 588 c 0
 319.5 527 273.5 477.341796875 203.5 284 c 0
 130.078125 81.2060546875 115.5 36 101.5 -33 c 0
 96.529296875 -57.5009765625 85.5 -72 65.5 -72 c 0
EndSplineSet
EndChar

StartChar: quotesingle
Encoding: 39 39 77
Width: 151
Flags: W
HStem: 367.843 246.497<44.732 103.143>
VStem: 17.793 118.047<466.22 602.362> 43.083 62.0254<368.923 505.478>
LayerCount: 2
Fore
SplineSet
17.79296875 561.01953125 m 0xc0
 17.79296875 593.509765625 44.443359375 614.33984375 75.40625 614.33984375 c 0
 106.370117188 614.33984375 135.83984375 594.650390625 135.83984375 560.450195312 c 0xc0
 135.83984375 501.169921875 105.108398438 474 105.108398438 403.498046875 c 0
 105.108398438 387.040039062 100.10546875 367.842773438 74.095703125 367.842773438 c 0
 48.0849609375 367.842773438 43.0830078125 387.040039062 43.0830078125 404.41015625 c 0xa0
 43.0830078125 475 17.79296875 505.73046875 17.79296875 561.01953125 c 0xc0
EndSplineSet
Validated: 1
EndChar

StartChar: quotedbl
Encoding: 34 34 78
Width: 301
Flags: W
HStem: 367.843 246.497<44.732 103.143 194.732 253.143>
VStem: 17.793 118.047<466.22 602.362> 43.083 62.0254<368.923 505.478> 167.793 118.047<466.22 602.362> 193.083 62.0254<368.923 505.478>
LayerCount: 2
Fore
SplineSet
167.79296875 561.01953125 m 4x90
 167.79296875 593.509765625 194.443359375 614.33984375 225.40625 614.33984375 c 4
 256.370117188 614.33984375 285.83984375 594.650390625 285.83984375 560.450195312 c 4x90
 285.83984375 501.169921875 255.108398438 474 255.108398438 403.498046875 c 4
 255.108398438 387.040039062 250.10546875 367.842773438 224.095703125 367.842773438 c 4
 198.084960938 367.842773438 193.083007812 387.040039062 193.083007812 404.41015625 c 4x88
 193.083007812 475 167.79296875 505.73046875 167.79296875 561.01953125 c 4x90
17.79296875 561.01953125 m 0xc0
 17.79296875 593.509765625 44.443359375 614.33984375 75.40625 614.33984375 c 0
 106.370117188 614.33984375 135.83984375 594.650390625 135.83984375 560.450195312 c 0xc0
 135.83984375 501.169921875 105.108398438 474 105.108398438 403.498046875 c 0
 105.108398438 387.040039062 100.10546875 367.842773438 74.095703125 367.842773438 c 0
 48.0849609375 367.842773438 43.0830078125 387.040039062 43.0830078125 404.41015625 c 0xa0
 43.0830078125 475 17.79296875 505.73046875 17.79296875 561.01953125 c 0xc0
EndSplineSet
Validated: 1
EndChar

StartChar: asciitilde
Encoding: 126 126 79
Width: 316
Flags: W
HStem: 231.991 76.1855<171.409 261.733> 269.84 79.3438<53.9425 145.058>
VStem: 20.6367 274.948<270.012 306.74>
LayerCount: 2
Fore
SplineSet
224.326171875 308.176757812 m 4xa0
 247 308.176757812 256.088867188 328.188476562 273.227539062 328.188476562 c 4
 289.334960938 328.188476562 295.584960938 316.397460938 295.584960938 306.934570312 c 4
 295.584960938 276.875 255 231.991210938 197.319335938 231.991210938 c 0xa0
 149 231.991210938 129 269.83984375 98.1484375 269.83984375 c 0
 73.5517578125 269.83984375 61.1220703125 245.869140625 42.7568359375 245.869140625 c 0
 26.73046875 245.869140625 20.63671875 257.767578125 20.63671875 267.231445312 c 0
 20.63671875 301.955078125 58 349.18359375 114.196289062 349.18359375 c 4x60
 169 349.18359375 180 308.176757812 224.326171875 308.176757812 c 4xa0
EndSplineSet
EndChar

StartChar: asterisk
Encoding: 42 42 80
Width: 304
Flags: W
VStem: 30.1025 241.035
LayerCount: 2
Fore
SplineSet
150.620117188 579.919921875 m 24
 181.639648438 579.919921875 168.440429688 530.419921875 193.624023438 512.389648438 c 24
 218.599609375 494.120117188 261.5 521.83984375 271.137695312 492.358398438 c 24
 280.639648438 462.440429688 229.8203125 460.459960938 220.201171875 430.591796875 c 24
 210.6796875 401.059570312 250.280273438 368.719726562 225.103515625 350.681640625 c 24
 200.120117188 332.419921875 181.639648438 379.940429688 150.620117188 380.038085938 c 24
 119.599609375 379.940429688 101.120117188 332.419921875 76.1357421875 350.681640625 c 24
 50.9599609375 368.719726562 90.5595703125 401.059570312 81.0390625 430.591796875 c 24
 71.419921875 460.459960938 20.599609375 462.440429688 30.1025390625 492.358398438 c 24
 39.740234375 521.83984375 82.6396484375 494.120117188 107.616210938 512.389648438 c 24
 132.799804688 530.419921875 119.599609375 579.919921875 150.620117188 579.919921875 c 24
EndSplineSet
Validated: 33
EndChar

StartChar: .notdef
Encoding: 65536 -1 81
Width: 654
Flags: W
HStem: -14 60<277.478 366.548> 167.6 36.8008<294.511 360.883> 534 66<238.041 413.962>
VStem: 23 176.8<197.5 493.2> 462.2 168.8<200.4 491.8>
LayerCount: 2
Fore
SplineSet
325.400390625 534 m 4
 247 534 199.799804688 496.400390625 199.799804688 461.200195312 c 4
 199.799804688 441.200195312 211 422.799804688 236.599609375 422.799804688 c 4
 278.200195312 422.799804688 279.799804688 485.200195312 325.400390625 485.200195312 c 4
 352.552734375 485.200195312 367.799804688 464.400390625 367.799804688 439.599609375 c 4
 367.799804688 369.200195312 283.799804688 348.400390625 283.799804688 257.200195312 c 4
 283.799804688 231.599609375 298.200195312 204.400390625 330.200195312 204.400390625 c 4
 350.975585938 204.400390625 363.58984375 219.520507812 363.58984375 232.959960938 c 4
 363.58984375 259.280273438 348.599609375 257.200195312 348.599609375 280.400390625 c 4
 348.599609375 317.200195312 462.200195312 343.599609375 462.200195312 427.599609375 c 4
 462.200195312 506 397.400390625 534 325.400390625 534 c 4
261.400390625 106.799804688 m 4
 261.400390625 73.2001953125 288.599609375 46 322.200195312 46 c 4
 355.799804688 46 383 73.2001953125 383 106.799804688 c 4
 383 140.400390625 355.799804688 167.599609375 322.200195312 167.599609375 c 4
 288.599609375 167.599609375 261.400390625 140.400390625 261.400390625 106.799804688 c 4
23 295 m 0
 23 490 174 600 338 600 c 0
 502 600 631 477.599609375 631 292.799804688 c 0
 631 108 483 -14 329 -14 c 0
 175 -14 23 100 23 295 c 0
EndSplineSet
EndChar

StartChar: at
Encoding: 64 64 82
Width: 825
Flags: W
HStem: -138 54<318.445 538.068> -19 20G<608 657> 48.293 60.8291<346.924 436.301> 58.5996 54.2803<580.476 676.515> 81 301.106<478.582 568.045> 355.821 49.0645<386.507 473.068> 532 54<302.562 531.418>
VStem: 56 54<111.666 342.308> 206.917 125.895<123.389 291.047> 711 59<151.293 353.186>
LayerCount: 2
Fore
SplineSet
332.811523438 185 m 0xe7c0
 332.811523438 154.997070312 338 109.122070312 400 109.122070312 c 0
 436.071289062 109.122070312 443.600086658 141.286034091 451.392578125 178.959960938 c 2
 473.114257812 283.9765625 l 2
 481.413085938 324.099609375 477.68359375 355.821289062 438.743164062 355.821289062 c 0
 367.940429688 355.821289062 332.811523438 266 332.811523438 185 c 0xe7c0
619.959960938 58.599609375 m 0xd3c0
 550 58.599609375 510.27734375 81 498 81 c 0xcbc0
 482.240234375 81 425.814453125 48.29296875 349.741210938 48.29296875 c 0
 241.098632812 48.29296875 206.916992188 132 206.916992188 195 c 0
 206.916992188 344.176757812 331.653320312 404.885742188 411.3828125 404.885742188 c 0xe7c0
 486.651367188 404.885742188 510.319335938 382.106445312 526.249023438 382.106445312 c 0xcbc0
 543.7734375 382.106445312 558.46484375 403.69140625 585.545898438 403.69140625 c 0
 609.204101562 403.69140625 610.69921875 387.8203125 605.381835938 362.114257812 c 2
 570.81640625 195 l 2
 560.140431943 143.384627678 588 112.879882812 624 112.879882812 c 0
 688.400390625 112.879882812 711 179 711 242 c 0
 711 410 582 532 418 532 c 0
 264 532 110 426 110 220 c 0
 110 19 294 -84 431 -84 c 0
 586 -84 570 1 646 1 c 0
 668 1 687 -17 687 -45 c 0
 687 -90 593 -138 429 -138 c 0
 230 -138 56 11 56 228 c 0
 56 451 230 586 422 586 c 0
 626 586 770 424 770 253 c 0
 770 152 724.98046875 58.599609375 619.959960938 58.599609375 c 0xd3c0
EndSplineSet
Validated: 33
AlternateSubs2: "'salt' Stylistic Alternatives in Latin lookup 1-1" at.salt
EndChar

StartChar: numbersign
Encoding: 35 35 83
Width: 579
Flags: W
HStem: 0 21G<90 110> 151 64<22.2722 127.059 382.817 495.728> 160 46<59.3404 458.657> 296 64<84.2722 185.992 442.668 557.728> 305 46<121.34 520.657>
LayerCount: 2
Fore
SplineSet
83 328 m 0x90
 83 348 95 360 120 360 c 0x90
 148.705078125 360 169.581054688 351 324 351 c 0x88
 443 351 493.713867188 360 522 360 c 0
 547 360 559 348 559 328 c 0
 559 308 547 296 522 296 c 0x90
 493.713867188 296 446 305 323 305 c 0x88
 169.581054688 305 148.705078125 296 120 296 c 0
 95 296 83 308 83 328 c 0x90
280 0 m 0
 260 0 253 16 253 31 c 0
 253 75 298.1484375 140.805664062 345 259 c 0
 389 370 404 408 417 445.299804688 c 0
 425.644069318 470.101504478 438 482.299804688 456 482.299804688 c 0
 475 482.299804688 481 466.3828125 481 456 c 0
 481 420 455 376 407 260 c 0
 335.163085938 86.392578125 332 60 320 37 c 0
 308.435546875 14.8349609375 300 0 280 0 c 0
21 183 m 0
 21 203 33 215 58 215 c 0xc0
 86.705078125 215 107.581054688 206 262 206 c 0xa0
 381 206 431.713867188 215 460 215 c 0
 485 215 497 203 497 183 c 0
 497 163 485 151 460 151 c 0xc0
 431.713867188 151 384 160 261 160 c 0xa0
 107.581054688 160 86.705078125 151 58 151 c 0xc0
 33 151 21 163 21 183 c 0
100 0 m 0
 80 0 73 16 73 31 c 0
 73 75 118.148327142 140.806007109 165 259 c 0
 209 370 224 408 237 445.299804688 c 0
 245.644069318 470.101504478 258 482.299804688 276 482.299804688 c 0
 295 482.299804688 301 466.3828125 301 456 c 0
 301 420 275 376 227 260 c 0
 155.162614854 86.392985898 152 60 140 37 c 0
 128.435546875 14.8349609375 120 0 100 0 c 0
EndSplineSet
EndChar

StartChar: percent
Encoding: 37 37 84
Width: 586
Flags: W
HStem: -4.31641 41.4854<398.69 457.31> 0 21G<119 139> 204.243 41.4854<398.69 457.31> 245.729 41.4854<112.69 171.31> 454.288 41.4854<112.69 171.31>
VStem: 17.5 81.8604<298.819 444.5> 184.64 81.8604<298.819 444.5> 303.5 81.8604<48.7737 194.455> 470.64 81.8604<48.7737 194.455>
LayerCount: 2
Fore
SplineSet
428 204.243164062 m 0xaf80
 401.502929688 204.243164062 385.360351562 172.747070312 385.360351562 122.014648438 c 0
 385.360351562 69.7578125 401.502929688 37.1689453125 428 37.1689453125 c 0
 454.497070312 37.1689453125 470.639648438 69.7578125 470.639648438 122.014648438 c 0
 470.639648438 172.747070312 454.497070312 204.243164062 428 204.243164062 c 0xaf80
428 245.728515625 m 0
 498.887695312 245.728515625 552.5 195.473632812 552.5 122.341796875 c 0
 552.5 47.4404296875 498.887695312 -4.31640625 428 -4.31640625 c 0
 357.112304688 -4.31640625 303.5 47.4404296875 303.5 122.341796875 c 0
 303.5 195.473632812 357.112304688 245.728515625 428 245.728515625 c 0
142 454.288085938 m 0
 115.502929688 454.288085938 99.3603515625 422.791992188 99.3603515625 372.059570312 c 0
 99.3603515625 319.802734375 115.502929688 287.213867188 142 287.213867188 c 0x1f80
 168.497070312 287.213867188 184.639648438 319.802734375 184.639648438 372.059570312 c 0
 184.639648438 422.791992188 168.497070312 454.288085938 142 454.288085938 c 0
142 495.7734375 m 0
 212.887695312 495.7734375 266.5 445.518554688 266.5 372.38671875 c 0
 266.5 297.485351562 212.887695312 245.728515625 142 245.728515625 c 0
 71.1123046875 245.728515625 17.5 297.485351562 17.5 372.38671875 c 0
 17.5 445.518554688 71.1123046875 495.7734375 142 495.7734375 c 0
129 0 m 4x4f80
 109 0 102 16 102 31 c 4
 102 75 187 161 268 259 c 4
 347.126953125 354.733398438 365 387 400 445.299804688 c 4
 413.518554688 467.818359375 421 482.299804688 439 482.299804688 c 4
 458 482.299804688 464 466.3828125 464 456 c 4
 464 420 404 359 330 260 c 4
 200.874023438 87.25 181 60 169 37 c 4
 157.435546875 14.8349609375 149 0 129 0 c 4x4f80
EndSplineSet
EndChar

StartChar: plus
Encoding: 43 43 85
Width: 400
Flags: W
HStem: 226 64<27.2722 142.141 253.86 370.728> 234.066 47.8223<64.0801 174.718 223.139 333.872>
VStem: 167 64<86.2722 201.913 314.132 429.728> 175.154 47.6914<123.084 233.283 282.353 392.884>
LayerCount: 2
Fore
SplineSet
26 258 m 0x90
 26 278 38 290 63 290 c 0x90
 86.1223160701 290 104 281.888671875 146 281.888671875 c 0
 168 281.888671875 175.439453125 291 175.439453125 310 c 0
 175.439453125 359 167 370.01426124 167 394 c 0
 167 419 179 431 199 431 c 0
 219 431 231 419 231 394 c 0x60
 231 370.01426124 222.560546875 358 222.560546875 312 c 0
 222.560546875 293 226 281.52734375 250 281.52734375 c 0
 291 281.52734375 310.87628155 290 335 290 c 0
 360 290 372 278 372 258 c 0
 372 238 360 226 335 226 c 0
 310.87628155 226 292 234.47265625 252 234.47265625 c 0
 227 234.47265625 222.845703125 225 222.845703125 204 c 0x90
 222.845703125 159 231 145.270634654 231 122 c 0
 231 97 219 85 199 85 c 0
 179 85 167 97 167 122 c 0xa0
 167 145.270634654 175.154296875 159 175.154296875 206 c 0
 175.154296875 224 166.000000001 234.06640625 144 234.06640625 c 0x50
 104 234.06640625 85.9729973833 226 63 226 c 0
 38 226 26 238 26 258 c 0x90
EndSplineSet
EndChar

StartChar: equal
Encoding: 61 61 86
Width: 400
Flags: W
HStem: 166 64<27.2722 195.951 203.99 370.728> 175 46<64.3401 333.679> 296 64<27.2722 195.951 203.99 370.728> 305 46<64.3401 333.679>
LayerCount: 2
Fore
SplineSet
26 328 m 0x20
 26 348 38 360 63 360 c 0x20
 91.705078125 360 112.581054688 351 200 351 c 0x10
 286.142578125 351 306.713867188 360 335 360 c 0
 360 360 372 348 372 328 c 0
 372 308 360 296 335 296 c 0x20
 306.713867188 296 286.142578125 305 200 305 c 0x10
 112.581054688 305 91.705078125 296 63 296 c 0
 38 296 26 308 26 328 c 0x20
26 198 m 4
 26 218 38 230 63 230 c 4x80
 91.705078125 230 112.581054688 221 200 221 c 4x40
 286.142578125 221 306.713867188 230 335 230 c 4
 360 230 372 218 372 198 c 4
 372 178 360 166 335 166 c 4x80
 306.713867188 166 286.142578125 175 200 175 c 4x40
 112.581054688 175 91.705078125 166 63 166 c 4x80
 38 166 26 178 26 198 c 4
EndSplineSet
EndChar

StartChar: less
Encoding: 60 60 87
Width: 400
Flags: W
HStem: 124 63<253.771 365.548> 339 63<253.771 365.548>
LayerCount: 2
Fore
SplineSet
98.92578125 261.78515625 m 1
 98.92578125 261.78515625 148.376953125 236.646484375 195 221 c 0
 279.186523438 192.748046875 301.713867188 192 330 187 c 0
 354.618164062 182.6484375 367 175 367 155 c 0
 367 135 355 124 335 124 c 0
 306.713867188 124 278.97265625 133.788085938 195 169 c 0
 112.298828125 203.678710938 85.939453125 211.73046875 58 223 c 4
 34.1796875 232.608398438 16 238 16 258 c 0
 16 278 34.9345703125 287.357421875 58 297 c 4
 86.705078125 309 112.298828125 322.321289062 195 357 c 0
 278.97265625 392.211914062 306.713867188 402 335 402 c 0
 355 402 367 391 367 371 c 0
 367 351 354.618164062 343.3515625 330 339 c 0
 301.713867188 334 279.186523438 333.251953125 195 305 c 0
 148.376953125 289.353515625 98.92578125 261.78515625 98.92578125 261.78515625 c 1
EndSplineSet
EndChar

StartChar: greater
Encoding: 62 62 88
Width: 400
Flags: W
HStem: 124 63<32.4518 144.229> 339 63<32.4518 144.229>
LayerCount: 2
Fore
SplineSet
299.07421875 264.21484375 m 1
 299.07421875 264.21484375 249.623046875 289.353515625 203 305 c 0
 118.813476562 333.251953125 96.2861328125 334 68 339 c 0
 43.3818359375 343.3515625 31 351 31 371 c 0
 31 391 43 402 63 402 c 0
 91.2861328125 402 119.02734375 392.211914062 203 357 c 0
 285.701171875 322.321289062 312.060546875 314.26953125 340 303 c 0
 363.8203125 293.391601562 382 288 382 268 c 4
 382 248 363.065429688 238.642578125 340 229 c 0
 311.294921875 217 285.701171875 203.678710938 203 169 c 0
 119.02734375 133.788085938 91.2861328125 124 63 124 c 0
 43 124 31 135 31 155 c 0
 31 175 43.3818359375 182.6484375 68 187 c 0
 96.2861328125 192 118.813476562 192.748046875 203 221 c 0
 249.623046875 236.646484375 299.07421875 264.21484375 299.07421875 264.21484375 c 1
EndSplineSet
EndChar

StartChar: at.salt
Encoding: 65538 -1 89
Width: 825
Flags: W
HStem: -138 54<318.445 538.068> -19 20G<608 657> 48.293 60.8291<372.245 465.594> 58.5996 54.2803<598.227 680.236> 81.0195 301.087<474.627 559.604> 355.821 49.0645<368.033 463.134> 532 54<302.562 531.418>
VStem: 56 54<111.666 342.308> 218.22 123.548<141.302 317.016> 473.19 116.106<119.851 348.044> 711 59<147.136 353.186>
LayerCount: 2
Fore
SplineSet
341.767578125 241.045898438 m 0xe7e0
 341.767578125 166.573242188 361.04296875 109.122070312 420.419921875 109.122070312 c 0
 472.314453125 109.122070312 473.190429688 141.286132812 473.190429688 178.959960938 c 2
 473.190429688 283.9765625 l 2
 473.190429688 324.099609375 462.900390625 355.821289062 423.959960938 355.821289062 c 0
 353.157226562 355.821289062 341.767578125 292.73828125 341.767578125 241.045898438 c 0xe7e0
619.959960938 58.599609375 m 0xd3e0
 550 58.599609375 522.376953125 81.01953125 510.099609375 81.01953125 c 0xcbe0
 494.33984375 81.01953125 454.639648438 48.29296875 378.56640625 48.29296875 c 0
 269.923828125 48.29296875 218.219726562 135.03125 218.219726562 229.700195312 c 0
 218.219726562 341.803710938 306.721679688 404.885742188 386.451171875 404.885742188 c 0xe7e0
 461.719726562 404.885742188 490.098632812 382.106445312 506.028320312 382.106445312 c 0xcbe0
 523.552734375 382.106445312 533.780273438 403.69140625 560.861328125 403.69140625 c 0
 584.51953125 403.69140625 589.296875 387.8203125 589.296875 362.114257812 c 2
 589.296875 195 l 2
 589.296875 159.754882812 588 112.879882812 637 112.879882812 c 0
 688.400390625 112.879882812 711 179 711 242 c 0
 711 410 582 532 418 532 c 0
 264 532 110 426 110 220 c 0
 110 19 294 -84 431 -84 c 0
 586 -84 570 1 646 1 c 0
 668 1 687 -17 687 -45 c 0
 687 -90 593 -138 429 -138 c 0
 230 -138 56 11 56 228 c 0
 56 451 230 586 422 586 c 0
 626 586 770 424 770 253 c 0
 770 152 724.98046875 58.599609375 619.959960938 58.599609375 c 0xd3e0
EndSplineSet
Validated: 33
EndChar

StartChar: acute
Encoding: 180 180 90
Width: 231
Flags: W
HStem: 433 47<25.3864 98.2552> 572 20G<142 176.5>
VStem: 105 103<486.139 576.724>
LayerCount: 2
Fore
SplineSet
25 458.18359375 m 4
 25 475.18359375 40 478.18359375 59 478.18359375 c 4
 82 478.18359375 101.908203125 486.354492188 105 514.18359375 c 4
 111 568.18359375 124 590.18359375 160 590.18359375 c 4
 193 590.18359375 208 565.18359375 208 526.18359375 c 4
 208 471.18359375 160 431.18359375 86 431.18359375 c 4
 46 431.18359375 25 437.18359375 25 458.18359375 c 4
EndSplineSet
EndChar

StartChar: grave
Encoding: 96 96 92
Width: 231
Flags: W
HStem: 431.184 47<137.435 211.448> 570.184 20G<60.5 95>
VStem: 29 103<483.893 578.543>
LayerCount: 2
Fore
SplineSet
212 458.18359375 m 4
 212 437.18359375 191 431.18359375 151 431.18359375 c 4
 77 431.18359375 29 471.18359375 29 526.18359375 c 4
 29 565.18359375 44 590.18359375 77 590.18359375 c 4
 113 590.18359375 126 568.18359375 132 514.18359375 c 4
 135.091796875 486.354492188 155 478.18359375 178 478.18359375 c 4
 197 478.18359375 212 475.18359375 212 458.18359375 c 4
EndSplineSet
EndChar

StartChar: backslash
Encoding: 92 92 93
Width: 357
Flags: W
VStem: 255.5 64<-68.8872 40.5902>
LayerCount: 2
Fore
SplineSet
291.5 -72 m 0
 271.5 -72 260.470703125 -57.5009765625 255.5 -33 c 0
 241.5 36 226.921875 81.2060546875 153.5 284 c 0
 83.5 477.341796875 37.5 527 37.5 588 c 0
 37.5 605.083007812 46.5 619 65.5 619 c 4
 83.5 619 91.5458984375 608.305664062 101.5 584 c 0
 127.5 520.513671875 129.5 477.341796875 199.5 284 c 0
 272.921875 81.2060546875 319.5 14 319.5 -36 c 0
 319.5 -62 311.5 -72 291.5 -72 c 0
EndSplineSet
EndChar

StartChar: bracketleft
Encoding: 91 91 94
Width: 324
Flags: W
HStem: -74 64<208.033 306.919> 549 64<208.058 306.919>
VStem: 65 143<-10 549>
LayerCount: 2
Fore
SplineSet
65 -27 m 2
 65 566 l 2
 65 601 71 613 130 613 c 2
 252 613 l 2
 300 613 309 598 309 578 c 0
 309 558 290.873046875 549.291015625 274 549 c 2
 226 549 l 2
 212.881835938 549 208 537 208 525 c 2
 208 14 l 2
 208 -2 212.881835938 -10 226 -10 c 2
 274 -10 l 2
 290.873046875 -10.291015625 309 -19 309 -39 c 0
 309 -59 300 -74 252 -74 c 2
 130 -74 l 2
 71 -74 65 -62 65 -27 c 2
EndSplineSet
EndChar

StartChar: braceleft
Encoding: 123 123 95
Width: 347
Flags: W
HStem: -63 72.3018<213.22 294.547> 266.751 61.2217<28.9729 121.42> 540.162 72.8379<221.196 302.523>
VStem: 64.6895 147.335<9.73003 104.77> 72.665 147.335<450.375 539.771> 127.226 130.076<339.776 426.155> 137 131.014<150.468 261.452>
LayerCount: 2
Back
SplineSet
159.1875 127 m 0xe2
 159.1875 175 129.9375 198 111.25 198 c 0
 100.6875 198 91.23046875 192.020507812 79.400390625 192.020507812 c 0
 37.2763671875 192.020507812 39.541015625 271.25390625 79.7021484375 271.25390625 c 0
 84.4375 271.25390625 89.3125 268.975585938 103.9375 268.975585938 c 0
 130.75 268.975585938 153.009765625 293 153.009765625 328 c 0xe4
 153.009765625 389 95.8125 442 95.8125 525 c 0
 95.8125 617 199.708984375 643.008789062 244.5 643.008789062 c 0
 335.1875 643.008789062 359.62109375 611.153320312 359.62109375 587 c 0
 359.62109375 570.993164062 348 559 328 559 c 0
 313.774414062 559 302 570.9765625 278 570.9765625 c 0
 256 570.9765625 218.435546875 557 218.435546875 512.647460938 c 0xe8
 218.435546875 455.28515625 247.4375 417 247.4375 366 c 0xe4
 247.4375 297 203.5625 268 203.5625 248 c 0
 203.5625 230.5625 258.666992188 191 258.666992188 96 c 0xe2
 258.666992188 18.9951171875 210.419921875 -46.1162109375 210.419921875 -103.478515625 c 0
 210.419921875 -177.831054688 265.984375 -181.807617188 287.984375 -181.807617188 c 0
 311.984375 -181.807617188 323.758789062 -169.831054688 337.984375 -169.831054688 c 0
 357.984375 -169.831054688 369.60546875 -181.82421875 369.60546875 -197.831054688 c 0
 369.60546875 -221.984375 345.171875 -253.83984375 254.484375 -253.83984375 c 0
 209.693359375 -253.83984375 87.796875 -237.831054688 87.796875 -115.831054688 c 0xf0
 87.796875 -32.8310546875 159.1875 0 159.1875 127 c 0xe2
EndSplineSet
Fore
SplineSet
212.024414062 40.4638671875 m 4xf0
 212.024414062 20.1455078125 221.419921875 9.3017578125 239.024414062 9.3017578125 c 4
 259.024414062 9.3017578125 263.024414062 17.6904296875 283.024414062 17.6904296875 c 4
 306.89453125 17.6904296875 320.024414062 7.3193359375 320.024414062 -11.5361328125 c 4
 320.024414062 -43.34765625 287.412632101 -63 236.024414062 -63 c 0
 138.319712721 -63 64.689453125 -13.255859375 64.689453125 53.4638671875 c 4xf0
 64.689453125 122.3984375 137 141.065429688 137 210 c 0xe2
 137 245.991013954 116.483991254 271.37109375 87.390625 271.37109375 c 0
 76.7104492188 271.37109375 67.6889648438 266.750976562 57.0087890625 266.750976562 c 0
 39.6623837517 266.750976562 27.7107395097 278.946243475 27.7107395097 296.646238425 c 0
 27.7107395097 314.787173251 40.1637269116 327.97265625 57.296875 327.97265625 c 0
 66.5307617188 327.97265625 71.1811523438 326.211914062 80.4150390625 326.211914062 c 0
 107.09096348 326.211914062 127.225585938 345.828616265 127.225585938 371.818359375 c 0xe4
 127.225585938 427.450683594 72.6650390625 440.367675781 72.6650390625 496 c 0
 72.6650390625 562.71989181 146.295298659 613 244 613 c 0
 295.388218038 613 328 592.811754024 328 561 c 0
 328 542.144576007 314.870432512 531.7734375 291 531.7734375 c 0
 271 531.7734375 267 540.162109375 247 540.162109375 c 0
 229.395229403 540.162109375 220 529.318584699 220 509 c 0xe8
 220 467.135742188 257.301757812 443.043945312 257.301757812 401.1796875 c 0xe4
 257.301757812 336.796386719 215.44921875 334.388183594 215.44921875 310.004882812 c 0
 215.44921875 286.565917969 268.013671875 265.997558594 268.013671875 192.55859375 c 0xe2
 268.013671875 135.618652344 212.024414062 97.404296875 212.024414062 40.4638671875 c 4xf0
EndSplineSet
EndChar

StartChar: bracketright
Encoding: 93 93 96
Width: 324
Flags: W
HStem: -74 64<27.0813 125.942> 549 64<27.0813 125.967>
VStem: 126 143<-10 549>
LayerCount: 2
Fore
SplineSet
269 566 m 6
 269 -27 l 6
 269 -62 263 -74 204 -74 c 6
 82 -74 l 6
 34 -74 25 -59 25 -39 c 4
 25 -19 43.126953125 -10.291015625 60 -10 c 6
 108 -10 l 6
 121.118164062 -10 126 2 126 14 c 6
 126 525 l 6
 126 541 121.118164062 549 108 549 c 6
 60 549 l 6
 43.126953125 549.291015625 25 558 25 578 c 4
 25 598 34 613 82 613 c 6
 204 613 l 6
 263 613 269 601 269 566 c 6
EndSplineSet
EndChar

StartChar: braceright
Encoding: 125 125 97
Width: 347
Flags: W
HStem: -63 72.3018<48.1637 129.491> 271.371 54.8408<222.165 314.118> 540.162 72.8379<40.1881 121.515>
VStem: 74.6973 131.014<150.468 261.452> 85.4092 130.076<339.777 426.155> 122.711 147.335<450.375 539.771> 130.687 147.335<9.73003 104.771>
LayerCount: 2
Fore
SplineSet
130.686523438 40.4638671875 m 4xe2
 130.686523438 97.404296875 74.697265625 135.619140625 74.697265625 192.55859375 c 4xf0
 74.697265625 265.998046875 127.26171875 286.56640625 127.26171875 310.004882812 c 4
 127.26171875 334.388671875 85.4091796875 336.796875 85.4091796875 401.1796875 c 4xe8
 85.4091796875 443.043945312 122.7109375 467.135742188 122.7109375 509 c 4
 122.7109375 529.318359375 113.315429688 540.162109375 95.7109375 540.162109375 c 4
 75.7109375 540.162109375 71.7109375 531.7734375 51.7109375 531.7734375 c 4
 27.83984375 531.7734375 14.7109375 542.14453125 14.7109375 561 c 4
 14.7109375 592.811523438 47.322265625 613 98.7109375 613 c 4
 196.415039062 613 270.045898438 562.719726562 270.045898438 496 c 4xe4
 270.045898438 440.3671875 215.485351562 427.451171875 215.485351562 371.818359375 c 4xe8
 215.485351562 345.829101562 235.620117188 326.211914062 262.295898438 326.211914062 c 4
 271.529296875 326.211914062 276.1796875 327.97265625 285.4140625 327.97265625 c 4
 302.546875 327.97265625 315 314.787109375 315 296.646484375 c 4
 315 278.946289062 303.048828125 266.750976562 285.702148438 266.750976562 c 4
 275.021484375 266.750976562 266 271.37109375 255.3203125 271.37109375 c 4
 226.2265625 271.37109375 205.7109375 245.991210938 205.7109375 210 c 4xf0
 205.7109375 141.065429688 278.021484375 122.3984375 278.021484375 53.4638671875 c 4
 278.021484375 -13.255859375 204.390625 -63 106.686523438 -63 c 4
 55.2978515625 -63 22.6865234375 -43.34765625 22.6865234375 -11.5361328125 c 4
 22.6865234375 7.3193359375 35.81640625 17.6904296875 59.6865234375 17.6904296875 c 4
 79.6865234375 17.6904296875 83.6865234375 9.3017578125 103.686523438 9.3017578125 c 4
 121.291015625 9.3017578125 130.686523438 20.1455078125 130.686523438 40.4638671875 c 4xe2
EndSplineSet
EndChar

StartChar: underscore
Encoding: 95 95 98
Width: 680
Flags: W
HStem: -64 64<27.2722 293.37 386.637 650.728> -55 46<139.644 562.051>
LayerCount: 2
Fore
SplineSet
26 -32 m 0x80
 26 -12 38 0 63 0 c 0x80
 91.705078125 0 132.581054688 -9 350 -9 c 0x40
 556.142578125 -9 586.713867188 0 615 0 c 0
 640 0 652 -12 652 -32 c 0
 652 -52 640 -64 615 -64 c 0x80
 586.713867188 -64 556.142578125 -55 350 -55 c 0x40
 132.581054688 -55 91.705078125 -64 63 -64 c 0
 38 -64 26 -52 26 -32 c 0x80
EndSplineSet
EndChar

StartChar: c_h
Encoding: 65539 -1 99
Width: 784
Flags: W
HStem: -6 60<181.66 267.161> 0 48<313.892 350.644 474 513.968 572.246 608.814 728.404 768.381> 324 41<481.932 534.69> 332 60<186.555 252.134> 543 52<302.285 350.677>
VStem: 16 142<105.1 280.759> 311 40<26 84> 351 123<50.582 314.21 365.008 542.897> 609 119<47.8379 301.706>
LayerCount: 2
Fore
SplineSet
302 566 m 4x6d80
 302 577 302 595 336 595 c 6
 449 595 l 6
 459 595 474.771484375 587.99609375 475.108398438 562 c 6
 475.108398438 392 l 6x5d80
 475.108398438 375.7890625 476 365 484 365 c 4x2d80
 498 365 517 392 594 392 c 4x1d80
 671 392 728 338 728 248 c 6
 728 78 l 6
 728 54 737 48 746 48 c 4
 755 48 769 45 769 28 c 4
 769 11 758 -1 733 -1 c 4
 708 -1 687 6 664 6 c 4
 641 6 633 1 609 1 c 4
 585 1 572 8 572 26 c 4
 572 44 579 47 589 47 c 4
 604 47 609 56 609 76 c 6
 609 225 l 6
 609 306 569 324 533 324 c 4
 497 324 474.180664062 301.040039062 474 288 c 6
 474 66 l 6x6d80
 474 55.98828125 476 48 489 48 c 4
 503 48 514 37 514 25 c 4
 514 13 515 0 478 0 c 4
 441 0 427 4 411 4 c 4
 395 4 395 0 356 0 c 4
 317 0 311 10 311 26 c 4
 311 42 319 51 335 51 c 4
 351 51 351 70 351 79 c 6x6e80
 351 513 l 6
 351 541 342 543 324 543 c 4
 306 543 302 555 302 566 c 4x6d80
16 193 m 4
 16 304 111 392 217 392 c 4
 330 392 351 335 351 312 c 4x9d80
 351 292 333 272 309 272 c 4
 252 272 260 332 224 332 c 4
 190 332 158 293 158 185 c 4
 158 77 190 54 224 54 c 4
 280 54 280 124 317 124 c 4
 341 124 351 104 351 84 c 4
 351 61 310 -6 217 -6 c 4x9e80
 111 -6 16 82 16 193 c 4
EndSplineSet
Validated: 37
Ligature2: "'dlig' Discretionary Ligatures in Latin lookup 0-1" c h
EndChar

StartChar: bar
Encoding: 124 124 100
Width: 147
Flags: W
VStem: 41.5 64<-70.7278 193.497 356.007 617.728> 50.5 46<73.5583 495.878>
LayerCount: 2
Fore
SplineSet
73.5 -72 m 4x80
 53.5 -72 41.5 -60 41.5 -35 c 0x80
 41.5 35.8203125 50.5 100.32421875 50.5 286 c 0x40
 50.5 449.341796875 41.5 518.513671875 41.5 582 c 0
 41.5 607 53.5 619 73.5 619 c 0
 93.5 619 105.5 607 105.5 582 c 0x80
 105.5 518.513671875 96.5 449.341796875 96.5 286 c 0x40
 96.5 100.32421875 105.5 35.8203125 105.5 -35 c 0
 105.5 -60 93.5 -72 73.5 -72 c 4x80
EndSplineSet
EndChar

StartChar: longs
Encoding: 383 383 101
Width: 300
Flags: W
HStem: 0 53.9033<19.6273 77 199 255.974> 548 64<199.832 273.262>
VStem: 77 122<54.054 489.463>
LayerCount: 2
Fore
SplineSet
199 66 m 2
 199 59 202.252929688 54.0380859375 207 54.0380859375 c 0
 213 54.0380859375 216.19921875 57.470703125 227.040039062 57.470703125 c 0
 246.64453125 57.470703125 256.875976562 45.8955078125 256.875976562 29.8564453125 c 0
 256.875976562 13.81640625 248.233398438 0 214.626953125 0 c 0
 181.01953125 0 171.921875 3.609375 136.297851562 3.609375 c 4
 100.674804688 3.609375 94.607421875 0 61 0 c 0
 27.39453125 0 18.72265625 13.81640625 18.72265625 29.8564453125 c 0
 18.72265625 45.8955078125 28.982421875 57.470703125 48.5869140625 57.470703125 c 0
 59.5791015625 57.470703125 63 53.9033203125 69 53.9033203125 c 0
 73.75390625 53.9033203125 77 57 77 66 c 2
 77 367 l 2
 77 492 139 612 236 612 c 0
 267 612 296 598 296 563 c 0
 296 545.052734375 282.892578125 530 260 530 c 0
 237 530 234 548 219 548 c 0
 203 548 197 533 197 510 c 0
 197 481 199 338 199 281 c 2
 199 66 l 2
EndSplineSet
EndChar

StartChar: c_k
Encoding: 65540 -1 102
Width: 764
Flags: W
HStem: 0 57<181.067 268.431 698.188 743.222> 0 50<684.747 717.443> 310 77<625.605 711.165> 332 60<186.555 252.134> 539 48<307.693 350.637>
VStem: 16 142<105.1 280.759> 351 119<53.931 208.997 253.809 538.993>
LayerCount: 2
Fore
SplineSet
285 559 m 4x4e
 285 580 307 587 327 587 c 4
 347 587 364 582 379 582 c 4
 394 582 409 587 426 587 c 4
 469 587 470 561 470 540 c 6
 470 278 l 6
 470 248 476.290039062 240.030273438 500 260 c 6
 628 367.80859375 l 6
 645.0546875 382.172851562 665.911132812 387 681 387 c 4
 730 387 749 359 749 334 c 4
 749 309 735 287 700 287 c 4
 661 287 651 310 632 310 c 4
 610 310 600 293 600 278 c 4
 600 258.97265625 605.228515625 246.43359375 611.330078125 233 c 6
 683.548828125 74 l 6
 690.037109375 59.71484375 695 50 698 50 c 4x6e
 702 50 706 57 718 57 c 4
 730 57 745 53 745 31 c 4
 745 9 719 0 700 0 c 4x8e
 681 0 670 5 642 5 c 4
 614 5 604 0 578 0 c 4
 552 0 534 0 534 24 c 4
 534 57 570.900390625 41.9599609375 565 56 c 6
 507 194 l 6
 501.755859375 206.477539062 496 209 491 209 c 4
 486 209 474 205 474 187 c 6
 474 66 l 6
 474 49.8740234375 519 58 519 29 c 4
 519 9 508 0 477 0 c 4
 446 0 428 6 407 6 c 4
 386 6 361 0 343 0 c 4
 325 0 310 4 310 23 c 4
 310 50 351 47 351 62 c 6
 351 511 l 6
 351 529 343 539 333 539 c 4
 323 539 322 531 307 531 c 4
 292 531 285 538 285 559 c 4x4e
16 193 m 0
 16 304 111 392 217 392 c 0
 330 392 351 335 351 312 c 0
 351 292 333 272 309 272 c 0
 252 272 260 332 224 332 c 0x1e
 190 332 158 293 158 185 c 0
 158 77 190 54 224 54 c 0
 280 54 280 124 317 124 c 0
 341 124 351 104 351 84 c 0
 351 61 310 -6 217 -6 c 0
 111 -6 16 82 16 193 c 0
EndSplineSet
LCarets2: 1 0
Ligature2: "'dlig' Discretionary Ligatures in Latin lookup 0-1" c k
EndChar

StartChar: asciicircum
Encoding: 94 94 103
Width: 293
Flags: W
HStem: 397.995 21G<31.6743 56.6377 236.991 261.955> 474.116 116.067<116.857 176.58>
VStem: 20.6748 252.279<406.062 421.369>
LayerCount: 2
Fore
SplineSet
147.19921875 590.18359375 m 0
 165.158203125 590.18359375 176.331750291 574.826007351 189.897460938 554.116210938 c 2
 260.641601562 446.116210938 l 2
 270.538231276 431.007736941 272.954101562 421.370117188 272.954101562 412.869140625 c 0
 272.954101562 406.0625 267.62890625 397.995117188 256.280273438 397.995117188 c 0
 217.702148438 397.995117188 165.764648438 474.116210938 146.814453125 474.116210938 c 0
 127.864257812 474.116210938 75.9267578125 397.995117188 37.3486328125 397.995117188 c 0
 26 397.995117188 20.6748046875 406.0625 20.6748046875 412.869140625 c 0
 20.6748046875 421.369140625 23.0906130782 431.007642449 32.9873046875 446.116210938 c 2
 103.731445312 554.116210938 l 2
 117.297155959 574.826007351 129.470703125 590.18359375 147.19921875 590.18359375 c 0
EndSplineSet
EndChar

StartChar: bullet
Encoding: 8226 8226 104
Width: 400
Flags: W
LayerCount: 2
Fore
SplineSet
161.5 394 m 0
 204.5 394 187.5 482 262.5 482 c 0
 295.5 482 311.5 456 311.5 434 c 0
 311.5 394 279.5 393 279.5 366 c 0
 279.5 320 376.5 347 376.5 281 c 0
 376.5 244 356.5 230 333.5 230 c 8
 296.5 230 296.5 259 264.5 259 c 0
 245.5 259 234.5 247 234.5 229 c 8
 234.5 211 267.5 208 267.5 163 c 0
 267.5 131 238.5 122 216.5 122 c 0
 171.5 122 177.5 207 134.5 207 c 0
 103.5 207 99.5 166 64.5 166 c 0
 36.5 166 23.5 190 23.5 208 c 0
 23.5 258 98.5 271 98.5 303 c 0
 98.5 335 36.5 338 36.5 386 c 8
 36.5 434 70.5 434 86.5 434 c 0
 127.5 434 129.5 394 161.5 394 c 0
EndSplineSet
Validated: 1
EndChar

StartChar: yen
Encoding: 165 165 105
Width: 548
Flags: W
HStem: 0.0859375 52<161.911 207.639 355.169 399.639> 75.748 59.2334<119.599 442.095> 165.748 59.2334<119.599 442.095> 424.086 62<-3.10986 63.7431 486.387 554.512>
VStem: 210.559 143<57.5884 247.215>
LayerCount: 2
Fore
SplineSet
129.232421875 224.981445312 m 0
 167.5703125 224.981445312 208.5703125 222.703125 271.66796875 222.703125 c 0
 348.502929688 222.703125 394.5703125 223.379882812 427.744140625 223.379882812 c 0
 461.329101562 223.379882812 461.374023438 161 429 161 c 0
 389.5703125 161 352.961914062 165.727539062 274.5703125 165.727539062 c 0
 215.5703125 165.727539062 166.5703125 165.748046875 128.256835938 165.748046875 c 0
 98.6015625 165.748046875 98.8154296875 224.981445312 129.232421875 224.981445312 c 0
129.232421875 134.981445312 m 0
 167.5703125 134.981445312 208.5703125 132.703125 271.66796875 132.703125 c 0
 348.502929688 132.703125 394.5703125 133.379882812 427.744140625 133.379882812 c 0
 461.329101562 133.379882812 461.374023438 71 429 71 c 0
 389.5703125 71 352.961914062 75.7275390625 274.5703125 75.7275390625 c 0
 215.5703125 75.7275390625 166.5703125 75.748046875 128.256835938 75.748046875 c 0
 98.6015625 75.748046875 98.8154296875 134.981445312 129.232421875 134.981445312 c 0
210.55859375 197.239257812 m 2
 210.55859375 227 198.86328125 235.390625 175.811523438 263 c 2
 99 360 l 2
 57.3984375 409.828125 52.55859375 423.0859375 28.55859375 423.0859375 c 0
 8.55859375 423.0859375 -4.44140625 437.0859375 -4.44140625 454.0859375 c 0
 -4.44140625 471.0859375 3.55859375 487.0859375 39.55859375 487.0859375 c 0
 75.55859375 487.0859375 89.55859375 482.0859375 117.55859375 482.0859375 c 0
 145.55859375 482.0859375 172.55859375 486.0859375 211.55859375 486.0859375 c 0
 250.55859375 486.0859375 263.55859375 483.0859375 263.55859375 453.0859375 c 0
 263.55859375 423.0859375 230.55859375 448.0859375 230.55859375 413.0859375 c 0
 230.55859375 399.0859375 238.212890625 388.6328125 255.55859375 370.0859375 c 2
 288.55859375 334.799804688 l 2
 300.966796875 321.532226562 309.836914062 314.0859375 325.55859375 314.0859375 c 0
 341.55859375 314.0859375 351.331054688 324.283203125 359.55859375 333.762695312 c 2
 394.55859375 374.0859375 l 2
 404.366210938 385.384765625 411.55859375 393.0859375 411.55859375 409.0859375 c 0
 411.55859375 431.0859375 360.55859375 412.0859375 360.55859375 457.0859375 c 0
 360.55859375 480.469726562 377.5 486.124023438 396.55859375 486.0859375 c 0
 417.4375 486.043945312 441.057617188 479.0859375 452.55859375 479.0859375 c 0
 474.55859375 479.0859375 483.55859375 486.0859375 511.55859375 486.0859375 c 0
 539.55859375 486.0859375 555.55859375 480.0859375 555.55859375 455.0859375 c 0
 555.55859375 430.0859375 536.55859375 422.0859375 527.55859375 422.0859375 c 0
 518.55859375 422.0859375 514.55859375 424.0859375 504.55859375 424.0859375 c 0
 494.55859375 424.0859375 495.455078125 414.823242188 484.55859375 400.0859375 c 2
 383.94140625 259 l 2
 373.779296875 245.255859375 353.55859375 229.184570312 353.55859375 198 c 2
 353.55859375 92.0859375 l 2
 353.55859375 74 355.55859375 57.0859375 377.55859375 57.0859375 c 0
 393.55859375 57.0859375 400.55859375 45.0859375 400.55859375 34.0859375 c 0
 400.55859375 -6.9140625 383.55859375 0.0859375 286.55859375 0.0859375 c 0
 188.55859375 0.0859375 161.55859375 -1.9140625 161.55859375 27.0859375 c 0
 161.55859375 34.0859375 162.55859375 52.0859375 184.55859375 52.0859375 c 0
 206.55859375 52.0859375 210.55859375 78.0859375 210.55859375 100.0859375 c 2
 210.55859375 197.239257812 l 2
EndSplineSet
EndChar

StartChar: sterling
Encoding: 163 163 106
Width: 544
Flags: W
HStem: -14 89<386.912 451.51> 248 59.2334<35.3418 357.838> 464 67<256.265 363.313>
VStem: 80 151<309.853 436.629>
LayerCount: 2
Back
SplineSet
44.564453125 318.278320312 m 0
 82.90234375 318.278320312 173.90234375 316 237 316 c 0
 313.834960938 316 409.90234375 316.676757812 443.076171875 316.676757812 c 0
 476.661132812 316.676757812 476.706054688 254.296875 444.33203125 254.296875 c 0
 404.90234375 254.296875 318.293945312 259.024414062 239.90234375 259.024414062 c 0
 180.90234375 259.024414062 81.90234375 259.044921875 43.5888671875 259.044921875 c 0
 13.93359375 259.044921875 14.1474609375 318.278320312 44.564453125 318.278320312 c 0
667 387 m 0
 667 355 645 322 608 322 c 0
 481 322 506 464 406 464 c 16
 354 464 321 435 321 369 c 0
 321 272 317 219 317 198 c 0
 317 184 324 172 338 172 c 0
 363 172 374 188 425 188 c 0
 507 188 521 102 560 102 c 0
 599 102 567 176 618 176 c 0
 653 176 667 151 667 116 c 0
 667 53 614 -14 520 -14 c 0
 379 -14 348 72 313 72 c 0
 278 72 247 -17 167 -17 c 0
 124 -17 97 11 97 41 c 0
 97 124 221 143 221 163 c 0
 221 186 108 225 108 350 c 0
 108 445 214 531 414 531 c 0
 614 531 667 445 667 387 c 0
EndSplineSet
Fore
SplineSet
44.9755859375 307.233398438 m 0
 83.3134765625 307.233398438 124.313476562 304.955078125 187.411132812 304.955078125 c 0
 264.24609375 304.955078125 310.313476562 305.631835938 343.487304688 305.631835938 c 0
 377.072265625 305.631835938 377.1171875 243.251953125 344.743164062 243.251953125 c 0
 305.313476562 243.251953125 268.705078125 247.979492188 190.313476562 247.979492188 c 0
 131.313476562 247.979492188 82.3134765625 248 44 248 c 0
 14.3447265625 248 14.55859375 307.233398438 44.9755859375 307.233398438 c 0
504 404.5 m 0
 504 374 484 354 452 354 c 0
 363.100585938 354 407 464 308 464 c 0
 256 464 231 431 231 357 c 0
 231 270 239.796191406 183.611425783 248 159 c 0
 253 144 260 135 274 135 c 0
 285 135 297 139 312 139 c 0
 381 139 379 75 423 75 c 0
 476 75 436 146 483 146 c 0
 513 146 527 121 527 86 c 0
 527 36 482 -14 398 -14 c 0
 292 -14 269 63 234 63 c 0
 199 63 177 -17 97 -17 c 0
 54 -17 38 18 38 36 c 0
 38 119 151 115 151 135 c 0
 151 158 80 225 80 358 c 0
 80 445 152 531 316 531 c 0
 434 531 504 465 504 404.5 c 0
EndSplineSet
EndChar

StartChar: cent
Encoding: 162 162 107
Width: 397
Flags: W
HStem: -86.54 133.54<200.13 275.748> -12 57.7178<209.395 254.359> 343.46 48.54<215.26 248.495>
VStem: 16 142<91.4725 275.731> 192.777 77.2227<-83.7454 31.6191 352.859 472.964>
LayerCount: 2
Fore
SplineSet
195.709960938 -18.732421875 m 4xb8
 195.709960938 -5.9775390625 194.732421875 2.080078125 194.732421875 17.5205078125 c 4
 194.732421875 36.318359375 209.39453125 45.7177734375 231.876953125 45.7177734375 c 4x78
 254.359375 45.7177734375 270 31.619140625 270 16.8486328125 c 4
 270 2.080078125 266.08984375 -10.0048828125 266.08984375 -18.732421875 c 4
 266.08984375 -27.4599609375 270 -36.859375 270 -57 c 4
 270 -77.140625 248.495117188 -86.5400390625 231.876953125 -86.5400390625 c 4
 215.259765625 -86.5400390625 192.77734375 -78.4833984375 192.77734375 -57 c 4
 192.77734375 -41.55859375 195.709960938 -32.16015625 195.709960938 -18.732421875 c 4xb8
195.709960938 411.267578125 m 0
 195.709960938 424.022460938 194.732421875 432.080078125 194.732421875 447.520507812 c 0
 194.732421875 466.318359375 209.39453125 475.717773438 231.876953125 475.717773438 c 0
 254.359375 475.717773438 270 461.619140625 270 446.848632812 c 0
 270 432.080078125 266.08984375 419.995117188 266.08984375 411.267578125 c 0
 266.08984375 402.540039062 270 393.140625 270 373 c 0
 270 352.859375 248.495117188 343.459960938 231.876953125 343.459960938 c 0
 215.259765625 343.459960938 192.77734375 351.516601562 192.77734375 373 c 0
 192.77734375 388.44140625 195.709960938 397.83984375 195.709960938 411.267578125 c 0
16 193 m 0
 16 304 121 392 227 392 c 0
 350 392 371 335 371 312 c 0
 371 292 353 272 329 272 c 0
 272 272 280 332 234 332 c 0
 200 332 158 293 158 185 c 0
 158 97 185 47 244 47 c 0xb8
 303 47 309 108 356 108 c 0
 374 108 385 96 385 78 c 0
 385 34 308 -12 231 -12 c 0
 134 -12 16 32 16 193 c 0
EndSplineSet
Validated: 5
EndChar

StartChar: uni00AD
Encoding: 173 173 108
Width: 329
Flags: W
HStem: 155.266 104.734<85.064 243.664>
LayerCount: 2
Fore
SplineSet
207.999023438 155.265625 m 6
 102 155.265625 l 6
 95.9990234375 155.265625 82 138 56 138 c 4
 30 138 28.5390625 164.354492188 39 178 c 6
 85 238 l 6
 97.0234375 253.682617188 105 260 121 260 c 6
 233 260 l 6
 242 260 246.999023438 277.265625 272.999023438 277.265625 c 4
 298.999023438 277.265625 300.4609375 250.911132812 289.999023438 237.265625 c 6
 243.999023438 177.265625 l 6
 231.9765625 161.583007812 224 155.265625 207.999023438 155.265625 c 6
EndSplineSet
Validated: 33
EndChar

StartChar: uni2011
Encoding: 8209 8209 109
Width: 329
Flags: W
HStem: 155.266 104.734<85.064 243.664>
LayerCount: 2
Fore
SplineSet
207.999023438 155.265625 m 6
 102 155.265625 l 6
 95.9990234375 155.265625 82 138 56 138 c 4
 30 138 28.5390625 164.354492188 39 178 c 6
 85 238 l 6
 97.0234375 253.682617188 105 260 121 260 c 6
 233 260 l 6
 242 260 246.999023438 277.265625 272.999023438 277.265625 c 4
 298.999023438 277.265625 300.4609375 250.911132812 289.999023438 237.265625 c 6
 243.999023438 177.265625 l 6
 231.9765625 161.583007812 224 155.265625 207.999023438 155.265625 c 6
EndSplineSet
Validated: 33
EndChar

StartChar: endash
Encoding: 8211 8211 110
Width: 540
Flags: W
HStem: 176 64<27.2722 253.97 266.572 510.728> 185 46<64.1176 471.851>
LayerCount: 2
Fore
SplineSet
26 208 m 0x80
 26 228 38 240 63 240 c 0x80
 86.5236560808 240 130.021484375 231 260 231 c 4x40
 401.581054688 231 454.1328125 240 475 240 c 0
 500 240 512 228 512 208 c 0
 512 188 500 176 475 176 c 0x80
 454.1328125 176 401.581054688 185 260 185 c 4x40
 130.021484375 185 86.5236560808 176 63 176 c 0
 38 176 26 188 26 208 c 0x80
EndSplineSet
EndChar

StartChar: emdash
Encoding: 8212 8212 111
Width: 770
Flags: W
HStem: 176 64<27.2722 290.333 481.25 740.728> 185 46<158.603 582.637>
LayerCount: 2
Fore
SplineSet
26 208 m 0x80
 26 228 38 240 63 240 c 0x80
 91.705078125 240 162.581054688 231 370 231 c 4x40
 616.142578125 231 676.713867188 240 705 240 c 0
 730 240 742 228 742 208 c 0
 742 188 730 176 705 176 c 0x80
 676.713867188 176 616.142578125 185 370 185 c 4x40
 162.581054688 185 91.705078125 176 63 176 c 0
 38 176 26 188 26 208 c 0x80
EndSplineSet
EndChar

StartChar: perthousand
Encoding: 8240 8240 112
Width: 1063
Flags: W
HStem: -4 47.2695<484.018 556.643 834.018 906.643> 263.66 43.4199<480.48 557.095 830.48 907.095> 289 47.2695<143.018 215.643> 556.66 43.4199<139.48 216.095>
VStem: 20.0703 101.64<363.994 525.349> 235.67 110.11<365.174 525.637> 361.07 101.64<70.9944 232.349> 576.67 110.11<72.1743 232.637> 711.07 101.64<70.9944 232.349> 926.67 110.11<72.1743 232.637>
LayerCount: 2
Fore
SplineSet
812.709960938 156.860351562 m 0xdfc0
 812.709960938 74.1123046875 839.66015625 43.26953125 871.23046875 43.26953125 c 0
 902.799804688 43.26953125 926.669921875 74.1123046875 926.669921875 156.860351562 c 0
 926.669921875 239.608398438 900.799804688 263.66015625 869.23046875 263.66015625 c 0
 837.66015625 263.66015625 812.709960938 239.608398438 812.709960938 156.860351562 c 0xdfc0
711.0703125 151.540039062 m 0
 711.0703125 243.940429688 780.370117188 307.080078125 872 307.080078125 c 0
 963.629882812 307.080078125 1036.78027344 244.709960938 1036.78027344 152.309570312 c 0
 1036.78027344 59.91015625 963.629882812 -4 872 -4 c 0
 780.370117188 -4 711.0703125 59.1396484375 711.0703125 151.540039062 c 0
121.709960938 449.860351562 m 0
 121.709960938 367.112304688 148.66015625 336.26953125 180.23046875 336.26953125 c 0xbfc0
 211.799804688 336.26953125 235.669921875 367.112304688 235.669921875 449.860351562 c 0
 235.669921875 532.608398438 209.799804688 556.66015625 178.23046875 556.66015625 c 0
 146.66015625 556.66015625 121.709960938 532.608398438 121.709960938 449.860351562 c 0
20.0703125 444.540039062 m 0
 20.0703125 536.940429688 89.3701171875 600.080078125 181 600.080078125 c 0
 272.629882812 600.080078125 345.780273438 537.709960938 345.780273438 445.309570312 c 0
 345.780273438 352.91015625 272.629882812 289 181 289 c 0
 89.3701171875 289 20.0703125 352.139648438 20.0703125 444.540039062 c 0
462.709960938 156.860351562 m 0
 462.709960938 74.1123046875 489.66015625 43.26953125 521.23046875 43.26953125 c 0
 552.799804688 43.26953125 576.669921875 74.1123046875 576.669921875 156.860351562 c 0
 576.669921875 239.608398438 550.799804688 263.66015625 519.23046875 263.66015625 c 0xdfc0
 487.66015625 263.66015625 462.709960938 239.608398438 462.709960938 156.860351562 c 0
361.0703125 151.540039062 m 0
 361.0703125 243.940429688 430.370117188 307.080078125 522 307.080078125 c 0
 613.629882812 307.080078125 686.780273438 244.709960938 686.780273438 152.309570312 c 0
 686.780273438 59.91015625 613.629882812 -4 522 -4 c 0
 430.370117188 -4 361.0703125 59.1396484375 361.0703125 151.540039062 c 0
148.963867188 66.7392578125 m 0
 164.5625 88.5732421875 306.586914062 279.196289062 338.037109375 324.112304688 c 0
 382.107421875 387.053710938 477.130859375 536.5859375 488.426757812 555.036132812 c 0
 505.962890625 583.678710938 565.993164062 543.772460938 546.555664062 517.883789062 c 0
 529.649414062 495.364257812 437.3984375 370.684570312 392.633789062 306.330078125 c 0
 361.861328125 262.08984375 223.330078125 54.912109375 205.723632812 27.8193359375 c 0
 189.565429688 2.953125 131.283203125 41.98828125 148.963867188 66.7392578125 c 0
EndSplineSet
Validated: 33
EndChar

StartChar: guillemotleft
Encoding: 171 171 113
Width: 438
Flags: W
HStem: 66.6862 269.314<179 221 359 401>
VStem: 28.0928 119.907<163.589 236.74> 208.093 119.907<163.589 236.74>
LayerCount: 2
Fore
SplineSet
208.092773438 205 m 0
 208.092773438 231.840820312 223.454101562 243.385742188 248 262 c 0
 322.279296875 318.329101562 349 336 388 336 c 0
 401 336 410.416992188 329 410.416992188 315 c 0
 410.416992188 301.541992188 401.705078125 286 353 240 c 0
 335.465820312 223.439453125 328 206.831054688 328 197 c 0
 328 187.831054688 331.45703125 172.61328125 352 155 c 0
 396.321289062 117 410.416992188 108.131835938 410.416992188 84 c 0
 410.416992188 73.94921875 404 66.6865234375 391 66.6865234375 c 0
 359 66.6865234375 321.796875 83.818359375 250 146 c 0
 228.525390625 164.598632812 208.092773438 178.159179688 208.092773438 205 c 0
28.0927734375 205 m 0
 28.0927734375 231.840820312 43.4541015625 243.385742188 68 262 c 0
 142.279296875 318.329101562 169 336 208 336 c 0
 221 336 230.416992188 329 230.416992188 315 c 0
 230.416992188 301.541992188 221.705078125 286 173 240 c 0
 155.465820312 223.439453125 148 206.831054688 148 197 c 0
 148 187.831054688 151.45703125 172.61328125 172 155 c 0
 216.321289062 117 230.416992188 108.131835938 230.416992188 84 c 0
 230.416992188 73.9492212973 224 66.6862002393 211 66.6862002393 c 0
 179 66.6862002393 141.796875 83.818359375 70 146 c 0
 48.525390625 164.598632812 28.0927734375 178.159179688 28.0927734375 205 c 0
EndSplineSet
Validated: 1
EndChar

StartChar: guillemotright
Encoding: 187 187 114
Width: 438
Flags: W
HStem: 66.6865 269.313<35.5098 77.5098 215.51 257.51>
VStem: 108.51 119.907<163.589 236.74> 288.51 119.907<163.589 236.74>
LayerCount: 2
Fore
SplineSet
228.416992188 205 m 0
 228.416992188 178.159179688 207.984375 164.598632812 186.509765625 146 c 0
 114.712890625 83.818359375 77.509765625 66.6865234375 45.509765625 66.6865234375 c 0
 32.509765625 66.6865234375 26.0927734375 73.94921875 26.0927734375 84 c 0
 26.0927734375 108.131835938 40.1884765625 117 84.509765625 155 c 0
 105.052734375 172.61328125 108.509765625 187.831054688 108.509765625 197 c 0
 108.509765625 206.831054688 101.043945312 223.439453125 83.509765625 240 c 0
 34.8046875 286 26.0927734375 301.541992188 26.0927734375 315 c 0
 26.0927734375 329 35.509765625 336 48.509765625 336 c 0
 87.509765625 336 114.23046875 318.329101562 188.509765625 262 c 0
 213.055664062 243.385742188 228.416992188 231.840820312 228.416992188 205 c 0
408.416992188 205 m 0
 408.416992188 178.159179688 387.984375 164.598632812 366.509765625 146 c 0
 294.712890625 83.818359375 257.509765625 66.6865234375 225.509765625 66.6865234375 c 0
 212.509765625 66.6865234375 206.092773438 73.94921875 206.092773438 84 c 0
 206.092773438 108.131835938 220.188476562 117 264.509765625 155 c 0
 285.052734375 172.61328125 288.509765625 187.831054688 288.509765625 197 c 0
 288.509765625 206.831054688 281.043945312 223.439453125 263.509765625 240 c 0
 214.8046875 286 206.092773438 301.541992188 206.092773438 315 c 0
 206.092773438 329 215.509765625 336 228.509765625 336 c 0
 267.509765625 336 294.23046875 318.329101562 368.509765625 262 c 0
 393.055664062 243.385742188 408.416992188 231.840820312 408.416992188 205 c 0
EndSplineSet
Validated: 1
EndChar

StartChar: guilsinglleft
Encoding: 8249 8249 115
Width: 257
Flags: W
HStem: 66.6862 269.314<179 221>
VStem: 28.0928 119.907<163.589 236.74>
LayerCount: 2
Fore
SplineSet
28.0927734375 205 m 0
 28.0927734375 231.840820312 43.4541015625 243.385742188 68 262 c 0
 142.279296875 318.329101562 169 336 208 336 c 0
 221 336 230.416992188 329 230.416992188 315 c 0
 230.416992188 301.541992188 221.705078125 286 173 240 c 0
 155.465820312 223.439453125 148 206.831054688 148 197 c 0
 148 187.831054688 151.45703125 172.61328125 172 155 c 0
 216.321289062 117 230.416992188 108.131835938 230.416992188 84 c 0
 230.416992188 73.9492212973 224 66.6862002393 211 66.6862002393 c 0
 179 66.6862002393 141.796875 83.818359375 70 146 c 0
 48.525390625 164.598632812 28.0927734375 178.159179688 28.0927734375 205 c 0
EndSplineSet
Validated: 1
EndChar

StartChar: guilsinglright
Encoding: 8250 8250 116
Width: 257
Flags: W
HStem: 66.6865 269.313<35.5098 77.5098>
VStem: 108.51 119.907<163.589 236.74>
LayerCount: 2
Fore
SplineSet
228.416992188 205 m 4
 228.416992188 178.159179688 207.984375 164.598632812 186.509765625 146 c 4
 114.712890625 83.818359375 77.509765625 66.6865234375 45.509765625 66.6865234375 c 4
 32.509765625 66.6865234375 26.0927734375 73.94921875 26.0927734375 84 c 4
 26.0927734375 108.131835938 40.1884765625 117 84.509765625 155 c 4
 105.052734375 172.61328125 108.509765625 187.831054688 108.509765625 197 c 4
 108.509765625 206.831054688 101.043945312 223.439453125 83.509765625 240 c 4
 34.8046875 286 26.0927734375 301.541992188 26.0927734375 315 c 4
 26.0927734375 329 35.509765625 336 48.509765625 336 c 4
 87.509765625 336 114.23046875 318.329101562 188.509765625 262 c 4
 213.055664062 243.385742188 228.416992188 231.840820312 228.416992188 205 c 4
EndSplineSet
Validated: 1
EndChar

StartChar: section
Encoding: 167 167 117
Width: 307
Flags: W
HStem: -3 55<128.336 195.154> 546 52<110.039 170.822>
VStem: 17.8682 92<225.25 328.772 456.896 543.864> 196.868 94<55.4936 116.636 272.516 388>
LayerCount: 2
Fore
SplineSet
196.868164062 288 m 0
 196.868164062 318 156.965820312 337 133.868164062 337 c 0
 119.868164062 337 109.868164062 330 109.868164062 318 c 0
 109.868164062 288 141.602539062 263.147460938 172 263.147460938 c 0
 185.602539062 263.147460938 196.868164062 274.711914062 196.868164062 288 c 0
22.8681640625 79 m 0
 22.8681640625 100 34 118 61.8681640625 118 c 0
 115.868164062 118 120.868164062 52 167.868164062 52 c 0
 185.868164062 52 196.868164062 66 196.868164062 82 c 0
 196.868164062 138 17.8681640625 173 17.8681640625 273 c 0
 17.8681640625 337 84.244140625 356 84.244140625 372.529296875 c 0
 84.244140625 385 17.8681640625 421.2890625 17.8681640625 482 c 0
 17.8681640625 548 83.8681640625 598 149.868164062 598 c 0
 215.868164062 598 249.58984375 571.150390625 249.58984375 541.044921875 c 0
 249.58984375 522.08984375 236.209960938 504.25 213.91015625 504.25 c 0
 176 504.25 161.868164062 546 133.868164062 546 c 0
 119.868164062 546 109.868164062 539 109.868164062 527 c 0
 109.868164062 463 290.868164062 445 290.868164062 331 c 0
 290.868164062 270 233.520507812 246 233.520507812 231.309570312 c 0
 233.520507812 216 290.868164062 182.174783327 290.868164062 121 c 0
 290.868164062 44 217.868164062 -3 149.868164062 -3 c 0
 85 -3 22.8681640625 35 22.8681640625 79 c 0
EndSplineSet
Validated: 1
EndChar

StartChar: degree
Encoding: 176 176 118
Width: 266
Flags: W
HStem: 349 53<85.4834 170.517> 514 51<85.4834 170.517>
VStem: 20 54<413.958 502.247> 182 54<413.958 502.247>
LayerCount: 2
Fore
SplineSet
74 458 m 4
 74 427 97 402 128 402 c 4
 159 402 182 427 182 458 c 4
 182 489 159 514 128 514 c 4
 97 514 74 489 74 458 c 4
20 457 m 4
 20 517 68 565 128 565 c 4
 188 565 236 517 236 457 c 4
 236 397 188 349 128 349 c 4
 68 349 20 397 20 457 c 4
EndSplineSet
EndChar

StartChar: macron
Encoding: 175 175 119
Width: 343
Flags: W
HStem: 519.083 64<24.2722 165.253 170.692 317.728> 528.083 46<61.5081 280.675>
VStem: 23 296<528.106 574.06>
LayerCount: 2
Fore
SplineSet
23 551.083007812 m 4xa0
 23 571.083007812 35 583.083007812 60 583.083007812 c 4xa0
 92.419294594 583.083007812 108.723632812 574.083007812 168 574.083007812 c 4x60
 225.8984375 574.083007812 253.730526195 583.083007812 282 583.083007812 c 4
 307 583.083007812 319 571.083007812 319 551.083007812 c 4
 319 531.083007812 307 519.083007812 282 519.083007812 c 4xa0
 253.730526195 519.083007812 225.8984375 528.083007812 168 528.083007812 c 4x60
 108.723632812 528.083007812 92.419294594 519.083007812 60 519.083007812 c 4
 35 519.083007812 23 531.083007812 23 551.083007812 c 4xa0
EndSplineSet
EndChar

StartChar: brokenbar
Encoding: 166 166 120
Width: 147
Flags: W
VStem: 41.5 64<-70.7278 92.4841 98.9737 247.728 299.272 472.216 478.717 617.728> 50.5 46<-33.6469 210.832 336.456 580.933>
LayerCount: 2
Back
SplineSet
73.5 -72 m 4x80
 53.5 -72 41.5 -60 41.5 -35 c 4x80
 41.5 35.8203125 50.5 100.32421875 50.5 286 c 4x40
 50.5 449.341796875 41.5 518.513671875 41.5 582 c 4
 41.5 607 53.5 619 73.5 619 c 4
 93.5 619 105.5 607 105.5 582 c 4x80
 105.5 518.513671875 96.5 449.341796875 96.5 286 c 4x40
 96.5 100.32421875 105.5 35.8203125 105.5 -35 c 4
 105.5 -60 93.5 -72 73.5 -72 c 4x80
EndSplineSet
Fore
SplineSet
73.5 -72 m 0x80
 53.5 -72 41.5 -60 41.5 -35 c 0x80
 41.5 -6.09825253115 50.5 20.2257715148 50.5 96 c 0x40
 50.5 160.012325802 41.5 187.120222762 41.5 212 c 0
 41.5 237 53.5 249 73.5 249 c 0
 93.5 249 105.5 237 105.5 212 c 0x80
 105.5 187.120222762 96.5 160.012325802 96.5 96 c 0x40
 96.5 20.2257715148 105.5 -6.09825253115 105.5 -35 c 0
 105.5 -60 93.5 -72 73.5 -72 c 0x80
73.5 298 m 0
 53.5 298 41.5 310 41.5 335 c 0x80
 41.5 366.107987734 50.5 394.441479264 50.5 476 c 4x40
 50.5 534.494021854 41.5 559.265031144 41.5 582 c 0
 41.5 607 53.5 619 73.5 619 c 0
 93.5 619 105.5 607 105.5 582 c 0x80
 105.5 559.265031144 96.5 534.494021854 96.5 476 c 4x40
 96.5 394.441479264 105.5 366.107987734 105.5 335 c 0
 105.5 310 93.5 298 73.5 298 c 0
EndSplineSet
EndChar

